<?xml version="1.0" encoding="utf-8"?>
<!-- Generator: Adobe Illustrator 24.2.3, SVG Export Plug-In . SVG Version: 6.00 Build 0)  -->
<svg version="1.1" id="Layer_1" xmlns="http://www.w3.org/2000/svg" xmlns:xlink="http://www.w3.org/1999/xlink" x="0px" y="0px"
	 viewBox="0 0 1920 155" style="enable-background:new 0 0 1920 155;" xml:space="preserve">
<style type="text/css">
	.st0{fill:#1C1C1C;}
</style>
<path class="st0" d="M98.8,61.5L98.8,61.5z"/>
<path class="st0" d="M102.1,53h0.9h-1.7H102.1z"/>
<path class="st0" d="M97.4,53.1L97.4,53.1z"/>
<path class="st0" d="M98.8,32.4L98.8,32.4z"/>
<path class="st0" d="M94.4,48.9h0.2H95H94.4z"/>
<path class="st0" d="M93.7,51.3L93.7,51.3z"/>
<path class="st0" d="M107.6,32.2L107.6,32.2z"/>
<path class="st0" d="M103.8,28.2L103.8,28.2L103.8,28.2L103.8,28.2z"/>
<path class="st0" d="M118.5,38.1L118.5,38.1z"/>
<path class="st0" d="M108.9,31.8L108.9,31.8z"/>
<path class="st0" d="M110,20.8L110,20.8z"/>
<path class="st0" d="M105.8,20.3L105.8,20.3c0.2,0.1,0.5,0.1,0.6,0H105.8L105.8,20.3z"/>
<path class="st0" d="M92.5,45.5h-0.2H92.5L92.5,45.5L92.5,45.5z"/>
<path class="st0" d="M89.9,45.1"/>
<path class="st0" d="M69.7,41.7"/>
<path class="st0" d="M66.8,78.1L66.8,78.1z"/>
<path class="st0" d="M71,42.5L71,42.5z"/>
<path class="st0" d="M65.6,77.8L65.6,77.8L65.6,77.8z"/>
<path class="st0" d="M65.9,42.5L65.9,42.5z"/>
<path class="st0" d="M77,38.8L77,38.8h0.3H77z"/>
<path class="st0" d="M83.6,32.7L83.6,32.7z"/>
<path class="st0" d="M78.3,61.8L78.3,61.8z"/>
<path class="st0" d="M62.3,45.1h0.6H62.3z"/>
<path class="st0" d="M89.6,30L89.6,30z"/>
<path class="st0" d="M82.3,38.5L82.3,38.5z"/>
<path class="st0" d="M83.1,39.6h0.5h-0.7H83.1z"/>
<path class="st0" d="M120.3,34L120.3,34z"/>
<path class="st0" d="M193.8,19.2L193.8,19.2z"/>
<path class="st0" d="M468.6,17.8L468.6,17.8L468.6,17.8h0.2H468.6z"/>
<path class="st0" d="M163.3,22.6L163.3,22.6z"/>
<path class="st0" d="M161.4,22.4c0.4,0,0.9,0,1.2-0.1c-0.3,0-0.6-0.1-1-0.1C161.6,22.3,161.5,22.4,161.4,22.4z"/>
<path class="st0" d="M162.6,20c0.1,0,0.2-0.1,0.2-0.1c-0.2,0-0.5,0-0.7,0.1H162.6z"/>
<path class="st0" d="M230.5,19h-0.3H230.5L230.5,19z"/>
<path class="st0" d="M231.7,15.5L231.7,15.5z"/>
<path class="st0" d="M434.6,19.5L434.6,19.5c1.6,0.1,3.1,0.2,4.9,0.3c0.2-0.1,0.4-0.3,0.6-0.4C438.3,19.3,436.4,19.3,434.6,19.5z"/>
<path class="st0" d="M122.8,29.4L122.8,29.4z"/>
<path class="st0" d="M450.9,18.7L450.9,18.7z"/>
<path class="st0" d="M252.1,15.4L252.1,15.4z"/>
<path class="st0" d="M253.3,15.8L253.3,15.8z"/>
<path class="st0" d="M447.1,19.9h4.6l11.5-0.5c-5.6,0-11.2-0.1-16.8-0.1C446.6,19.5,446.9,19.7,447.1,19.9z"/>
<path class="st0" d="M136.7,38.2L136.7,38.2z"/>
<path class="st0" d="M140.5,33.3L140.5,33.3z"/>
<path class="st0" d="M143,29.9h0.2H143L143,29.9z"/>
<path class="st0" d="M130.3,49.3L130.3,49.3z"/>
<path class="st0" d="M158.1,68h0.1H158.1z"/>
<path class="st0" d="M125.5,38c0.4,0,0.8,0,1.2-0.1h-0.5L125.5,38z"/>
<path class="st0" d="M143.7,27.5h-0.1h0.8H143.7z"/>
<path class="st0" d="M144.4,29.4L144.4,29.4z"/>
<path class="st0" d="M158.3,19.8L158.3,19.8z"/>
<path class="st0" d="M145.2,43.8L145.2,43.8l0.4-0.1L145.2,43.8L145.2,43.8z"/>
<path class="st0" d="M144.3,31.7L144.3,31.7z"/>
<path class="st0" d="M144.2,45.1h0.2H144.2L144.2,45.1z"/>
<path class="st0" d="M713.9,15.6h3.8C716.4,15.3,715.1,15.3,713.9,15.6z"/>
<path class="st0" d="M344.5,15.3L344.5,15.3z"/>
<path class="st0" d="M712.3,16.2c-0.4,0.2-0.9,0.4-1.3,0.6c2.4,0,4.8,0,7.1,0.2c0.6,0,1.2,0,1.8,0c-0.3-0.3-0.7-0.6-1.1-0.8
	C716.6,16.2,714.5,16.2,712.3,16.2z"/>
<path class="st0" d="M17.8,78.5L17.8,78.5L17.8,78.5z"/>
<path class="st0" d="M639.6,14.7L639.6,14.7z"/>
<path class="st0" d="M634.3,14.1L634.3,14.1z"/>
<path class="st0" d="M2.6,73.1L2.6,73.1L2.6,73.1z"/>
<path class="st0" d="M6.4,43.3L6.4,43.3L6.4,43.3z"/>
<path class="st0" d="M543.3,14.9L543.3,14.9z"/>
<path class="st0" d="M12.4,70.2L12.4,70.2z"/>
<path class="st0" d="M-0.1,43L-0.1,43z"/>
<path class="st0" d="M295.5,14.8h-0.4H295.5L295.5,14.8z"/>
<path class="st0" d="M277,16L277,16z"/>
<path class="st0" d="M705.4,15L705.4,15c-3.1,0-6.2,0.1-9.1-0.1h-1c-3.9,0-7.9,0.1-11.6-0.1c-8.9,0-18,0-26.5-0.3h-8.7
	c-1.8,0-4,0-5.3,0.1l0.3,0.1c20.8,0.6,42.6,0.7,64.2,0.9l-0.4-0.5L705.4,15z"/>
<path class="st0" d="M505.4,15.9L505.4,15.9z"/>
<path class="st0" d="M40,54.2h0.5c-0.2,0-0.5-0.1-0.7-0.1L40,54.2z"/>
<path class="st0" d="M36.6,39.2L36.6,39.2z"/>
<path class="st0" d="M31.5,42.3L31.5,42.3z"/>
<path class="st0" d="M33.7,62.1L33.7,62.1L33.7,62.1z"/>
<path class="st0" d="M30.2,72.6L30.2,72.6z"/>
<path class="st0" d="M26.5,73.5L26.5,73.5z"/>
<path class="st0" d="M27.4,77.2h1.8c-0.1,0-0.3,0-0.4,0C28.2,77.2,27.7,77.2,27.4,77.2z"/>
<path class="st0" d="M34.3,44.3L34.3,44.3h-0.4l0,0H34.3z"/>
<path class="st0" d="M39.1,26.1L39.1,26.1z"/>
<path class="st0" d="M36.6,62.1c0.5,0,0.9,0,1.4-0.1h-0.4C37.2,62,36.9,62.1,36.6,62.1z"/>
<path class="st0" d="M36.8,62.3L36.8,62.3z"/>
<path class="st0" d="M36.7,69.1L36.7,69.1z"/>
<path class="st0" d="M53.5,52.3L53.5,52.3h0.3H53.5z"/>
<path class="st0" d="M22.8,23.2"/>
<path class="st0" d="M22.5,70.4h0.3h-0.5C22.4,70.4,22.4,70.4,22.5,70.4z"/>
<path class="st0" d="M21.4,22.9h0.2H21.4L21.4,22.9z"/>
<path class="st0" d="M24,42.4L24,42.4z"/>
<path class="st0" d="M20.1,26.7h0.2H20H20.1z"/>
<path class="st0" d="M17.8,29.4"/>
<path class="st0" d="M17.6,78.5L17.6,78.5z"/>
<path class="st0" d="M50.4,43.1L50.4,43.1L50.4,43.1z"/>
<path class="st0" d="M49.4,64.1h-0.2H49.4L49.4,64.1z"/>
<path class="st0" d="M53.4,24.8L53.4,24.8z"/>
<path class="st0" d="M59.5,75.1h-0.2l0,0H59.5z"/>
<path class="st0" d="M38,51.3L38,51.3L38,51.3L38,51.3z"/>
<path class="st0" d="M1866.3,63.6h0.4H1866.3L1866.3,63.6z"/>
<path class="st0" d="M1871.4,66.4L1871.4,66.4h-0.2C1871.3,66.4,1871.3,66.4,1871.4,66.4z"/>
<path class="st0" d="M1815.7,56.8c-5.8-0.4-13.2-0.3-19.5-0.5c-0.3,0-0.6,0-0.9,0h0.1c-2.9,0-5.8,0-8.7-0.1c0.2,0.4,0.6,0.6,1.1,0.6
	l26.1,0.4c1-0.2,2.1-0.3,3.1-0.4C1816.6,56.9,1816.2,56.9,1815.7,56.8L1815.7,56.8z"/>
<path class="st0" d="M1792.1,57.3c0.3,0.1,0.5,0.4,0.6,0.7h0.4c4.6,0.1,9.8,0,11.4,0.6c0.1,0,1.5,0,2.3,0c0.3,0,0.8-0.1,1.2-0.1
	c1.4-0.4,2.9-0.7,4.4-1c-2.8,0-5.6,0-8.3-0.1C1800.1,57.4,1796.1,57.4,1792.1,57.3z"/>
<path class="st0" d="M1890.6,58.4h-2.5l0,0c-3.7,0.1-7.4,0.1-11.1-0.2c-3-0.1-5.6-0.2-8.4-0.4c-8.3,0.2-15.9-0.2-24-0.2
	c-0.4,0-1,0-1.2,0c-3-0.6-8-0.6-13.1-0.6c3.3,0.3,6.6,0.8,9.9,1.4c2.4-0.1,4.8,0.1,7.2,0.5c12.3,0.4,25.1,0.7,37.9,1
	c0.9,0,1.6,0.1,0.8,0.2c-1.6,0.1-3.3,0.1-4.9,0c-1.7,0-3.5,0-5-0.1l0,0c-1.7-0.1-3.8,0-5.4-0.1h-0.7h-7.5c-5.5,0-11,0-16.4-0.1
	c1.5,0.4,2.9,0.8,4.3,1.2h0.8l0,0c3.2,0,6.2,0,8.9,0.2c5.9,0.1,12.3,0,17.8,0.3h-0.1c6.2,0.2,13.6,0,18.9,0.4
	C1895.4,60.4,1893.1,59.3,1890.6,58.4z M1881.8,60.9c-6.5-0.2-12.9-0.3-19.3-0.5c-1.1,0-2.6-0.1-2-0.2c0.9-0.1,1.8-0.1,2.6-0.1
	c6.2,0.1,12.4,0.3,18.6,0.5c0.9,0,1.5,0.1,2.1,0.2C1883.9,60.9,1883,60.9,1881.8,60.9z"/>
<path class="st0" d="M1847.3,58.8h0.2H1847.3L1847.3,58.8z"/>
<path class="st0" d="M1871.2,62L1871.2,62z"/>
<path class="st0" d="M468.6,17.8"/>
<path class="st0" d="M1907,64.3L1907,64.3L1907,64.3z"/>
<path class="st0" d="M1905.4,62.1l-4.5-0.5l0.6,0.5C1902.9,62.1,1904.3,62.1,1905.4,62.1z"/>
<path class="st0" d="M1906.3,60.1c5.7,0.1,11.6,0.1,17,0.3l1.4-0.2l0,0c-0.6,0-1.3-0.1-1.9-0.3c0.4-0.1,0.8-0.1,1.2-0.1
	c-0.6-0.1-1.3-0.2-1.9-0.3c-1-0.1-2.5,0-3.4,0s-1.7,0-2.4,0c-0.4,0-0.8-0.1-1.2-0.2c-3.4,0-6.6-0.1-10.5,0.1h-1.1
	c-0.2,0.2-0.4,0.5-0.6,0.6C1904,60.1,1905.2,60.1,1906.3,60.1z"/>
<path class="st0" d="M1907.9,61.7L1907.9,61.7c-0.8,0-1.7,0-2.5,0c-1.4,0-3.1-0.1-4.5-0.2h-0.1c1.6,0,3.2,0.2,4.8,0.5
	c0.8,0,1.6-0.1,2.4-0.4L1907.9,61.7L1907.9,61.7z"/>
<path class="st0" d="M776.4,20.4L776.4,20.4c0,0,0.1,0.1,0.2,0.1C776.5,20.5,776.5,20.4,776.4,20.4z"/>
<path class="st0" d="M774.5,21.4C774.5,21.4,774.6,21.4,774.5,21.4l-1.5-0.1C773.5,21.4,774,21.5,774.5,21.4z"/>
<path class="st0" d="M770.9,20.6h2l2.4,0.1c0.2-0.2,0.5-0.3,0.8-0.3c-1.8-0.1-4-0.2-6.1-0.2L770.9,20.6z"/>
<path class="st0" d="M761.3,20.1c0.1,0.4,0.1,0.8,0,1.2l3.1-1.3c-0.7,0-1.4,0-2.1,0L761.3,20.1z"/>
<path class="st0" d="M751.5,19.3h-2.3c-4.2,0-8.3-0.1-12.5-0.1c-0.1,0.4-0.3,0.8-0.5,1.2h0.3c2.9-0.7,6-0.5,8.8,0.7
	c0.4,0.1,0.8,0.3,1.1,0.5h8.2C754.1,20.4,752.8,19.9,751.5,19.3z"/>
<path class="st0" d="M777.8,21.4h0.4H777.8L777.8,21.4z"/>
<path class="st0" d="M882.5,21.9L882.5,21.9z"/>
<path class="st0" d="M827,16.8L827,16.8c-5.8-0.4-13.2-0.3-19.5-0.5h-0.9h0.1c-5.2,0-10.4,0-15.2-0.2l0,0c-2.6,0-5.2,0-7.6-0.1l0,0
	c-4.5,0.1-8.1-0.3-12.6-0.2l0,0c-0.9,0-1.7,0-2.6-0.2c-0.6-0.1-1.3-0.2-1.9-0.2v0.1c0,0-0.1,0-0.2-0.1c-1.4-0.1-2.8-0.1-4.3,0
	c-0.8,0.1-1.7,0.1-2.5,0.1l-0.2,0.1v-0.1c-0.6,0-1.2,0.1-1.9,0.1c0.2,0.2,0.3,0.5,0.4,0.8c0.2,0.1,0.3,0.2,0.5,0.3h0.9
	c8.7-0.3,17,0,25.5,0.1c14.1,0.2,28.1,0.4,42.1,0.7l0,0c3.4,0,6.9,0,10.2,0.1l0,0c1.3,0,2.6,0,3.7,0c0.3-0.2,0.6-0.4,0.9-0.6
	c-2.9,0-5.9,0-8.6,0C831.2,17,829.1,16.9,827,16.8z"/>
<path class="st0" d="M741.6,21.5L741.6,21.5L741.6,21.5L741.6,21.5z"/>
<path class="st0" d="M829.2,17.5h-0.5h-0.5l0,0c-4.3,0-8.7,0-12.8-0.1c-14.8,0-28.9-0.5-43.6-0.5c-4,0-8-0.1-11.9-0.1h-0.7
	c0.8,0.5,1.4,1.2,1.8,1.9c1.7,0,3.4,0,5.1,0c1.4-1.4,2-1.4,2.8,0c4.2,0,8.3,0,12.4,0.1c2,0.1,4.5,0,6.8,0.1c1.4,0,4,0,4,0.1
	c0.9,0.5,5.8,0.5,9.6,0.7c3-0.3,6.1-0.3,9.2,0.1c6.5,0.3,13.6,0.1,20.4,0.3c2.9,0,5.7,0.1,8.5,0.2c-0.1-0.3-0.2-0.6-0.2-0.9
	c-4.4-0.1-8.9-0.1-13.2-0.2c-6.9-0.2-14.3-0.1-20.9-0.4l0,0c-5.3-0.2-11.4-0.1-16.4-0.4l0,0c-3,0.1-5.9,0-8.9-0.2H780
	c-2.1,0-4.5,0-6.4-0.1l-1.3-0.1l0,0c-2.8-0.1-3.5-0.3,0.3-0.3c8-0.1,15.8,0.1,23.7,0.2c2.7,0,5.3,0.1,8,0.1c4.5,0.1,9.8,0,11.4,0.6
	c0.1,0,1.5,0,2.3,0c1.4-0.2,2.9-0.3,4.4-0.2c2.8,0.2,5.6,0.2,8.4-0.1c3.1-0.3,6.2-0.3,9.3-0.2c0.1-0.1,0.3-0.3,0.4-0.4
	c-1.7,0-3.4,0-4.8-0.1C833.5,17.5,831.2,17.6,829.2,17.5z"/>
<path class="st0" d="M750.5,18.7c-0.3-0.2-0.5-0.3-0.8-0.5c-0.8,0.1-1.6,0-2.3-0.3c1.3-0.4,2.5-1.2,3.1-2.4h-4
	c-0.3,0.7-0.6,1.3-1,1.9c0.8-0.1,1.6,0,2.3,0.2c-0.7,0.1-1.5,0.2-2.2,0.1h-0.3c-0.7,0.7-1.7,0.3-4.1-0.8c0.9-0.7,2-1.2,3.2-1.4H742
	c-1.5,0-3,0-4.5-0.1c-0.1,1.1-0.2,2.1-0.5,3.2c2.8,0,5.6,0.1,8.3,0.1C747.1,18.6,748.8,18.7,750.5,18.7z"/>
<path class="st0" d="M546,18.1L546,18.1c0-0.1-0.1-0.2-0.1-0.3C546,17.9,546,18,546,18.1z"/>
<path class="st0" d="M519.7,18.5L519.7,18.5z"/>
<path class="st0" d="M1806.3,59.1c-4.2,0-8.3-0.1-12.2-0.2l0,0c-2.8-0.1-5.8-0.1-8.8-0.1c-1.6,0-3.1,0.1-4.7,0.1h4.6
	c1.2,0,2.8,0.1,3.8,0.1c0.5,0,1,0,1.4,0.1c0.1,0,0,0,0,0c-0.4,0.1-0.9,0.2-1.3,0.1c-1.3,0-2.9,0-4.1-0.1h-4.1
	c1.1,0.5,5.8,0.5,9.5,0.7c3-0.3,6.1-0.3,9.1,0.1c1.4,0,2.8,0.1,4.3,0.1C1804.6,59.6,1805.4,59.3,1806.3,59.1z"/>
<path class="st0" d="M503.6,18.1c0.1,0,0.2,0,0.3,0h0.2H503.6C503.3,18.1,503.5,18.2,503.6,18.1z"/>
<path class="st0" d="M858.6,18.7h0.2H858.6L858.6,18.7z"/>
<path class="st0" d="M682.4,20.1h-4.8C679.2,20.1,680.8,20.1,682.4,20.1z"/>
<path class="st0" d="M727.7,20.6h-0.9l0.6,0.7h2.8c-0.6-0.2-1.2-0.3-2-0.6C728.1,20.7,727.9,20.6,727.7,20.6z"/>
<path class="st0" d="M731.9,15.6c0.1,0.2,0.1,0.4,0.2,0.6c0.2,0,0.5,0,0.7-0.1c0.3-0.3,0.6-0.6,1-0.9h-1.9
	C731.9,15.4,731.9,15.5,731.9,15.6z"/>
<path class="st0" d="M711.2,21.1c0.4,0,0.9,0,1.3-0.1c0.2,0,0.4,0,0.6,0.1l2.8,0.1h1.4c2.1,0,4.2,0,6.3,0c0.1-0.3,0.3-0.5,0.6-0.7
	c-9.9-0.1-19.9-0.2-29.9-0.3C699.9,20.5,705.5,20.8,711.2,21.1z"/>
<path class="st0" d="M1457.5,38.9L1457.5,38.9L1457.5,38.9z"/>
<path class="st0" d="M1382.6,27.5c1,0,1.9-0.1,2.8-0.2C1384.4,27.2,1383.5,27.3,1382.6,27.5z"/>
<path class="st0" d="M1407.1,27.7c-2.3,0.8-4.7,1.1-7.1,0.7c0,0.5-0.2,1-0.5,1.5h6.4l5.1-0.1l0,0
	C1412.2,27.2,1408.6,27.2,1407.1,27.7z"/>
<path class="st0" d="M1110.6,26.3L1110.6,26.3L1110.6,26.3z"/>
<path class="st0" d="M992.2,23.6L992.2,23.6l0.1-0.2l0,0L992.2,23.6z"/>
<path class="st0" d="M1749.9,60.2c0.8,0.5,1.6,0.9,2.3,1.3c1.1,0,2.3,0,3.4,0c0.8,0,1.5,0,2.2,0c0.3-0.1,0.6-0.2,0.8-0.3
	c-1.8-0.1-3-0.2-2.2-0.4c1.1-0.2,2.2-0.3,3.3-0.2c0.2-0.1,0.4-0.2,0.5-0.4c-3,0-6.3,0-9.2-0.1L1749.9,60.2z"/>
<path class="st0" d="M1671.8,60.2L1671.8,60.2L1671.8,60.2z"/>
<path class="st0" d="M477.5,18.7h0.4l0,0H477.5z"/>
<path class="st0" d="M934.8,18.7l2.3,0.1c-0.4-0.7-1.2-0.9-1.9-0.5C935.1,18.4,934.9,18.5,934.8,18.7z"/>
<path class="st0" d="M936.7,19.8h0.9c-0.1-0.1-0.1-0.2-0.2-0.4h-0.1c-0.9,0-1.8,0-2.8,0c0,0.1-0.1,0.2-0.2,0.4
	C935.2,19.7,935.9,19.7,936.7,19.8z"/>
<path class="st0" d="M919.2,21.6h-0.6c-0.2,0-0.4,0-0.6,0.1v-0.1c-0.4,0-0.9,0-1.3,0c-2.9-0.1-7.5-0.2-6.4-0.5
	c0.9-0.2,4.5,0.1,6.9,0.1h0.8c0-0.3,0-0.5,0-0.7h-1.5c-1.9,0-4.7-0.1-4.1-0.4c1.8-0.2,3.5-0.3,5.3-0.2h0.2c0-0.2,0-0.5,0.1-0.7
	c-0.7,0-1.3,0-2,0c-6.3,0.2-7.4-0.3-6.8-0.7c-2.6-0.3-6.3-0.3-9.8-0.4l0,0c-3.7,0.1-7.4,0.1-11.1-0.2c-3-0.1-5.6-0.2-8.4-0.4
	c-8.3,0.2-15.9-0.2-24-0.2c-0.4,0-1,0-1.2,0c-3.9-0.5-7.9-0.7-11.8-0.6l0.5,0.7c1,0,1.4,0.1,0.1,0.2l0.4,0.6c1.5,0,3.1,0,4.5,0
	c3.4-0.2,6.9,0,10.3,0.4c12.3,0.4,25.1,0.7,37.9,1c0.9,0,1.5,0.1,0.9,0.1c-1.6,0.1-3.3,0.1-4.9,0c-1.7,0-3.5,0-5-0.1l0,0
	c-1.8-0.1-3.8,0-5.5-0.1h-0.7h-7.5c-9.9,0-19.5-0.1-29.2-0.2l0.3,0.5l-0.8,0.4c2.1,0,4.2,0.1,6.2,0.2c3.9,0.1,8,0.2,12,0.3l0,0
	c3.2,0,6.2,0,8.9,0.2c5.9,0.1,12.3,0,17.8,0.3H889c6.3,0.2,13.9,0,19.2,0.5l2.3,0.2h1.8C915.5,22.1,918.4,22.1,919.2,21.6
	L919.2,21.6L919.2,21.6z M893.1,20.8l-19.3-0.5c-1.1,0-2.5-0.1-1.9-0.2c0.9-0.1,1.8-0.1,2.6-0.1c6.2,0.2,12.4,0.3,18.6,0.5
	c0.9,0,1.5,0.1,2.1,0.2C895.2,20.8,894.2,20.8,893.1,20.8z"/>
<path class="st0" d="M939.1,19.6c-0.2,0.1-0.4,0.2-0.6,0.3c0.4,0,0.8,0,1.1-0.1C939.9,19.7,939.6,19.6,939.1,19.6z"/>
<path class="st0" d="M955.1,21.8L955.1,21.8l-4.6-0.4c-0.3,0.2-0.6,0.3-0.8,0.5c-0.1-0.2-0.2-0.4-0.2-0.6l-0.9-0.1l0,0
	c-7.6-0.3-15.5-0.4-23.4-0.6c-0.1,0.3-0.2,0.6-0.3,0.9c-1.1,0-2.2-0.1-3.2-0.1h0.6c5.2,0.1,10.2,0.3,15.2,0.5
	c0.7-0.2,1.5-0.3,2.2-0.3l-0.3,0.4h0.5h4c0.6-0.3,1.3-0.4,2-0.2l0.9,0.2h10.8L955.1,21.8L955.1,21.8z"/>
<path class="st0" d="M936,20.1L936,20.1c-0.5-0.1-1.4-0.1-1.7-0.2c-0.1,0.2-0.2,0.3-0.4,0.4h0.7L936,20.1z"/>
<path class="st0" d="M927.8,19.3h-2.2l-0.3,0.8c1.3,0,2.5,0,3.8,0.1C928.6,20.1,928.1,19.8,927.8,19.3z"/>
<path class="st0" d="M1902.1,53.1c-4.7-0.7-2.6-2.7-0.1-4c0.9-0.4,2-0.1,2.5-0.2s0.3,0,0.4,0c1.8,0.3,1.6,1.4,3.5,1.6
	c0.9-0.8,2.8-0.7,4.1-0.9c-0.1,0.2-0.2,0.4-0.4,0.7c-0.5,0.8-1,1.4,0,2.1c0.1,0.1,0.2,0.1,0.4,0.2c1.9,0.5,3.9,0.7,5.8,0.5
	c0.8,0,1.7-0.1,1.9-0.7l0,0v-0.1c-0.1-0.3-1.2-0.6-1.9-0.6c-0.9,0.1-1.9,0-2.8-0.2c-0.4-0.3,0.1-0.6,0.4-1.1s0.8-1.5-0.2-1.9
	s-1.9,0.1-2.7-0.6c-0.1,0,0.2,0,0.2-0.2c-1.1-1.4-6.7-0.5-7.4-0.1l-0.2,0.1c-0.4,0.1-0.5,0-0.7,0c-1.4,0-2.7,0.1-4.1,0.2l0.2-0.2
	c-12.6-1.2-25.3-1.6-37,2.1C1867.3,58.7,1891.8,54.5,1902.1,53.1z"/>
<path class="st0" d="M1818.5,37.5c-6-4.5-14.1-4.9-22.8-4.3c0,0.9-0.4,1.6-1.7,2.1c3.2,0.2,4.7,1.5,7.6,2.2
	C1807.3,36.2,1812.8,38.7,1818.5,37.5z"/>
<path class="st0" d="M1327.7,27h9.7C1334.2,26.5,1330.9,26,1327.7,27z"/>
<path class="st0" d="M1141.9,24.4c0.6,0.1,1.2-0.1,1.3-0.5s-0.4-1-1.3-1.2c-0.7,0-1.2,0.2-1.3,0.6
	C1140.4,23.9,1141.1,24.2,1141.9,24.4z"/>
<path class="st0" d="M1138.8,16.3c-1.4,0-1.4,1-1.5,1.8h2.6C1139.5,17.4,1140.5,16.3,1138.8,16.3z"/>
<path class="st0" d="M1321.6,27c0.3-0.1,0.5-0.2,0.8-0.4c-0.4-0.4-1.1-0.4-1.7-0.3c-0.3,0-0.7,0.1-1,0.3
	C1320,27.3,1320.9,27,1321.6,27z"/>
<polygon class="st0" points="1140.4,18.2 1139.8,18.1 1140.1,18.4 "/>
<polygon class="st0" points="1139.1,20.7 1138.5,20.5 1138.8,20.9 "/>
<path class="st0" d="M940.6,13.1l-2.6,0.8c0.7,0.6,1.6,0.9,2.6,0.8V13.1z"/>
<path class="st0" d="M940.9,15.1c0.3,0.1,0.7,0.2,1,0.3c0,0,0.2-0.2,0.3-0.3c-0.3-0.1-0.7-0.2-1.1-0.3
	C940.5,14.6,940.4,14.8,940.9,15.1z"/>
<path class="st0" d="M930.3,15.6h1.3C931.2,15,930.8,15,930.3,15.6z"/>
<polygon class="st0" points="932.2,15.8 931.6,15.6 931.9,15.9 "/>
<polygon class="st0" points="940.9,16.9 940.6,17.2 941.2,17 "/>
<path class="st0" d="M1914.6,29.6c0.1-0.4,0.2-0.8,1.4-0.6c-0.2-0.8-0.5-1.6-2.9-1.3C1913.4,28.4,1913,29.5,1914.6,29.6z"/>
<path class="st0" d="M1920.2,27.6c-0.1,0.4-0.2,0.8-1.4,0.7c0,0.4,0,0.9,0,1.3C1922.3,30.6,1922.9,27.4,1920.2,27.6z"/>
<path class="st0" d="M1188.9,23c0-0.1-0.1-0.2-0.2-0.4c-0.2,0-0.4,0.1-0.5,0.1s0.1,0.2,0.2,0.3S1188.9,23.1,1188.9,23z"/>
<path class="st0" d="M1243.3,24h12.4C1251.6,23.2,1247.4,22.3,1243.3,24z"/>
<path class="st0" d="M1005.7,19.6c0.7,0.2,1.4-0.1,1.6-0.8c0-0.1,0-0.1,0-0.2c0.2-1-0.5-1.7-1.6-2c-0.9,0-1.5,0.4-1.7,1
	C1003.8,18.7,1004.6,19.3,1005.7,19.6z"/>
<path class="st0" d="M1001.7,5.8c-1.8,0-1.8,1.8-2,3.1h3.3C1002.6,7.7,1003.9,5.8,1001.7,5.8z"/>
<path class="st0" d="M1235.5,24.1c0.4,0,0.7-0.4,1-0.6c-0.5-0.7-1.3-0.6-2.1-0.5c-0.5,0.1-0.9,0.2-1.3,0.5
	C1233.5,24.5,1234.6,24.2,1235.5,24.1z"/>
<polygon class="st0" points="1003.7,9.1 1003,8.8 1003.4,9.4 "/>
<polygon class="st0" points="1002,13.3 1001.4,13 1001.7,13.6 "/>
<polygon class="st0" points="300.1,2.1 299.4,1.8 299.8,2.4 "/>
<path class="st0" d="M748.2,3.2V0.4l-3.3,1.4C745.6,2.9,746.8,3.2,748.2,3.2z"/>
<path class="st0" d="M748.6,3.7c0.4,0.2,0.9,0.4,1.4,0.5c0.1,0,0.3-0.3,0.4-0.5c-0.5-0.2-0.9-0.3-1.4-0.5
	C748.1,3,747.9,3.2,748.6,3.7z"/>
<path class="st0" d="M735.1,4.6h1.6C736.2,3.6,735.6,3.6,735.1,4.6z"/>
<polygon class="st0" points="737.4,4.9 736.7,4.6 737.1,5.2 "/>
<polygon class="st0" points="748.6,6.8 748.2,7.4 748.9,7.1 "/>
<path class="st0" d="M284.6,0.4l1.6,1.4C285.9,1.2,287.1-0.8,284.6,0.4z"/>
<path class="st0" d="M360.3,6L360.3,6L360.3,6z"/>
<path class="st0" d="M477,8.8c-4-1.6-3.1,1-3.3,2.8C475.2,11.2,476.4,10.2,477,8.8z"/>
<path class="st0" d="M474.9,4.4c0-0.1-0.4-0.1-0.6-0.2c-0.1,0.2-0.2,0.4-0.2,0.6c0,0.1,0.4,0.1,0.6,0.2
	C474.8,4.8,474.9,4.6,474.9,4.4z"/>
<path class="st0" d="M1612.3,28.9h12.4C1620.6,28,1616.4,27.2,1612.3,28.9z"/>
<path class="st0" d="M1374.7,24.4c0.6,0.2,1.4-0.1,1.6-0.7c0-0.1,0-0.1,0.1-0.2c0.2-1-0.5-1.7-1.6-2c-0.9,0-1.6,0.4-1.7,1
	C1372.8,23.6,1373.6,24.2,1374.7,24.4z"/>
<path class="st0" d="M1370.7,10.6c-1.8,0-1.8,1.8-2,3.1h3.3C1371.6,12.6,1372.9,10.6,1370.7,10.6z"/>
<path class="st0" d="M1604.5,29c0.4,0,0.7-0.4,1-0.6c-0.5-0.7-1.3-0.6-2.1-0.5c-0.5,0.1-0.9,0.2-1.3,0.5
	C1602.5,29.4,1603.6,29,1604.5,29z"/>
<polygon class="st0" points="1372.7,14 1372,13.7 1372.4,14.2 "/>
<polygon class="st0" points="1371.1,18.2 1370.4,17.9 1370.7,18.5 "/>
<polygon class="st0" points="669.1,6.9 668.4,6.6 668.8,7.2 "/>
<path class="st0" d="M1102.6,17.3c2.2,0.8,6.5,2.6,7.1-2.4c0.1-1.2,2.4-2.1,3.1,0.3c0.2,0.9,0.7,2.5,1.2,1.9
	c2.4-2.7,7.1,0.4,9.2-2.9c0.8-1.2,2.6-2,0.8-3.4c-1.4-1.1-2.4,0-3.2,1c-1,1.3-2,2.3-3.6,0.6c-2.9-0.4-5.5-1.6-8.6,0
	c-3.3,1.7-4.2-0.4-4.5-2.8c-0.8,0.6-2,1-2.4,1.8C1100.5,13.4,1099.6,16.2,1102.6,17.3z"/>
<path class="st0" d="M1096.9,19.6c0.6-2,1.2-4,1.9-6.2c-9-3-11.4-1.5-10.5,6.5C1091,19,1093.8,19.5,1096.9,19.6z"/>
<path class="st0" d="M1115.7,19.8c-2,0.2-4,0.6-5.6,1.9C1114.1,23.4,1114.1,23.4,1115.7,19.8z"/>
<path class="st0" d="M1131.1,14.9c-0.6,1.6-3.9,2.2-2.5,5.4C1131,18.8,1132,17.3,1131.1,14.9z"/>
<path class="st0" d="M1117.2,8V5.2l-3.3,1.4C1114.6,7.8,1115.8,8,1117.2,8z"/>
<path class="st0" d="M1136.7,19c0.5-1.3,0.3-1.4-0.4-0.9c-0.5,0.4-1,0.9-1.5,1.4c0.3,0.2,0.6,0.4,0.9,0.5
	C1136.1,19.7,1136.4,19.4,1136.7,19z"/>
<path class="st0" d="M1117.6,8.6c0.4,0.2,0.9,0.4,1.3,0.5c0.1,0,0.3-0.3,0.4-0.5c-0.5-0.2-0.9-0.4-1.4-0.5
	C1117.1,7.8,1116.9,8.1,1117.6,8.6z"/>
<path class="st0" d="M1104.1,9.4h1.6C1105.2,8.5,1104.6,8.5,1104.1,9.4z"/>
<polygon class="st0" points="1106.4,9.8 1105.7,9.4 1106.1,10 "/>
<polygon class="st0" points="1117.6,11.7 1117.2,12.2 1117.9,11.9 "/>
<path class="st0" d="M653.7,5.2l1.6,1.4C654.9,6.1,656.1,4.1,653.7,5.2z"/>
<polygon class="st0" points="729.3,10.8 729.3,10.9 729.3,10.9 "/>
<path class="st0" d="M843.9,9.2c0-0.1-0.4-0.1-0.6-0.2c-0.1,0.2-0.2,0.4-0.2,0.6c0,0.1,0.4,0.1,0.6,0.2
	C843.8,9.6,843.9,9.4,843.9,9.2z"/>
<path class="st0" d="M874.5,20c-0.9,0-1.8,0-2.6,0.1c-0.6,0.2,0.8,0.2,1.9,0.2l19.3,0.5c1.1,0,2,0,2.1-0.2c-0.6,0-1.2-0.1-2.1-0.2
	C886.9,20.3,880.7,20.1,874.5,20z"/>
<path class="st0" d="M317.8,16.3c-3.3,0-6.5,0.1-9.8,0.2c-0.8-0.1-1.6,0-2.4,0.2c1,0.2,2,0.2,3,0.1h3.1c2.5,0,5.1,0,7.4-0.1
	c1.4-0.1,3.3-0.2,3-0.3C320.7,16.3,319.3,16.2,317.8,16.3z"/>
<path class="st0" d="M547.1,13.6c0.6,0,1.2,0,1.8-0.1c0.2-0.1-0.9-0.2-1.9-0.2h-20.7C532.9,13.7,540,13.7,547.1,13.6z"/>
<path class="st0" d="M510.9,13.5c0.9,0,1.5-0.1,1.4-0.2c-0.9-0.1-1.7-0.1-2.6-0.1c-0.4,0-0.8,0-1.2,0.1
	C509.3,13.5,510.1,13.5,510.9,13.5z"/>
<path class="st0" d="M609.1,16.2c0-0.1-0.2-0.2-1.2-0.2c-0.3,0-0.7,0-1,0.1c-0.2,0.1,0.1,0.1,1.2,0.1
	C608.4,16.2,608.8,16.2,609.1,16.2z"/>
<path class="st0" d="M1863.2,60.1c-0.9,0-1.8,0-2.6,0.1c-0.6,0.2,0.9,0.2,2,0.2c6.4,0.2,12.9,0.3,19.3,0.5c1.1,0,2,0,2.1-0.2
	c-0.6,0-1.2-0.1-2.1-0.2C1875.7,60.4,1869.4,60.2,1863.2,60.1z"/>
<path class="st0" d="M71,42.5L71,42.5z"/>
<path class="st0" d="M77,38.8L77,38.8h0.3H77z"/>
<path class="st0" d="M69.7,41.7"/>
<path class="st0" d="M78.3,61.8L78.3,61.8z"/>
<path class="st0" d="M82.3,38.5L82.3,38.5z"/>
<path class="st0" d="M66.8,78.1L66.8,78.1z"/>
<path class="st0" d="M83.6,32.7L83.6,32.7z"/>
<path class="st0" d="M89.6,30L89.6,30z"/>
<path class="st0" d="M40,54.2h0.5c-0.2,0-0.5-0.1-0.7-0.1L40,54.2z"/>
<path class="st0" d="M53.4,24.8L53.4,24.8z"/>
<path class="st0" d="M50.4,43.1L50.4,43.1L50.4,43.1z"/>
<path class="st0" d="M65.6,77.8L65.6,77.8L65.6,77.8z"/>
<path class="st0" d="M49.4,64.1L49.4,64.1L49.4,64.1L49.4,64.1z"/>
<path class="st0" d="M53.5,52.3L53.5,52.3h0.3H53.5z"/>
<path class="st0" d="M65.9,42.5L65.9,42.5z"/>
<path class="st0" d="M62.3,45.1h0.6H62.3z"/>
<path class="st0" d="M59.4,75.1L59.4,75.1L59.4,75.1L59.4,75.1z"/>
<path class="st0" d="M83.1,39.6h0.5h-0.7H83.1z"/>
<path class="st0" d="M110,20.8L110,20.8z"/>
<path class="st0" d="M108.9,31.8L108.9,31.8z"/>
<path class="st0" d="M107.6,32.2L107.6,32.2z"/>
<path class="st0" d="M118.5,38.1L118.5,38.1z"/>
<path class="st0" d="M105.8,20.3L105.8,20.3c0.2,0.1,0.5,0.1,0.6,0H105.8L105.8,20.3z"/>
<path class="st0" d="M125.5,38c0.4,0,0.8,0,1.2-0.1h-0.5L125.5,38z"/>
<path class="st0" d="M120.3,34L120.3,34z"/>
<path class="st0" d="M89.9,45.1"/>
<path class="st0" d="M122.8,29.4L122.8,29.4z"/>
<path class="st0" d="M97.4,53.1L97.4,53.1z"/>
<path class="st0" d="M103.8,28.2L103.8,28.2L103.8,28.2L103.8,28.2z"/>
<path class="st0" d="M93.7,51.3L93.7,51.3z"/>
<path class="st0" d="M92.5,45.5h-0.2H92.5L92.5,45.5L92.5,45.5z"/>
<path class="st0" d="M94.4,48.9h0.2H95H94.4z"/>
<path class="st0" d="M102.1,53h0.9h-1.7H102.1z"/>
<path class="st0" d="M98.8,61.5L98.8,61.5z"/>
<path class="st0" d="M98.8,32.4L98.8,32.4z"/>
<path class="st0" d="M712.3,16.2c-0.4,0.2-0.9,0.4-1.3,0.6c2.4,0,4.8,0,7.1,0.2c0.6,0,1.2,0,1.8,0c-0.3-0.3-0.7-0.6-1.1-0.8
	C716.6,16.2,714.5,16.2,712.3,16.2z"/>
<path class="st0" d="M-0.1,43L-0.1,43z"/>
<path class="st0" d="M22.8,23.2"/>
<path class="st0" d="M344.5,15.3L344.5,15.3z"/>
<path class="st0" d="M17.8,78.5L17.8,78.5L17.8,78.5z"/>
<path class="st0" d="M277,16L277,16z"/>
<path class="st0" d="M12.4,70.2L12.4,70.2z"/>
<path class="st0" d="M2.6,73.1L2.6,73.1L2.6,73.1z"/>
<path class="st0" d="M6.4,43.3L6.4,43.3L6.4,43.3z"/>
<path class="st0" d="M295.5,14.8h-0.4H295.5L295.5,14.8z"/>
<path class="st0" d="M505.4,15.9L505.4,15.9z"/>
<path class="st0" d="M543.3,14.9L543.3,14.9z"/>
<path class="st0" d="M634.3,14.1L634.3,14.1z"/>
<path class="st0" d="M639.6,14.7L639.6,14.7z"/>
<path class="st0" d="M130.3,49.3L130.3,49.3z"/>
<path class="st0" d="M713.9,15.6h3.8C716.4,15.3,715.1,15.3,713.9,15.6z"/>
<path class="st0" d="M39.1,26.1L39.1,26.1z"/>
<path class="st0" d="M705.4,15L705.4,15c-3.1,0-6.2,0.1-9.1-0.1h-1c-3.9,0-7.9,0.1-11.6-0.1c-8.9,0-18,0-26.5-0.3h-8.7
	c-1.8,0-4,0-5.3,0.1l0.3,0.1c20.8,0.6,42.6,0.7,64.2,0.9l-0.4-0.5L705.4,15z"/>
<path class="st0" d="M31.5,42.3L31.5,42.3z"/>
<path class="st0" d="M36.6,39.2L36.6,39.2z"/>
<path class="st0" d="M17.6,78.5L17.6,78.5z"/>
<path class="st0" d="M30.2,72.6L30.2,72.6z"/>
<path class="st0" d="M36.7,69.1L36.7,69.1z"/>
<path class="st0" d="M36.6,62.1c0.5,0,0.9,0,1.4-0.1h-0.4C37.2,62,36.9,62.1,36.6,62.1z"/>
<path class="st0" d="M36.8,62.3L36.8,62.3z"/>
<path class="st0" d="M27.4,77.2h1.8c-0.1,0-0.3,0-0.4,0C28.2,77.2,27.7,77.2,27.4,77.2z"/>
<path class="st0" d="M33.7,62.1L33.7,62.1L33.7,62.1z"/>
<path class="st0" d="M21.4,22.9h0.2H21.4L21.4,22.9z"/>
<path class="st0" d="M20.1,26.7h0.2H20H20.1z"/>
<path class="st0" d="M22.5,70.4h0.3h-0.5C22.4,70.4,22.4,70.4,22.5,70.4z"/>
<path class="st0" d="M26.5,73.5L26.5,73.5z"/>
<path class="st0" d="M34.3,44.3L34.3,44.3h-0.4l0,0H34.3z"/>
<path class="st0" d="M24,42.4L24,42.4z"/>
<path class="st0" d="M38,51.3L38,51.3L38,51.3L38,51.3z"/>
<path class="st0" d="M17.8,29.4"/>
<path class="st0" d="M936.7,19.8h0.9c-0.1-0.1-0.1-0.2-0.2-0.4h-0.1c-0.9,0-1.8,0-2.8,0c0,0.1-0.1,0.2-0.2,0.4
	C935.2,19.7,935.9,19.7,936.7,19.8z"/>
<path class="st0" d="M927.8,19.3h-2.2l-0.3,0.8c1.3,0,2.5,0,3.8,0.1C928.6,20.1,928.1,19.8,927.8,19.3z"/>
<path class="st0" d="M936,20.1L936,20.1c-0.5-0.1-1.4-0.1-1.7-0.2c-0.1,0.2-0.2,0.3-0.4,0.4h0.7L936,20.1z"/>
<path class="st0" d="M934.8,18.7l2.3,0.1c-0.4-0.7-1.2-0.9-1.9-0.5C935.1,18.4,934.9,18.5,934.8,18.7z"/>
<path class="st0" d="M955.1,21.8L955.1,21.8l-4.6-0.4c-0.3,0.2-0.6,0.3-0.8,0.5c-0.1-0.2-0.2-0.4-0.2-0.6l-0.9-0.1l0,0
	c-7.6-0.3-15.5-0.4-23.4-0.6c-0.1,0.3-0.2,0.6-0.3,0.9c-1.1,0-2.2-0.1-3.2-0.1h0.6c5.2,0.1,10.2,0.3,15.2,0.5
	c0.7-0.2,1.5-0.3,2.2-0.3l-0.3,0.4h0.5h4c0.6-0.3,1.3-0.4,2-0.2l0.9,0.2h10.8L955.1,21.8L955.1,21.8z"/>
<path class="st0" d="M939.1,19.6c-0.2,0.1-0.4,0.2-0.6,0.3c0.4,0,0.8,0,1.1-0.1C939.9,19.7,939.6,19.6,939.1,19.6z"/>
<path class="st0" d="M1110.6,26.3L1110.6,26.3L1110.6,26.3z"/>
<path class="st0" d="M992.2,23.6L992.2,23.6l0.1-0.2l0,0L992.2,23.6z"/>
<path class="st0" d="M776.4,20.4L776.4,20.4c0,0,0.1,0.1,0.2,0.1C776.5,20.5,776.5,20.4,776.4,20.4z"/>
<path class="st0" d="M919.2,21.6h-0.6c-0.2,0-0.4,0-0.6,0.1v-0.1c-0.4,0-0.9,0-1.3,0c-2.9-0.1-7.5-0.2-6.4-0.5
	c0.9-0.2,4.5,0.1,6.9,0.1h0.8c0-0.3,0-0.5,0-0.7h-1.5c-1.9,0-4.7-0.1-4.1-0.4c1.8-0.2,3.5-0.3,5.3-0.2h0.2c0-0.2,0-0.5,0.1-0.7
	c-0.7,0-1.3,0-2,0c-6.3,0.2-7.4-0.3-6.8-0.7c-2.6-0.3-6.3-0.3-9.8-0.4l0,0c-3.7,0.1-7.4,0.1-11.1-0.2c-3-0.1-5.6-0.2-8.4-0.4
	c-8.3,0.2-15.9-0.2-24-0.2c-0.4,0-1,0-1.2,0c-3.9-0.5-7.9-0.7-11.8-0.6l0.5,0.7c1,0,1.4,0.1,0.1,0.2l0.4,0.6c1.5,0,3.1,0,4.5,0
	c3.4-0.2,6.9,0,10.3,0.4c12.3,0.4,25.1,0.7,37.9,1c0.9,0,1.5,0.1,0.9,0.1c-1.6,0.1-3.3,0.1-4.9,0c-1.7,0-3.5,0-5-0.1l0,0
	c-1.8-0.1-3.8,0-5.5-0.1h-0.7h-7.5c-9.9,0-19.5-0.1-29.2-0.2l0.3,0.5l-0.8,0.4c2.1,0,4.2,0.1,6.2,0.2c3.9,0.1,8,0.2,12,0.3l0,0
	c3.2,0,6.2,0,8.9,0.2c5.9,0.1,12.3,0,17.8,0.3H889c6.3,0.2,13.9,0,19.2,0.5l2.3,0.2h1.8C915.5,22.1,918.4,22.1,919.2,21.6
	L919.2,21.6L919.2,21.6z"/>
<path class="st0" d="M774.5,21.4C774.5,21.4,774.6,21.4,774.5,21.4l-1.5-0.1C773.5,21.4,774,21.5,774.5,21.4z"/>
<path class="st0" d="M1382.6,27.5c1,0,1.9-0.1,2.8-0.2C1384.4,27.2,1383.5,27.3,1382.6,27.5z"/>
<path class="st0" d="M770.9,20.6h2l2.4,0.1c0.2-0.2,0.5-0.3,0.8-0.3c-1.8-0.1-4-0.2-6.1-0.2L770.9,20.6z"/>
<path class="st0" d="M777.8,21.4h0.4H777.8L777.8,21.4z"/>
<path class="st0" d="M858.6,18.7h0.2H858.6L858.6,18.7z"/>
<path class="st0" d="M827,16.8L827,16.8c-5.8-0.4-13.2-0.3-19.5-0.5h-0.9h0.1c-5.2,0-10.4,0-15.2-0.2l0,0c-2.6,0-5.2,0-7.6-0.1l0,0
	c-4.5,0.1-8.1-0.3-12.6-0.2c-0.9,0-1.7,0-2.6-0.2c-0.6-0.1-1.3-0.2-1.9-0.2v0.1c0,0-0.1,0-0.2-0.1c-1.4-0.1-2.8-0.1-4.3,0
	c-0.8,0.1-1.7,0.1-2.5,0.1l-0.2,0.1v-0.1c-0.6,0-1.2,0.1-1.9,0.1c0.2,0.2,0.3,0.5,0.4,0.8c0.2,0.1,0.3,0.2,0.5,0.3h0.9
	c8.7-0.3,17,0,25.5,0.1c14.1,0.2,28.1,0.4,42.1,0.7l0,0c3.4,0,6.9,0,10.2,0.1l0,0c1.3,0,2.6,0,3.7,0c0.3-0.2,0.6-0.4,0.9-0.6
	c-2.9,0-5.9,0-8.6,0C831.2,17,829.1,16.9,827,16.8z"/>
<path class="st0" d="M882.5,21.9L882.5,21.9z"/>
<path class="st0" d="M829.2,17.5h-0.5h-0.5l0,0c-4.3,0-8.7,0-12.8-0.1c-14.8,0-28.9-0.5-43.6-0.5c-4,0-8-0.1-11.9-0.1h-0.7
	c0.8,0.5,1.4,1.2,1.8,1.9c1.7,0,3.4,0,5.1,0c1.4-1.4,2-1.4,2.8,0c4.2,0,8.3,0,12.4,0.1c2,0.1,4.5,0,6.8,0.1c1.4,0,4,0,4,0.1
	c0.9,0.5,5.8,0.5,9.6,0.7c3-0.3,6.1-0.3,9.2,0.1c6.5,0.3,13.6,0.1,20.4,0.3c2.9,0,5.7,0.1,8.5,0.2c-0.1-0.3-0.2-0.6-0.2-0.9
	c-4.4-0.1-8.9-0.1-13.2-0.2c-6.9-0.2-14.3-0.1-20.9-0.4l0,0c-5.3-0.2-11.4-0.1-16.4-0.4l0,0c-3,0.1-5.9,0-8.9-0.2H780
	c-2.1,0-4.5,0-6.4-0.1l-1.3-0.1l0,0c-2.8-0.1-3.5-0.3,0.3-0.3c8-0.1,15.8,0.1,23.7,0.2c2.7,0,5.3,0.1,8,0.1c4.5,0.1,9.8,0,11.4,0.6
	c0.1,0,1.5,0,2.3,0c1.4-0.2,2.9-0.3,4.4-0.2c2.8,0.2,5.6,0.2,8.4-0.1c3.1-0.3,6.2-0.3,9.3-0.2c0.1-0.1,0.3-0.3,0.4-0.4
	c-1.7,0-3.4,0-4.8-0.1C833.5,17.5,831.2,17.6,829.2,17.5z"/>
<path class="st0" d="M1907,64.3L1907,64.3L1907,64.3z"/>
<path class="st0" d="M1871.2,62L1871.2,62z"/>
<path class="st0" d="M1896.7,61.9c-1.3-1.5-3.7-2.5-6.2-3.5h-2.5l0,0c-3.7,0.1-7.4,0.1-11.1-0.2c-3-0.1-5.6-0.2-8.4-0.4
	c-8.3,0.2-15.9-0.2-24-0.2c-0.4,0-1,0-1.2,0c-3-0.6-8-0.6-13.1-0.6c3.3,0.3,6.6,0.8,9.9,1.4c2.4-0.1,4.8,0.1,7.2,0.5
	c12.3,0.4,25.1,0.7,37.9,1c0.9,0,1.6,0.1,0.8,0.2c-1.6,0.1-3.3,0.1-4.9,0c-1.7,0-3.5,0-5-0.1l0,0c-1.7-0.1-3.8,0-5.4-0.1h-0.7h-7.5
	c-5.5,0-11,0-16.4-0.1c1.5,0.4,2.9,0.8,4.3,1.2h0.8l0,0c3.2,0,6.2,0,8.9,0.2c5.9,0.1,12.3,0,17.8,0.3h-0.1
	C1884,61.6,1891.4,61.4,1896.7,61.9z"/>
<path class="st0" d="M1847.3,58.8h0.2H1847.3L1847.3,58.8z"/>
<path class="st0" d="M1905.4,62.1l-4.5-0.5l0.6,0.5C1902.9,62.1,1904.3,62.1,1905.4,62.1z"/>
<path class="st0" d="M1907.9,61.7L1907.9,61.7c-0.8,0-1.7,0-2.5,0c-1.4,0-3.1-0.1-4.5-0.2h-0.1c1.6,0,3.2,0.2,4.8,0.5
	c0.8,0,1.6-0.1,2.4-0.4L1907.9,61.7L1907.9,61.7z"/>
<path class="st0" d="M136.7,38.2L136.7,38.2z"/>
<path class="st0" d="M1457.4,38.9L1457.4,38.9L1457.4,38.9L1457.4,38.9z"/>
<path class="st0" d="M1871.4,66.4L1871.4,66.4h-0.2C1871.3,66.4,1871.3,66.4,1871.4,66.4z"/>
<path class="st0" d="M1749.9,60.2c0.8,0.5,1.6,0.9,2.3,1.3c1.1,0,2.3,0,3.4,0c0.8,0,1.5,0,2.2,0c0.3-0.1,0.6-0.2,0.8-0.3
	c-1.8-0.1-3-0.2-2.2-0.4c1.1-0.2,2.2-0.3,3.3-0.2c0.2-0.1,0.4-0.2,0.5-0.4c-3,0-6.3,0-9.2-0.1L1749.9,60.2z"/>
<path class="st0" d="M1671.8,60.2L1671.8,60.2L1671.8,60.2z"/>
<path class="st0" d="M1407.1,27.7c-2.3,0.8-4.7,1.1-7.1,0.7c0,0.5-0.2,1-0.5,1.5h6.4l5.1-0.1l0,0
	C1412.2,27.2,1408.6,27.2,1407.1,27.7z"/>
<path class="st0" d="M1794.1,58.8c-2.8-0.1-5.8-0.1-8.8-0.1c-1.6,0-3.1,0.1-4.7,0.1h4.6c1.2,0,2.8,0.1,3.8,0.1c0.5,0,1,0,1.4,0.1
	c0.1,0,0,0,0,0c-0.4,0.1-0.9,0.2-1.3,0.1c-1.3,0-2.9,0-4.1-0.1h-4.1c1.1,0.5,5.8,0.5,9.5,0.7c3-0.3,6.1-0.3,9.1,0.1
	c1.4,0,2.8,0.1,4.3,0.1c0.8-0.3,1.6-0.6,2.5-0.9C1802.1,59.1,1797.9,59,1794.1,58.8L1794.1,58.8z"/>
<path class="st0" d="M1792.1,57.3c0.3,0.1,0.5,0.4,0.6,0.7h0.4c4.6,0.1,9.8,0,11.4,0.6c0.1,0,1.5,0,2.3,0c0.3,0,0.8-0.1,1.2-0.1
	c1.4-0.4,2.9-0.7,4.4-1c-2.8,0-5.6,0-8.3-0.1C1800.1,57.4,1796.1,57.4,1792.1,57.3z"/>
<path class="st0" d="M1866.3,63.6h0.4H1866.3L1866.3,63.6z"/>
<path class="st0" d="M1815.7,56.8c-5.8-0.4-13.2-0.3-19.5-0.5c-0.3,0-0.6,0-0.9,0h0.1c-2.9,0-5.8,0-8.7-0.1c0.2,0.4,0.6,0.6,1.1,0.6
	l26.1,0.4c1-0.2,2.1-0.3,3.1-0.4C1816.6,56.9,1816.2,56.9,1815.7,56.8L1815.7,56.8z"/>
<path class="st0" d="M231.7,15.5L231.7,15.5z"/>
<path class="st0" d="M161.4,22.4c0.4,0,0.9,0,1.2-0.1c-0.3,0-0.6-0.1-1-0.1C161.6,22.3,161.5,22.4,161.4,22.4z"/>
<path class="st0" d="M162.6,20c0.1,0,0.2-0.1,0.2-0.1c-0.2,0-0.5,0-0.7,0.1H162.6z"/>
<path class="st0" d="M163.3,22.6L163.3,22.6z"/>
<path class="st0" d="M158.3,19.8L158.3,19.8z"/>
<path class="st0" d="M145.2,43.8L145.2,43.8l0.4-0.1L145.2,43.8L145.2,43.8z"/>
<path class="st0" d="M253.3,15.8L253.3,15.8z"/>
<path class="st0" d="M252.1,15.4L252.1,15.4z"/>
<path class="st0" d="M230.5,19h-0.3H230.5L230.5,19z"/>
<path class="st0" d="M193.8,19.2L193.8,19.2z"/>
<path class="st0" d="M140.5,33.3L140.5,33.3z"/>
<path class="st0" d="M143,29.9h0.2H143L143,29.9z"/>
<path class="st0" d="M761.3,20.1c0.1,0.4,0.1,0.8,0,1.2l3.1-1.3c-0.7,0-1.4,0-2.1,0L761.3,20.1z"/>
<path class="st0" d="M144.3,31.7L144.3,31.7z"/>
<path class="st0" d="M143.7,27.5h-0.1h0.8H143.7z"/>
<path class="st0" d="M144.2,45.1h0.2H144.2L144.2,45.1z"/>
<path class="st0" d="M144.4,29.4L144.4,29.4z"/>
<path class="st0" d="M158.1,68h0.1H158.1z"/>
<path class="st0" d="M711.2,21.1c0.4,0,0.9,0,1.3-0.1c0.2,0,0.4,0,0.6,0.1l2.8,0.1h1.4c2.1,0,4.2,0,6.3,0c0.1-0.3,0.3-0.5,0.6-0.7
	c-9.9-0.1-19.9-0.2-29.9-0.3C699.9,20.5,705.5,20.8,711.2,21.1z"/>
<path class="st0" d="M682.4,20.1h-4.8C679.2,20.1,680.8,20.1,682.4,20.1z"/>
<path class="st0" d="M546,18.1L546,18.1c0-0.1-0.1-0.2-0.1-0.3C546,17.9,546,18,546,18.1z"/>
<path class="st0" d="M519.7,18.5L519.7,18.5z"/>
<path class="st0" d="M727.7,20.6h-0.9l0.6,0.7h2.8c-0.6-0.2-1.2-0.3-2-0.6C728.1,20.7,727.9,20.6,727.7,20.6z"/>
<path class="st0" d="M750.5,18.7c-0.3-0.2-0.5-0.3-0.8-0.5c-0.8,0.1-1.6,0-2.3-0.3c1.3-0.4,2.5-1.2,3.1-2.4h-4
	c-0.3,0.7-0.6,1.3-1,1.9c0.8-0.1,1.6,0,2.3,0.2c-0.7,0.1-1.5,0.2-2.2,0.1h-0.3c-0.7,0.7-1.7,0.3-4.1-0.8c0.9-0.7,2-1.2,3.2-1.4H742
	c-1.5,0-3,0-4.5-0.1c-0.1,1.1-0.2,2.1-0.5,3.2c2.8,0,5.6,0.1,8.3,0.1C747.1,18.6,748.8,18.7,750.5,18.7z"/>
<path class="st0" d="M751.5,19.3h-2.3c-4.2,0-8.3-0.1-12.5-0.1c-0.1,0.4-0.3,0.8-0.5,1.2h0.3c2.9-0.7,6-0.5,8.8,0.7
	c0.4,0.1,0.8,0.3,1.1,0.5h8.2C754.1,20.4,752.8,19.9,751.5,19.3z"/>
<path class="st0" d="M450.9,18.7L450.9,18.7z"/>
<path class="st0" d="M741.6,21.5L741.6,21.5L741.6,21.5L741.6,21.5z"/>
<path class="st0" d="M731.9,15.6c0.1,0.2,0.1,0.4,0.2,0.6c0.2,0,0.5,0,0.7-0.1c0.3-0.3,0.6-0.6,1-0.9h-1.9
	C731.9,15.4,731.9,15.5,731.9,15.6z"/>
<path class="st0" d="M434.6,19.5L434.6,19.5c1.6,0.1,3.1,0.2,4.9,0.3c0.2-0.1,0.4-0.3,0.6-0.4C438.3,19.3,436.4,19.3,434.6,19.5z"/>
<path class="st0" d="M468.6,17.8L468.6,17.8L468.6,17.8h0.2H468.6z"/>
<path class="st0" d="M447.1,19.9h4.6l11.5-0.5c-5.6,0-11.2-0.1-16.8-0.1C446.6,19.5,446.9,19.7,447.1,19.9z"/>
<path class="st0" d="M477.5,18.7h0.4l0,0H477.5z"/>
<path class="st0" d="M468.6,17.8"/>
<path class="st0" d="M503.6,18.1c0.1,0,0.2,0,0.3,0h0.2H503.6C503.3,18.1,503.5,18.2,503.6,18.1z"/>
<path class="st0" d="M1921.1,61.8l-7.5-0.2c-1.2-0.2-3.1-0.2-4.9-0.2c-1.4,0-3.1-0.1-4.6-0.2l0.2-0.2c0.3-0.1,0.5-0.3,0.7-0.4
	c0.8,0,1.9,0.1,2.8,0.1l13.1,0.3v-0.6c-3.9-0.1-8-0.1-11.9-0.2c-1.1,0-2.3,0-3.3,0c0.2-0.2,0.4-0.4,0.6-0.6h1.1
	c3.8-0.1,7.1-0.1,10.5-0.1c0.4,0.1,0.8,0.2,1.2,0.2c0.6,0,1.2,0,1.9,0v-1.2c-0.7,0-1.3,0-1.8,0c-0.3,0-0.6,0-0.9,0.1
	c-3.9-0.1-7.9-0.3-11.9-0.4c-1.4-2-9-2.9-12.5-0.5c-5.1-0.2-10.4-0.3-15.7-0.4l0,0c-10.9-0.5-22.8-0.5-34.2-0.8l0,0
	c-1.5-0.1-3-0.2-4.6-0.2c-15.5-0.2-31.1-0.5-46.7-0.7c-0.7-0.3-2-0.8-1.6-1.8c5.4,0.1,10.6,0,15.5-1.6c-1.5-0.2-2.9-0.5-3-1.6
	c4.6-0.1,10.4,0,14-2.1c-8-0.9-16.7-0.7-24-3.1c0.8-0.1,1.5-0.2,2.3-0.2c1.8-0.1,3.6-0.4,5.3-0.9c0.2-0.1,0.4-0.1,0.3-0.3
	s0-0.3-0.5-0.4c-0.6-0.2-1.3-0.1-1.9,0.1c-1.2,0.3-2.5,0.5-3.8,0.6s-2.5,0.2-3.8,0.5c-4.7-0.2-14.2,1.8-18.3,0.5
	c-0.3,0.1-0.6,0.2-0.9,0.4c-1.4-0.1-2.9-0.2-4.2-0.2c-3,0-6.2,0.1-9.4,0.2c1-0.5,1.8-1.3,2.4-2.3l0,0l6.4-3c1.2-0.2,2-1.3,1.9-2.5
	l0,0c3.5-5.4,3.3-5.6-3-5.8c-6.7-0.2-13.3,1.4-20,0.2h-19.6c0-0.4,0-0.8,0-1.2l16.3-2.1c-1-1.2-1.7-1.7-2.5-1.7
	c-13.4,0.5-26.8,0.1-40.2,0.5c-19.7,0.5-39.4,0.1-59.1,0.1c-2.2,0-4.6-0.5-7.9,1.1c16.8,1,32.5-0.9,47.9,2.2c0.5,0,1-0.2,1.5-0.5
	c3.2-1.8,6.2-2.7,8.9,0.6c2.9-1.7,6.4-2.4,9.8-2c0.5,0.1,1.2-0.1,1.6,0.2c4.1,2.4,9.2,2.5,13.4,0.4c2-0.9,6.6-0.9,5,3.6l0,0
	l-6.5,0.1c-35.3,0-70.5,0-105.8,0c-2.1,0-4.4-0.3-6.1,1.3l0,0h-3.2l0,0c-0.9-0.4-1.8-1.2-2.8-1.2c-10.2-0.1-20.5-0.1-30.7,0
	c-0.9,0-1.8,0.8-2.8,1.2l0,0l-9.8,0.1l0,0h-21.4h-18.7h-32.3h-34.7l2.8-1c1.2-0.2,1.4-0.8,1.5-1.5l0,0c2.8-3.2,2.6-3.3-2.4-3.4
	c-5.2-0.1-10.4,0.8-15.7,0.1h-15.3c0-0.2,0-0.5,0-0.7l12.8-1.2c-0.5-0.6-1.2-0.9-1.9-1c-10.5,0.3-21,0.1-31.4,0.3
	c-13.1,0.2-26.2,0.1-39.4,0.1c0-0.2,0-0.4,0-0.6L1374,24c-1-1.2-1.7-1.7-2.5-1.6c-13.4,0.5-26.8,0.1-40.2,0.5
	c-19.7,0.5-39.4,0.1-59.1,0.2c-2.2,0-4.6-0.5-7.9,1.1c16.8,1,32.5-0.9,47.9,2.2c0.5,0,1-0.2,1.5-0.5c3.2-1.8,6.2-2.7,8.9,0.6
	c2.9-1.7,6.4-2.4,9.8-2c0.5,0.1,1.2-0.1,1.6,0.2c4.1,2.4,9.2,2.5,13.4,0.4c1.6-0.7,5-0.8,5.3,1.7h-1.8c-1.7,0-3.6-0.3-6.2,0.6
	c2.7,0.1,5.3,0.2,8,0.2c0,0.4-0.1,0.7-0.2,1.1l0,0l-6.5,0.1c-35.2,0-70.5,0-105.8,0c-2.2,0-4.4-0.4-6.1,1.3l0,0h-3.2l0,0
	c-0.9-0.4-1.8-1.2-2.7-1.2c-10.2-0.1-20.5-0.1-30.7,0c-0.9,0-1.8,0.8-2.8,1.2l0,0l-8.8,0.1c1.4-0.4,2.9-0.8,4.3-1.2l-0.2,0.2
	c1.4,0.5,3.1,1.2,4,0.4c0.6-0.6,0.4-1.1-0.2-1.5c1.6-0.4,3.2-0.7,4.8-1h-6.7c-0.1-1,0.5-2.4-2.6-1.5c0.6,0.8,1.4,1.3,2.4,1.5
	c-11.4,0-22.7,0.1-34-0.6h-8.2c-1.1-1.4-2.2-1.4-3.3,0l0,0c-1.9,0.1-3.3-0.8-4.9-1.4c-1.7-3.3-1.9-3.3-4.9,0l-3.3,1.3
	c0.5-4.2-3.4-5.6-6.8-6.6c-2.9-0.9-3.4,2-5.3,3c1.8,1.8,4.4,1.9,5.5,3.6l0,0h-8.2c-0.4-0.2-0.7-0.4-1.1-0.5c-3.9-1.6-8.3-1.4-12,0.5
	l0,0c-14,0.3-28-0.6-42-1.3c-6-0.3-12.1,0.4-18-0.3c-10.9-1.5-22-2.3-33-2.3l-14-0.6c-5.9-0.5-13.3-0.7-20-1l0,0h-0.5l-0.4-0.1v0.1
	c-7.5-0.4-15.2-0.8-23-1.2c0-0.2-0.1-0.4-0.1-0.6c-0.2,0.2-0.4,0.4-0.7,0.6l-6.7-0.3c0.4-0.1,0.8-0.4,1.2-0.7c0.6-0.7,2-1.2,0.6-2
	c-0.9-0.5-1.9-0.2-2.5,0.6c-0.8,0.8-1.5,1.4-2.8,0.3c-2.2-0.2-4.3-0.9-6.7,0c-2.6,1-3.3-0.3-3.6-1.7c-0.6,0.4-1.6,0.6-1.9,1
	c-0.4,0.5-0.7,1.1-0.8,1.8l-1.7-0.2c0.1-0.2,0.1-0.3,0.2-0.5c-4.5-1.1-6.9-1.1-7.8,0.2l-6.4-0.2l0,0c-8-0.4-16.7-0.6-25.3-0.8l0,0
	c-10.9-0.4-22.8-0.5-34.2-0.8l0,0c-1.5-0.1-3-0.1-4.6-0.2l-4.2-0.1c1-0.5,1.9-1.4,2.4-2.4c-3.7-1.5-3.3,0.6-3.3,2.4
	c-19-0.3-38.1-0.6-57.2-0.8l0,0c-6-0.2-12.2-0.3-18.5-0.3c0.3-0.4,0.6-0.7,0.6-0.7c0.5-1.2,0.3-1.4-0.4-0.9c-0.5,0.4-1,0.9-1.5,1.4
	l0.3,0.2l-5.7-0.1c1.7-1.3,2.4-2.7,1.7-4.8c-0.6,1.4-3.4,2.1-2.7,4.8h-1.2h-0.9c-1-1.8-2-3.6-4-4.6c0.3-0.2,0.6-0.6,0.9-0.9
	c0.8-1.2,2.6-2,0.8-3.4c-1.4-1.1-2.4,0-3.2,1c-1,1.3-2,2.4-3.6,0.6c-2.9-0.4-5.5-1.6-8.6,0c-3.3,1.7-4.2-0.5-4.5-2.8
	c-0.8,0.6-2,1-2.4,1.8c-1.2,2.2-2.1,5,1,6.1c2.2,0.8,6.5,2.6,7.1-2.4c0.1-1.2,2.4-2.1,3.1,0.3c0.2,0.9,0.7,2.4,1.2,1.9
	c1.5-1.6,3.8-1.1,5.8-1.2c0.3,1.4,0.2,2.8-0.2,4.1c-1.4,0-2.7-0.1-4-0.1V15h-0.7c-2.4,0-4.9,0-7.4,0c-0.4,0-0.9,0-1.3,0
	c-0.9-0.7-2.1-0.7-3.1-0.1h-2.4c-0.3-1.7-1.2-3.1-2.6-4.1c-0.1,0-0.1,0-0.2-0.1l0.7-2.3c-4.1-1.3-6.8-1.8-8.4-1.1
	c-1.1-0.4-2.3-0.7-3.5-0.8c-1.5,2.1,0,2.8,1.5,3.6c-0.2,1-0.2,2-0.2,3c-2.6-0.2-5.4-0.6-8.5,1.1h-0.3c3.9-4.8,3.8-4.9-1.8-7.8
	c-1.8,1.2,4,5-2.2,4.9c-1.1,0-0.9,1.4-0.1,2.2c0.2,0.2,0.4,0.5,0.6,0.7h-2.5h-2.4l0,0c-2.4-0.1-5.1-0.1-7.8-0.1h-4.8l0,0
	c-2.4-0.1-5-0.2-7.7-0.1l0,0c-1.3,0.2-2.7,0.2-4,0.2c-9.3,0-18.7,0.1-27.7-0.2l0,0c-1.3-0.1-2.6-0.2-3.9-0.1c-3.4,0-6.5,0-9.6,0.1
	c-0.6,0-1.1,0-1.5,0.1c-1.8,0.1-3.6,0.1-5.4,0.2l0,0c-5.3-0.3-11.1-0.5-17.5-0.5l0,0c-11.2-0.3-22.8-0.2-34.2-0.3
	c-1.4,0-3.4-0.1-3.3,0.1c1.1,0.2,2.2,0.3,3.3,0.2l1.2,0.2c-11.8,0.1-23.6,0.2-35.4,0.1c-1.3-0.1-3.1-0.2-5-0.2
	c-15.2-0.1-30.3-0.3-45.6-0.3c-0.8,0-1.5-0.1-2.2-0.1c-5.1,0-10.3,0.1-15.4,0.1l-1.5-2.1c-1.1,0.5-2,1.3-2.8,2.2
	c-6.2,0-12.4,0.1-18.6,0.1c-6,0-12,0.1-18.1,0.2c-1.3,0-2.8,0-2.6,0.2c1,0.1,2,0.2,3,0.1c4.4,0,8.8,0.1,13.1,0.1
	c6.6,0,13.1,0.3,19.8,0h3.1c0,0.2,0,0.4,0.1,0.6c-7.3,0.1-13.7,0.3-15.7,0.5l15.9-0.1c0.1,0.1,0.1,0.2,0.2,0.4
	c0,0.1,0.1,0.1,0.1,0.1c-6.4,0-12.8,0-19.1,0.1c-3,0-6.8,0.1-6.5,0.4s4.5,0.3,7.2,0.3c10.7-0.2,21.4,0,32.1-0.1c0.9,0,1.8,0.1,2.6,0
	c6.4,0.1,12.9,0,19.3,0.1c0.8,0.1,1.6,0,2.4-0.2c-0.8-0.1-1.6-0.2-2.4-0.1l0,0c0.6-0.2,2.8-0.4-1.4-0.5h-30.9c0.4-0.2,0.7-0.3,1-0.5
	c6.6,0,13.1-0.1,19.9-0.2c-3.5-0.2-11.4-0.2-19.3-0.2l-0.2-0.4c1.3,0,2.7,0.1,4.2,0.1c8.4,0.2,17,0.1,25.4,0.1c4.7,0,8.6,0,10.4,0.5
	c2.2,0.3,4.5,0.4,6.7,0.4c4.3,0,8.7,0,13,0c5.8,0,9-0.2,9.3-0.7l0,0c11.4,0,22.9-0.1,34.2,0.2c-3.1,0.2-6.6,0.1-9.8,0.2
	c-1.2,0-2.6,0.1-2.4,0.2c0.8,0.1,1.6,0.2,2.4,0.1c5.7,0.2,11.4,0.1,17.1-0.4c1.5,0.6,5.3,0.7,11.1,0.6c6.1-0.1,12.8-0.2,17.8,0.4
	c3.4,0.4,8.5,0.1,12.9,0.1c3.8-0.1,5.1-0.2,4.5-0.6c-0.3-0.2,2.4-0.1,4-0.1c11.6-0.1,23,0.2,34.6,0.1c1.7,0.1,3.4,0.2,5.1,0.2
	c10.7,0.1,21.3,0.2,32,0.2l0.5,0.6c-2.9,0-5.9,0-8.7,0c-9.5-0.3-19.1-0.7-29.6-0.3c-1.4,0-4.2-0.2-4.1,0.1c0.1,0.3,2.2,0.3,4.9,0.3
	l21.4,0.1c2.8,0.2,6,0.1,9,0.1l0,0c2.4,0.1,5,0.1,7.5,0.1l0.4,0.6c0.3-0.2,0.6-0.4,0.9-0.5c3.1,0,6.2,0,9.2,0.1h0.8
	c0.4,0.4,0.9,0.9,1.2,1.4c-2.1-0.4-4.2-0.4-6.2-0.1h-13.5c-2-0.1-4.4-0.1-6.6-0.1c-1.6-0.1-3.2-0.1-4.8,0.1
	c-0.5,0.1,0.9,0.1,1.9,0.1c3.8,0.2,7.8,0.1,11.7,0.1h2.5c3.4,0.1,5.8,0.5,10.3,0.2h5.1c0.4,0.4,0.9,0.7,1.4,0.9
	c-18-0.4-36.3-0.6-54.7-0.8c-15.1-1.8-30.1-2.6-45.3-0.7l-0.1,0.2h-0.1l0.2-0.2c-1.7-1.6-4-1.2-6.1-1.2c-6.8-0.1-13.5-0.1-20.3-0.2
	h-3.3l-47.8,0.3l0,0c-2.1-0.2-4.2-0.2-6.3,0h-0.7c-13.7-0.3-26.7,0.4-40.3,0.3c-0.7,0-1.5,0.1-2.3,0.2h-4.8
	c-13.1-0.6-27-0.8-40.7-0.3c-7.2,0.2-14.2,0.3-21.5,0.3c-6.3,0-12.6-0.1-18.9-0.1l-1.3-0.1c-2-0.2-4-0.3-6.1-0.2c-3.5,0-7,0-10.5,0
	c-0.7-0.2-1.3-0.2-2,0c-5.7,0-11.3,0-17,0l-0.1-0.1c-0.3,0-0.6,0-0.8,0.1c-4.2,0-8.5,0-12.7,0c-4.8-0.1-9.6-0.1-14.4-0.1
	c-0.5-0.6-1.2-0.9-2-1c-7.1,0.5-14.5-0.5-21.4,1.1c-13.5,0.1-27,0.1-40.6,0.2c-2.1,0-5.7,0.2-6.3-0.2l0,0c2.6-0.1,5.2-0.1,7.7-0.2
	c3.1-0.1,4.8-0.3,2.3-0.6l0,0l-2.7-0.2c-0.8-0.2-0.4-0.2,1.6-0.2c3.6-0.1,7.7,0,11-0.2l0,0c6.6-0.2,13.8-0.1,20.4-0.3l0,0
	c8.1,0,16.2-0.2,24.5,0c5.1,0.1,10.3,0.1,15.3,0c1.4,0.1,2.8,0.3,4.2,0.5c5,1.7,7.1,1.6,8.2-0.9h0.8c8.4,0.4,16.5,0.1,24.7,0
	c1.8,0,3.4,0,3.5-0.3l0,0c4.7-0.4,12.1-0.1,17.4-0.6c-1.3-0.1-2-0.1-2.8-0.1c-7.4-0.1-15-0.2-22.6-0.3c0.6-0.2,1.4-1.3,1-1.9
	c-2-2.9-2.8-6.8-7.9-7.2c0.3,3.2,1.6,6.7-3.3,8.4c3.1,1.5,6.6-2.2,9.7,0.6c0,0,0.1,0,0.1,0.1l-8.3-0.2c-3.6,0-7.9-0.1-12,0
	c0.3-1.1,0.4-2.3,0.5-3.4c-2.1-1.4-3.4-0.2-4.7,1.1c-0.2,0-0.5,0.1-0.7,0.1c0-0.2-0.1-0.4-0.1-0.6c0.2-2-1-3.5-2.6-4.8
	c-1.6-0.6-3.7,0.2-4.9-1.4c-1.7-1.8-4.1-2.8-6.6-2.8c-2.8,4,4.9,3,3.9,6.5c-3.5,0.4-7.2-1.3-11.7,1.4c4.2-5.1,4.2-5.1-1.5-8.1
	c-1.8,1.2,4,5-2.2,4.9c-1.1,0-0.9,1.4-0.1,2.2c1.1,1.3,2.1,2.6,3.4,4.2c4.6-3.3,8.8-3.5,12.3,1.1c0,0,0,0,0.1,0.1
	c-9.4,0.1-18.9,0.1-28,0.4c-1.1,0-2.7,0-3.6,0c-4.3-0.2-8.9-0.2-13.5-0.1l-14.3,0.2c-12.6,0.1-25.5,0.1-37.9,0.4
	c-9.7-0.1-19.2,0.1-28.7,0.2c-21.8,0.3-43.2,0.7-64.7,1.2c-2.1,0-4.3,0-6.2,0c-30.8,0.9-61.7,1.7-91.2,2.9
	c-13.4,0.5-27.2,1-39.5,1.8l0,0c-11,0.3-20.9,0.8-30,1.5V155h1923L1921.1,61.8z M508.3,15.9L508.3,15.9z M546.2,14.9L546.2,14.9z
	 M637.2,14.1L637.2,14.1z M642.5,14.7L642.5,14.7z M646.5,14.7l-0.3-0.1c1.3-0.2,3.5-0.1,5.3-0.1h8.7c8.5,0.3,17.5,0.3,26.5,0.3
	c3.7,0.2,7.7,0.1,11.6,0.1h1c2.9,0.2,6,0.1,9.1,0.1h1.9l0.4,0.5C689.1,15.4,667.3,15.3,646.5,14.7L646.5,14.7z M720.6,15.7h-3.8
	C718,15.3,719.3,15.3,720.6,15.7L720.6,15.7z M721,17c-2.2-0.1-4.6-0.2-7.1-0.2c0.4-0.2,0.8-0.4,1.3-0.6c2.2,0,4.3,0,6.5,0
	c0.4,0.2,0.8,0.5,1.1,0.8C722.2,17,721.6,17,721,17L721,17z M347.3,15.2L347.3,15.2z M298.4,14.8L298.4,14.8H298H298.4z M279.9,16
	L279.9,16z M25.7,23.2L25.7,23.2z M2.8,43L2.8,43z M5.5,73L5.5,73z M15.3,70.1L15.3,70.1z M23,26.7h-0.1h0.3H23z M24.3,22.9
	L24.3,22.9h0.1H24.3z M25.4,70.4c-0.1,0-0.1,0-0.2,0h0.5H25.4z M27,42.4L27,42.4z M41,51.2L41,51.2L41,51.2L41,51.2z M36.8,44.2h0.4
	l0,0H36.8C36.7,44.3,36.7,44.3,36.8,44.2L36.8,44.2z M29.4,73.5L29.4,73.5z M30.3,77.2c0.4,0,0.9,0,1.4,0c0.1,0,0.3,0,0.4,0H30.3z
	 M33.1,72.6L33.1,72.6z M34.4,42.3L34.4,42.3z M36.6,62.1L36.6,62.1L36.6,62.1z M39.5,39.2L39.5,39.2z M39.5,62.2c0.3,0,0.6,0,1-0.1
	h0.4C40.4,62.1,40,62.1,39.5,62.2L39.5,62.2z M42,26.2L42,26.2z M43,54.2L43,54.2h-0.3c0.2,0,0.5,0,0.7,0.1L43,54.2z M52.2,64.2
	L52.2,64.2L52.2,64.2L52.2,64.2z M53.2,43.2L53.2,43.2L53.2,43.2z M56.2,24.9L56.2,24.9z M56.3,52.4L56.3,52.4h0.3H56.3z M62.2,75.2
	L62.2,75.2h0.2H62.2z M65.2,45.1h0.6H65.2z M68.8,42.5L68.8,42.5z M68.5,77.8L68.5,77.8L68.5,77.8z M69.7,78.1L69.7,78.1z
	 M72.6,41.7L72.6,41.7z M73.8,42.6L73.8,42.6z M79.9,38.9L79.9,38.9h0.3H79.9z M81.2,61.8L81.2,61.8z M85.2,38.5L85.2,38.5z
	 M86,39.6h-0.2h0.7H86z M86.5,32.6L86.5,32.6z M92.5,29.9L92.5,29.9z M95.2,45.5h0.2l0,0H95.2z M96.6,51.3L96.6,51.3z M97.5,48.9
	h-0.2h0.6H97.5z M100.4,53.1L100.4,53.1z M101.7,61.5L101.7,61.5z M101.7,32.4L101.7,32.4z M105,53h-0.8h1.7H105z M106.7,28.2
	L106.7,28.2L106.7,28.2L106.7,28.2z M109.3,20.4c-0.2,0-0.4,0-0.6,0.1c0,0,0,0,0-0.1H109.3z M110.5,32.2L110.5,32.2z M111.8,31.9
	L111.8,31.9z M112.9,20.9L112.9,20.9z M121.4,38.2L121.4,38.2z M123.2,34L123.2,34z M125.7,29.4L125.7,29.4z M128.4,38l0.7-0.1h0.5
	C129.2,38,128.8,38,128.4,38L128.4,38z M133.2,49.3L133.2,49.3L133.2,49.3z M139.6,38.2L139.6,38.2z M143.4,33.3L143.4,33.3z
	 M145.9,29.9L145.9,29.9h0.2H145.9z M146.6,27.5h0.7h-0.8H146.6z M147.3,29.5L147.3,29.5z M147.1,45.1h0.1h0.1H147.1z M147.2,31.8
	L147.2,31.8z M148.6,43.8l-0.5,0.1h0.1L148.6,43.8z M161.1,68H161H161.1z M164.3,22.4c0.1,0,0.2-0.1,0.3-0.1c0.3,0,0.7,0,1,0.1
	C165.2,22.4,164.8,22.4,164.3,22.4L164.3,22.4z M165.5,20H165c0.2-0.1,0.5-0.1,0.7-0.1C165.7,19.9,165.6,20,165.5,20z M166.2,22.6
	L166.2,22.6z M196.7,19.2L196.7,19.2z M233,19.1h0.3l0,0H233z M234.6,15.5L234.6,15.5z M255,15.4L255,15.4z M256.2,15.9L256.2,15.9z
	 M453.8,18.7L453.8,18.7z M442.4,19.8c-1.8-0.1-3.4-0.2-4.9-0.3l0,0c1.8-0.2,3.7-0.2,5.5-0.1C442.8,19.5,442.6,19.7,442.4,19.8
	L442.4,19.8z M454.6,20H450c-0.3-0.2-0.5-0.4-0.8-0.5c5.6,0,11.2,0,16.8,0.1L454.6,20z M471.6,17.8L471.6,17.8h0.2H471.6z
	 M480.4,18.7h0.4l0,0H480.4z M506.9,18.1c-0.1,0-0.2,0-0.3,0c-0.1,0.1-0.3,0,0.1-0.1h0.4L506.9,18.1z M522.7,18.5L522.7,18.5z
	 M548.9,18.1c0-0.1,0-0.2,0-0.3C548.9,17.9,548.9,18,548.9,18.1L548.9,18.1z M680.5,20.1h4.8C683.7,20.1,682.1,20.1,680.5,20.1
	L680.5,20.1z M726.5,21.3c-2.1,0-4.2,0-6.3,0h-1.4l-2.8-0.1c-0.2-0.1-0.4-0.1-0.6-0.1c-0.4,0-0.8,0-1.3,0.1
	c-5.6-0.2-11.3-0.5-16.9-0.8c10,0.1,19.9,0.2,29.9,0.3C726.8,20.8,726.6,21,726.5,21.3L726.5,21.3z M730.4,21.3l-0.6-0.7h0.9
	c0.2,0,0.4,0.1,0.7,0.1c0.7,0.2,1.3,0.4,2,0.6H730.4z M735.7,16.2c-0.2,0-0.5,0.1-0.7,0.1c0-0.2-0.1-0.4-0.2-0.6c0-0.1,0-0.2,0-0.4
	h1.9C736.3,15.5,736,15.8,735.7,16.2L735.7,16.2z M740.4,15.3c1.5,0,3,0.1,4.5,0.1h2.2c-1.2,0.2-2.2,0.7-3.2,1.4
	c2.5,1.1,3.4,1.5,4.1,0.8h0.3c0.8,0,1.5,0,2.2-0.1c-0.8-0.2-1.5-0.2-2.3-0.2c0.4-0.6,0.7-1.2,1-1.9h4c-0.7,1.2-1.8,2.1-3.1,2.4
	c0.7,0.3,1.6,0.4,2.3,0.3c0.2,0.2,0.5,0.3,0.8,0.5c-1.7,0-3.4,0-5.2-0.1c-2.7-0.1-5.5-0.2-8.3-0.1C740.1,17.4,740.3,16.3,740.4,15.3
	L740.4,15.3z M744.6,21.5L744.6,21.5L744.6,21.5L744.6,21.5z M749.5,21.5c-0.4-0.2-0.7-0.4-1.1-0.5c-2.8-1.1-5.9-1.4-8.8-0.7h-0.3
	c0.2-0.4,0.3-0.8,0.5-1.2c4.2,0.1,8.3,0.1,12.5,0.1h2.3c1.3,0.6,2.5,1.1,3.2,2.1h-8.3V21.5z M764.3,21.5c0.1-0.4,0.1-0.8,0-1.2h1
	c0.7,0,1.4,0,2.1,0L764.3,21.5z M777.5,21.5c-0.5,0-1,0-1.5-0.1h1.6C777.6,21.3,777.4,21.4,777.5,21.5L777.5,21.5z M778.2,20.7
	l-2.4-0.1h-2l-1-0.4c2.2,0,4.3,0.1,6.1,0.2C778.7,20.5,778.4,20.5,778.2,20.7L778.2,20.7z M779.2,20.5L779.2,20.5
	c0.2,0,0.2,0.1,0.3,0.1C779.4,20.5,779.3,20.4,779.2,20.5L779.2,20.5z M780.7,21.5L780.7,21.5h0.5H780.7z M843.1,18.1
	c-3.1-0.1-6.2,0-9.3,0.2c-2.8,0.3-5.6,0.4-8.4,0.1c-1.5-0.1-2.9-0.1-4.4,0.2c-0.8,0-2.2,0-2.3,0c-1.6-0.6-6.9-0.5-11.4-0.6
	c-2.7,0-5.3-0.1-8-0.1c-7.9-0.1-15.7-0.3-23.7-0.2c-3.8,0-3.1,0.2-0.3,0.3l0,0l1.3,0.1c1.9,0.2,4.3,0.1,6.4,0.1h0.1
	c2.9,0.2,5.9,0.3,8.9,0.2l0,0c5,0.3,11.1,0.2,16.4,0.4l0,0c6.6,0.3,14,0.2,20.9,0.4c4.4,0.1,8.8,0.2,13.2,0.2c0,0.3,0.1,0.6,0.2,0.9
	c-2.8-0.1-5.7-0.1-8.5-0.2c-6.8-0.1-13.9,0-20.4-0.3c-3-0.4-6.1-0.4-9.2-0.1c-3.8-0.2-8.7-0.2-9.6-0.7c-0.1,0-2.6-0.1-4-0.1
	c-2.3,0-4.8,0-6.8-0.1c-4-0.2-8.2-0.1-12.4-0.1c-0.8-1.4-1.4-1.4-2.8,0c-1.7,0-3.4,0-5.1,0c-0.4-0.8-1-1.5-1.8-1.9h0.7
	c4,0,7.9,0.1,11.9,0.1c14.7,0.1,28.8,0.5,43.6,0.5c4.1,0.2,8.5,0.1,12.8,0.1l0,0h0.5h0.5c2,0.1,4.3,0.1,6.5,0.1
	c1.5,0.1,3.2,0.1,4.8,0.1C843.4,17.8,843.2,17.9,843.1,18.1L843.1,18.1z M844,17.4c-1.2,0-2.4-0.1-3.7,0l0,0
	c-3.2-0.1-6.8-0.1-10.2-0.1l0,0c-14-0.2-28-0.4-42.1-0.7c-8.4-0.1-16.8-0.4-25.5-0.1h-0.9c-0.2-0.1-0.3-0.2-0.5-0.3
	c-0.2-0.2-0.3-0.5-0.4-0.8c0.6,0,1.3-0.1,1.9-0.1v0.1l0.2-0.1c0.8,0,1.7-0.1,2.5-0.1c1.4-0.1,2.8-0.1,4.3,0c0.1,0,0.2,0.1,0.2,0.1
	v-0.1c0.6,0,1.3,0.1,1.9,0.2c0.9,0.2,1.7,0.3,2.6,0.2c4.5,0,8.1,0.3,12.6,0.2l0,0c2.4,0.1,5,0.1,7.6,0.1l0,0
	c4.9,0.2,10,0.2,15.2,0.2h-0.1h0.9c6.3,0.2,13.7,0.1,19.5,0.5l0,0c2.1,0.1,4.2,0.1,6.3,0c2.7,0,5.7,0,8.6,0
	C844.5,17,844.2,17.2,844,17.4L844,17.4z M885.7,22L885.7,22z M915.4,22.1h-1.8l-2.3-0.2c-5.3-0.5-12.9-0.3-19.2-0.5h0.1
	c-5.5-0.3-11.8-0.2-17.8-0.3c-2.6-0.2-5.7-0.2-8.9-0.2l0,0c-4-0.1-8.2-0.2-12-0.3c-2-0.1-4.1-0.1-6.2-0.2l0.8-0.4l-0.3-0.5
	c9.6,0.1,19.3,0.2,29.2,0.2h7.5h0.7c1.7,0.1,3.7,0,5.5,0.1l0,0c1.5,0.1,3.3,0.1,5,0.1c1.6,0.1,3.3,0.1,4.9,0
	c0.7-0.1,0.1-0.1-0.9-0.1c-12.8-0.3-25.5-0.6-37.9-1h-0.2l0,0h0.2c-3.4-0.5-6.9-0.6-10.3-0.4c-1.4,0-3,0-4.5,0l-0.4-0.6
	c1.3,0,0.9-0.1-0.1-0.2l-0.5-0.7c3.9-0.1,7.9,0.1,11.8,0.6c0.1,0,0.8,0,1.2,0c8,0,15.7,0.4,24,0.2c2.8,0.1,5.4,0.3,8.4,0.4
	c3.7,0.3,7.4,0.3,11.1,0.2l0,0c3.5,0.1,7.2,0.1,9.8,0.4c-0.6,0.5,0.5,0.9,6.8,0.7c0.7,0,1.3,0,2,0c0,0.2-0.1,0.5-0.1,0.7h-0.2
	c-1.8-0.1-3.6-0.1-5.3,0.2c-0.6,0.2,2.2,0.3,4.1,0.4h1.5c0,0.2,0,0.5,0,0.7h-0.8c-2.4,0-5.9-0.4-6.9-0.1c-1.1,0.3,3.5,0.4,6.4,0.5
	c0.4,0,0.8,0,1.3,0v0.1c0.2,0,0.4-0.1,0.6-0.1h0.6h0.1l0,0C921.4,22,918.6,22,915.4,22.1L915.4,22.1z M942.1,19.6
	c0.5,0,0.8,0.1,0.5,0.2c-0.4,0.1-0.7,0.1-1.1,0.1C941.6,19.8,941.8,19.6,942.1,19.6L942.1,19.6z M940.1,18.8l-2.3-0.1
	c0.4-0.6,1.3-0.7,1.9-0.3C939.8,18.5,939.9,18.6,940.1,18.8L940.1,18.8z M937.5,19.5c1,0,1.9,0,2.8,0h0.1c0,0.1,0.1,0.2,0.2,0.4
	h-0.9c-0.8,0-1.5,0-2.3,0C937.4,19.7,937.4,19.6,937.5,19.5L937.5,19.5z M937.3,19.9c0.3,0.1,1.2,0.1,1.7,0.2l0,0l-1.4,0.2h-0.7
	C937,20.2,937.1,20,937.3,19.9L937.3,19.9z M928.6,19.3h2.2c0.3,0.5,0.8,0.8,1.3,0.9c-1.3,0-2.5,0-3.8-0.1L928.6,19.3z M949.4,22
	l-0.9-0.2c-0.7-0.2-1.4-0.1-2,0.2h-4H942l0.3-0.4c-0.7,0.1-1.5,0.2-2.2,0.3c-4.9-0.2-10-0.4-15.2-0.5h-0.6c1.1,0,2.1,0.1,3.2,0.1
	c0.1-0.3,0.2-0.6,0.3-0.9c7.9,0.2,15.8,0.3,23.4,0.6l0,0l0.9,0.1c0,0.2,0.1,0.4,0.2,0.6c0.3-0.1,0.6-0.3,0.8-0.5l4.6,0.4l0,0L960,22
	L949.4,22z M995.1,23.6L995.1,23.6l0.2-0.2l0,0L995.1,23.6z M1113.5,26.3L1113.5,26.3L1113.5,26.3z M1385.5,27.5
	c0.9-0.3,1.9-0.3,2.8-0.2C1387.3,27.5,1386.4,27.5,1385.5,27.5L1385.5,27.5z M1413.9,29.8L1413.9,29.8l-5.1,0.1h-6.4
	c0.3-0.4,0.4-0.9,0.5-1.5c2.4,0.3,4.8,0.1,7.1-0.7C1411.5,27.2,1415.1,27.2,1413.9,29.8z M1460.4,38.9L1460.4,38.9
	C1460.3,38.9,1460.3,38.9,1460.4,38.9L1460.4,38.9L1460.4,38.9z M1674.8,60.2L1674.8,60.2L1674.8,60.2z M1762.7,60.7
	c-1.1-0.1-2.2,0-3.3,0.2c-0.8,0.2,0.4,0.3,2.2,0.4c-0.3,0.1-0.6,0.2-0.8,0.3c-0.7,0-1.5,0-2.2,0c-1.1,0-2.3,0-3.4,0
	c-0.8-0.5-1.5-0.9-2.3-1.3l1.2-0.1c2.9,0.1,6.2,0.1,9.2,0.1C1763,60.4,1762.9,60.6,1762.7,60.7L1762.7,60.7z M1806.7,59.9
	c-1.4,0-2.9-0.1-4.3-0.1c-3-0.4-6.1-0.4-9.1-0.1c-3.7-0.2-8.4-0.2-9.5-0.7h4.1c1.3,0,2.9,0.1,4.1,0.1c0.5,0,0.9,0,1.3-0.1
	c0,0,0.1,0,0,0c-0.5-0.1-1-0.2-1.4-0.1c-1,0-2.6,0-3.8-0.1h-4.6c1.6,0,3.1-0.1,4.7-0.1c3,0,6,0,8.8,0.1l0,0c3.8,0.2,8,0.2,12.2,0.2
	C1808.3,59.3,1807.5,59.6,1806.7,59.9z M1810.9,58.5c-0.5,0-0.9,0.1-1.2,0.1c-0.8,0-2.2,0-2.3,0c-1.6-0.6-6.9-0.5-11.4-0.6h-0.4
	c0-0.3-0.2-0.6-0.6-0.7c4,0,8,0.1,12,0.1c2.7,0.1,5.5,0.1,8.3,0.1C1813.8,57.8,1812.4,58.1,1810.9,58.5L1810.9,58.5z M1816.8,57.3
	l-26.1-0.4c-0.4,0-0.8-0.3-1.1-0.6c2.8,0,5.8,0.1,8.7,0.1h-0.1c0.3,0,0.6,0,0.9,0c6.3,0.2,13.7,0.1,19.5,0.5l0,0c0.4,0,0.9,0,1.3,0
	C1818.9,57,1817.9,57.1,1816.8,57.3z M1869.2,63.6L1869.2,63.6h0.3H1869.2z M1874.1,66.4L1874.1,66.4h0.2
	C1874.2,66.4,1874.2,66.4,1874.1,66.4z M1874.3,62L1874.3,62z M1880.7,61.4L1880.7,61.4c-5.4-0.3-11.8-0.2-17.7-0.3
	c-2.6-0.2-5.7-0.2-8.9-0.2l0,0h-0.8c-1.4-0.4-2.8-0.8-4.3-1.2c5.4,0,10.9,0.1,16.4,0.1h7.5h0.7c1.7,0.1,3.7,0.1,5.4,0.1l0,0
	c1.5,0.1,3.3,0.1,5,0.1c1.6,0.1,3.3,0.1,4.9,0c0.7,0,0.1-0.1-0.8-0.2c-12.8-0.3-25.5-0.6-37.9-1h-0.2h-0.1h0.2
	c-2.4-0.4-4.8-0.5-7.2-0.5c-3.3-0.6-6.6-1.1-9.9-1.4c5.1,0,10.1,0,13.1,0.6c0.1,0,0.8,0,1.2,0c8,0,15.7,0.4,24,0.2
	c2.8,0.1,5.4,0.3,8.4,0.4c3.7,0.3,7.4,0.3,11.1,0.2l0,0h2.5c2.5,1,4.9,2,6.2,3.5C1894.4,61.3,1887,61.5,1880.7,61.4L1880.7,61.4z
	 M1909.9,64.3L1909.9,64.3L1909.9,64.3z M1908.6,62c-1.6-0.3-3.2-0.5-4.8-0.5l4.5,0.5c-1.1,0-2.5,0.1-3.9,0.1l-0.6-0.5h0.1
	c1.3,0.1,3.1,0.1,4.5,0.2c0.8,0,1.7,0,2.5,0h0.1C1910.2,62,1909.4,62.1,1908.6,62L1908.6,62z"/>
</svg>
