<svg id="Layer_1" data-name="Layer 1" xmlns="http://www.w3.org/2000/svg" viewBox="0 0 1920 155"><defs><style>.cls-1{fill:none;}</style></defs><path class="cls-1" d="M98.77,61.54h0Z"/><path class="cls-1" d="M102.09,53l.93,0-1.68,0Z"/><path class="cls-1" d="M97.45,53.14h0Z"/><path class="cls-1" d="M98.79,32.42h0Z"/><path class="cls-1" d="M94.39,48.88l.21,0,.41,0Z"/><path class="cls-1" d="M93.7,51.3h0Z"/><path class="cls-1" d="M107.58,32.18h0Z"/><path class="cls-1" d="M103.78,28.18l.09,0h-.21Z"/><path class="cls-1" d="M118.53,38.14h0Z"/><path class="cls-1" d="M108.89,31.84h0Z"/><path class="cls-1" d="M110,20.8h0Z"/><path class="cls-1" d="M105.82,20.33s0,0,0,.06c.24,0,.46,0,.61-.07h-.58Z"/><path class="cls-1" d="M92.48,45.54h-.19l.21,0s0,0,0,0Z"/><path class="cls-1" d="M89.89,45.07Z"/><path class="cls-1" d="M69.68,41.74Z"/><path class="cls-1" d="M66.78,78.12h0Z"/><path class="cls-1" d="M71,42.55h0Z"/><path class="cls-1" d="M65.62,77.78h.14Z"/><path class="cls-1" d="M65.88,42.54h0Z"/><path class="cls-1" d="M77,38.85l-.05,0,.32,0H77Z"/><path class="cls-1" d="M83.56,32.65h0Z"/><path class="cls-1" d="M78.33,61.78h0Z"/><path class="cls-1" d="M62.3,45.06l.64,0H62.3Z"/><path class="cls-1" d="M89.61,30h0Z"/><path class="cls-1" d="M82.32,38.52h0Z"/><path class="cls-1" d="M83.12,39.6l.49-.05h-.7Z"/><path class="cls-1" d="M120.32,34h0Z"/><path class="cls-1" d="M193.81,19.17h0Z"/><path class="cls-1" d="M468.6,17.79h0l.08,0,.15,0Z"/><path class="cls-1" d="M163.33,22.63h0Z"/><path class="cls-1" d="M161.43,22.39c.45,0,.88,0,1.24-.06-.29,0-.63-.06-1-.08A.48.48,0,0,1,161.43,22.39Z"/><path class="cls-1" d="M162.62,20c.11,0,.23-.06.23-.08a3.45,3.45,0,0,0-.72.08Z"/><path class="cls-1" d="M230.49,19l-.34,0h.36S230.51,19,230.49,19Z"/><path class="cls-1" d="M231.74,15.49h0Z"/><path class="cls-1" d="M434.58,19.51h0c1.56.12,3.13.21,4.94.28.2-.13.4-.27.61-.39A32.06,32.06,0,0,0,434.58,19.51Z"/><path class="cls-1" d="M122.75,29.42h0Z"/><path class="cls-1" d="M450.89,18.71h0Z"/><path class="cls-1" d="M252.08,15.38h0Z"/><path class="cls-1" d="M253.28,15.84h0Z"/><path class="cls-1" d="M447.15,19.93l4.57,0,11.48-.5q-8.43-.06-16.84-.07A9.09,9.09,0,0,1,447.15,19.93Z"/><path class="cls-1" d="M136.71,38.18h0Z"/><path class="cls-1" d="M140.54,33.34h0Z"/><path class="cls-1" d="M143,29.88h.17l-.2,0Z"/><path class="cls-1" d="M130.33,49.35h0Z"/><path class="cls-1" d="M158.09,68l.12,0h-.12Z"/><path class="cls-1" d="M125.49,38c.44,0,.85,0,1.18-.08h-.46Z"/><path class="cls-1" d="M143.67,27.46l-.1,0,.83,0Z"/><path class="cls-1" d="M144.4,29.42h0Z"/><path class="cls-1" d="M158.34,19.75h0Z"/><path class="cls-1" d="M145.21,43.82l-.06,0,.51-.06h-.45Z"/><path class="cls-1" d="M144.29,31.73h0Z"/><path class="cls-1" d="M144.16,45.08h.24l-.09,0Z"/><path class="cls-1" d="M713.86,15.63l3.79,0A6.77,6.77,0,0,0,713.86,15.63Z"/><path class="cls-1" d="M344.47,15.26h0Z"/><path class="cls-1" d="M712.29,16.17a14,14,0,0,0-1.29.64c2.44,0,4.84,0,7.07.18.61,0,1.24,0,1.85,0a7.81,7.81,0,0,0-1.12-.78C716.62,16.21,714.46,16.18,712.29,16.17Z"/><polygon class="cls-1" points="17.76 78.46 17.76 78.46 17.76 78.46 17.76 78.46"/><path class="cls-1" d="M639.56,14.69h0Z"/><path class="cls-1" d="M634.26,14.05h0Z"/><polygon class="cls-1" points="2.56 73.05 2.56 73.05 2.56 73.05 2.56 73.05"/><polygon class="cls-1" points="6.36 43.35 6.37 43.35 6.36 43.35 6.36 43.35"/><path class="cls-1" d="M543.29,14.91h0Z"/><path class="cls-1" d="M12.43,70.17h0Z"/><path class="cls-1" d="M-.07,43h0Z"/><path class="cls-1" d="M295.53,14.8h-.44l.37,0Z"/><path class="cls-1" d="M277,16h0Z"/><path class="cls-1" d="M705.41,15h0c-3.07,0-6.24.06-9.12-.1h-1c-3.87,0-7.87.06-11.56-.12-8.94,0-18,0-26.47-.34h-8.69c-1.82,0-4,0-5.33.13l.34.09c20.84.65,42.64.7,64.19.9l-.44-.54Z"/><path class="cls-1" d="M505.4,15.94h0Z"/><path class="cls-1" d="M40.05,54.16h.5a5.08,5.08,0,0,0-.71-.06Z"/><path class="cls-1" d="M36.6,39.19h0Z"/><path class="cls-1" d="M31.55,42.32h0Z"/><path class="cls-1" d="M33.74,62.13H33.6Z"/><path class="cls-1" d="M30.22,72.59h0Z"/><path class="cls-1" d="M26.55,73.51h0Z"/><path class="cls-1" d="M27.36,77.19h1.8c-.14,0-.29,0-.44,0C28.24,77.17,27.73,77.17,27.36,77.19Z"/><path class="cls-1" d="M34.26,44.27h0l-.44,0s0,0,0,0Z"/><path class="cls-1" d="M39.14,26.08h0Z"/><path class="cls-1" d="M36.62,62.1A11.67,11.67,0,0,0,38,62h-.44C37.22,62.05,36.91,62.08,36.62,62.1Z"/><path class="cls-1" d="M36.75,62.34h0Z"/><path class="cls-1" d="M36.7,69.14h0Z"/><path class="cls-1" d="M53.51,52.29s0,0,0,0l.29,0h-.29Z"/><path class="cls-1" d="M22.8,23.2Z"/><path class="cls-1" d="M22.48,70.41h.34l-.5,0A.75.75,0,0,1,22.48,70.41Z"/><path class="cls-1" d="M21.38,22.89l.18,0h-.15S21.37,22.88,21.38,22.89Z"/><path class="cls-1" d="M24.05,42.44h0Z"/><path class="cls-1" d="M20.13,26.68l.16,0H20Z"/><path class="cls-1" d="M17.76,29.42Z"/><path class="cls-1" d="M17.63,78.46h0Z"/><path class="cls-1" d="M50.41,43.08s0,0,0,0h0Z"/><path class="cls-1" d="M49.42,64.07h-.18l.12,0Z"/><path class="cls-1" d="M53.41,24.78h0Z"/><path class="cls-1" d="M59.55,75.12h-.17l0,0Z"/><path class="cls-1" d="M38,51.29h-.13l0,0Z"/><path class="cls-1" d="M1866.26,63.63h.37l-.32,0Z"/><path class="cls-1" d="M1871.42,66.4h-.14a.3.3,0,0,1-.1,0,1.07,1.07,0,0,0,.24,0Z"/><path class="cls-1" d="M1815.74,56.84c-5.75-.4-13.21-.29-19.49-.53q-.46,0-.9,0h.07c-2.94,0-5.84,0-8.69-.06a1.49,1.49,0,0,0,1.06.63l26.14.41c1-.16,2.06-.27,3.1-.37-.43,0-.87,0-1.29,0Z"/><path class="cls-1" d="M1792.11,57.34a.76.76,0,0,1,.56.69h.4c4.56.08,9.83,0,11.44.6.1,0,1.51,0,2.31,0,.34,0,.76-.09,1.22-.14,1.43-.4,2.88-.73,4.36-1-2.8,0-5.6,0-8.29-.11C1800.07,57.43,1796.08,57.39,1792.11,57.34Z"/><path class="cls-1" d="M1890.57,58.39l-2.49,0h0a109.8,109.8,0,0,1-11.1-.2c-3-.07-5.61-.25-8.4-.38-8.27.18-15.92-.19-24-.22-.4,0-1,0-1.16,0-3-.57-8-.62-13.13-.62a95.7,95.7,0,0,1,9.91,1.42,40,40,0,0,1,7.23.47c12.34.44,25.12.74,37.87,1.05.92,0,1.55.1.85.15a33.11,33.11,0,0,1-4.88,0c-1.71,0-3.51,0-5-.08h0c-1.74-.06-3.77,0-5.45-.12l-.74,0-7.5,0c-5.54,0-11,0-16.44-.08,1.46.37,2.9.76,4.31,1.18l.76,0h0c3.16,0,6.24.05,8.86.23,5.92.12,12.32,0,17.77.34h-.08c6.21.18,13.6,0,18.93.44C1895.43,60.37,1893.08,59.35,1890.57,58.39Zm-8.73,2.49q-9.69-.23-19.32-.47c-1.09,0-2.56-.08-2-.24a15.13,15.13,0,0,1,2.63-.1q9.35.21,18.61.47c.87,0,1.51.12,2.08.16C1883.88,60.86,1883,60.91,1881.84,60.88Z"/><path class="cls-1" d="M1847.32,58.82l.15,0-.21,0Z"/><path class="cls-1" d="M1871.23,62h0Z"/><path class="cls-1" d="M468.6,17.79Z"/><path class="cls-1" d="M1907,64.35h-.07Z"/><path class="cls-1" d="M1905.38,62.06l-4.5-.48.61.54C1902.92,62.12,1904.26,62.11,1905.38,62.06Z"/><path class="cls-1" d="M1906.33,60.09c5.7.09,11.6.09,17,.31l1.4-.24h0a10.46,10.46,0,0,1-1.87-.27,5.07,5.07,0,0,1,1.23-.07c-.63-.11-1.26-.21-1.93-.26-1-.08-2.53,0-3.45,0s-1.71,0-2.41,0a4.71,4.71,0,0,1-1.16-.16c-3.4,0-6.63-.06-10.47.07l-1.11,0a2.75,2.75,0,0,1-.61.63C1904,60.06,1905.25,60.08,1906.33,60.09Z"/><path class="cls-1" d="M1907.92,61.7h0c-.83,0-1.7,0-2.48,0-1.39,0-3.14-.09-4.49-.15l-.06,0a27.29,27.29,0,0,1,4.75.47,8,8,0,0,0,2.4-.36h-.11Z"/><path class="cls-1" d="M776.42,20.41h-.14a1.71,1.71,0,0,1,.3.09.69.69,0,0,0-.16-.09Z"/><path class="cls-1" d="M774.52,21.41s.07-.05.1-.09l-1.62,0A5.39,5.39,0,0,0,774.52,21.41Z"/><path class="cls-1" d="M770.91,20.58l2,0,2.4.06a1.56,1.56,0,0,1,.78-.29c-1.85-.14-3.95-.18-6.14-.2Z"/><path class="cls-1" d="M761.35,20.15a5.11,5.11,0,0,1,0,1.24l3.09-1.26c-.7,0-1.4,0-2.06,0Z"/><path class="cls-1" d="M751.55,19.29l-2.26,0c-4.17,0-8.32-.09-12.47-.15a6.78,6.78,0,0,1-.47,1.17h.3a14.21,14.21,0,0,1,8.78.66,4.46,4.46,0,0,1,1.12.47l8.23,0C754.08,20.37,752.83,19.91,751.55,19.29Z"/><path class="cls-1" d="M777.79,21.42h.44l-.46,0Z"/><path class="cls-1" d="M882.51,21.93h0Z"/><path class="cls-1" d="M827,16.75h0c-5.75-.41-13.2-.29-19.48-.53l-.91,0h.07c-5.23,0-10.39,0-15.25-.23h0c-2.61,0-5.22,0-7.59-.12h0c-4.51.05-8.09-.29-12.6-.24h0a9.32,9.32,0,0,1-2.6-.23,18.82,18.82,0,0,0-1.93-.18l0,.05s-.08,0-.16-.06a37.52,37.52,0,0,0-4.26,0c-.82.06-1.67.08-2.5.12l-.15.1a.32.32,0,0,0,0-.09c-.62,0-1.24.07-1.88.09.15.25.29.51.44.75.16.08.3.17.45.26l.94,0c8.71-.26,17,0,25.47.15q21.08.32,42.07.66h0c3.4,0,6.94,0,10.18.12h0c1.32,0,2.57,0,3.74.05.28-.19.57-.38.87-.56-2.91,0-5.88,0-8.59,0A45.61,45.61,0,0,1,827,16.75Z"/><path class="cls-1" d="M741.58,21.48l0,0h0v0Z"/><path class="cls-1" d="M829.19,17.46h-.51l-.49,0h0c-4.29,0-8.67.05-12.8-.11-14.79,0-28.92-.46-43.64-.52-4,0-8-.06-11.92-.09h-.69a5.2,5.2,0,0,1,1.79,1.94c1.68,0,3.36,0,5.06,0,1.4-1.38,2-1.38,2.81,0,4.16,0,8.33-.05,12.38.11,2.05.07,4.54.05,6.81.09,1.43,0,4,.05,4,.1.89.51,5.83.53,9.6.7a42.33,42.33,0,0,1,9.15.09c6.5.26,13.61.15,20.4.28,2.88,0,5.72.11,8.55.18a1.77,1.77,0,0,1-.22-.85c-4.42-.08-8.88-.14-13.24-.25-6.89-.18-14.31-.06-20.88-.36h0c-5.3-.18-11.43-.06-16.41-.36h0a80.7,80.7,0,0,1-8.86-.22H780c-2.14,0-4.54.05-6.41-.11l-1.31-.09h0c-2.79-.13-3.46-.26.3-.31,8-.11,15.83.11,23.73.17,2.7,0,5.35.09,8,.14,4.55.08,9.82,0,11.44.6.09,0,1.5,0,2.3.05a18.86,18.86,0,0,1,4.36-.17,42,42,0,0,0,8.41-.11,80.29,80.29,0,0,1,9.31-.23,3.89,3.89,0,0,1,.42-.38c-1.65,0-3.37,0-4.85-.13C833.53,17.55,831.19,17.59,829.19,17.46Z"/><path class="cls-1" d="M750.48,18.69a7.33,7.33,0,0,1-.78-.5,4.15,4.15,0,0,1-2.35-.32,5.23,5.23,0,0,0,3.14-2.43l-4,0a10,10,0,0,1-1,1.88,8.17,8.17,0,0,1,2.32.18,9.21,9.21,0,0,1-2.25.13h-.32c-.74.68-1.68.29-4.14-.77a7.67,7.67,0,0,1,3.17-1.44l-2.25,0c-1.52,0-3,0-4.52-.06a25.51,25.51,0,0,1-.46,3.16c2.76,0,5.59.06,8.31.15C747.11,18.65,748.79,18.68,750.48,18.69Z"/><path class="cls-1" d="M546,18.12h0a2.81,2.81,0,0,1-.08-.31C546,17.91,546,18,546,18.12Z"/><path class="cls-1" d="M519.73,18.48h0Z"/><path class="cls-1" d="M1806.27,59.06c-4.16,0-8.3-.06-12.15-.24h0c-2.78-.09-5.8-.11-8.76-.14-1.57,0-3.14.09-4.71.12l4.63.05c1.24,0,2.84.06,3.79.06a4.33,4.33,0,0,1,1.44.13c.14.05,0,0,0,0a4,4,0,0,1-1.35.12c-1.28,0-2.88,0-4.14-.06l-4.14,0c1.09.47,5.81.5,9.47.66a42.17,42.17,0,0,1,9.14.1c1.41.05,2.85.08,4.29.11C1804.61,59.62,1805.43,59.33,1806.27,59.06Z"/><path class="cls-1" d="M503.59,18.14a2,2,0,0,1,.32,0h.18l-.43,0C503.28,18.12,503.51,18.2,503.59,18.14Z"/><path class="cls-1" d="M858.59,18.73l.16,0-.21,0Z"/><path class="cls-1" d="M682.44,20.12l-4.82,0C679.22,20.14,680.83,20.14,682.44,20.12Z"/><path class="cls-1" d="M727.69,20.62h-.86l.63.68,2.84,0c-.61-.16-1.23-.34-1.95-.58A4.8,4.8,0,0,0,727.69,20.62Z"/><path class="cls-1" d="M731.89,15.63a3.92,3.92,0,0,1,.15.57,4.59,4.59,0,0,0,.73-.06c.32-.31.64-.61,1-.88h-1.89C731.86,15.39,731.9,15.5,731.89,15.63Z"/><path class="cls-1" d="M711.19,21.08c.43,0,.86,0,1.28-.06a1.48,1.48,0,0,1,.64.14l2.78.07h1.38c2.13,0,4.23,0,6.31,0a1.31,1.31,0,0,1,.56-.66c-9.93-.15-19.89-.24-29.87-.33C699.91,20.54,705.55,20.84,711.19,21.08Z"/><path class="cls-1" d="M1457.47,38.94l0-.07a.43.43,0,0,1,0,.07Z"/><path class="cls-1" d="M1382.56,27.55c1,0,1.89-.1,2.83-.17A6,6,0,0,0,1382.56,27.55Z"/><path class="cls-1" d="M1407.05,27.68a14.94,14.94,0,0,1-7.09.72,3.42,3.42,0,0,1-.46,1.45h6.38l5.11-.06h0C1412.2,27.17,1408.59,27.17,1407.05,27.68Z"/><path class="cls-1" d="M1110.58,26.34l0,0v0Z"/><path class="cls-1" d="M992.21,23.58l0,0,.12-.23h0Z"/><path class="cls-1" d="M1749.89,60.25c.79.47,1.56.89,2.31,1.34,1.12,0,2.26,0,3.38,0,.75,0,1.49,0,2.23,0,.29-.1.58-.2.84-.31-1.8-.07-3-.2-2.18-.41a15.51,15.51,0,0,1,3.31-.2,4.93,4.93,0,0,0,.53-.36c-3-.05-6.28,0-9.2-.12Z"/><path class="cls-1" d="M1671.85,60.25h-.06Z"/><path class="cls-1" d="M477.46,18.71l.44,0,0,0Z"/><path class="cls-1" d="M934.8,18.68l2.3.1A1.36,1.36,0,0,0,934.8,18.68Z"/><path class="cls-1" d="M936.72,19.77l.87,0a2.28,2.28,0,0,1-.17-.35h-.11c-.87,0-1.81-.05-2.76-.05a2.83,2.83,0,0,1-.15.35A20.06,20.06,0,0,1,936.72,19.77Z"/><path class="cls-1" d="M919.19,21.61h-.57c-.21,0-.43,0-.64.1,0,0,0-.06,0-.1-.43,0-.86,0-1.26,0-2.93-.08-7.51-.18-6.41-.47.94-.25,4.45.08,6.87.13l.77,0c0-.26,0-.5-.05-.72l-1.48,0c-1.94-.05-4.73-.1-4.12-.35a29.75,29.75,0,0,1,5.32-.16h.25a5.05,5.05,0,0,1,.09-.72c-.65,0-1.29,0-2,.05-6.27.21-7.38-.26-6.82-.73-2.62-.27-6.27-.29-9.8-.35h0a107,107,0,0,1-11.1-.19c-3-.08-5.62-.25-8.4-.38-8.28.18-15.93-.2-24-.22-.4,0-1,0-1.16,0a77,77,0,0,0-11.8-.62l.45.66c1,.05,1.44.12.12.17l.41.6c1.53,0,3.12.05,4.54,0a53.47,53.47,0,0,1,10.3.44c12.33.43,25.11.74,37.86,1.05.93,0,1.55.09.86.15a34.69,34.69,0,0,1-4.89,0c-1.7,0-3.5,0-5-.08h0c-1.75-.07-3.78,0-5.46-.12l-.74,0h-7.5c-9.86,0-19.55-.06-29.16-.21l.34.51-.78.36c2.07.05,4.15.1,6.19.17,3.9.13,8,.2,12,.3h0c3.15,0,6.23,0,8.86.23,5.92.11,12.31,0,17.77.34h-.09c6.33.19,13.88-.05,19.23.47l2.32.21h1.83c3.19,0,6.06,0,6.84-.44h0Zm-26.08-.82-19.32-.47c-1.09,0-2.55-.08-1.94-.24a15.92,15.92,0,0,1,2.63-.11q9.33.23,18.6.48c.87,0,1.52.11,2.09.16C895.15,20.77,894.23,20.82,893.11,20.79Z"/><path class="cls-1" d="M939.12,19.56a3.46,3.46,0,0,0-.62.28,4.08,4.08,0,0,0,1.12-.09C939.92,19.67,939.64,19.61,939.12,19.56Z"/><path class="cls-1" d="M955.09,21.82h0l-4.64-.37a9,9,0,0,1-.84.48,1.79,1.79,0,0,1-.23-.58l-.88-.07h0c-7.57-.27-15.48-.43-23.39-.59-.11.29-.23.58-.34.86-1.12,0-2.19-.1-3.25-.12l.57,0c5.2.14,10.23.32,15.16.51a19.1,19.1,0,0,1,2.22-.33l-.26.41.46,0,4,0a2.58,2.58,0,0,1,2-.23l.89.22L957.38,22l-2.28-.16Z"/><path class="cls-1" d="M936,20.07h0c-.51-.07-1.37-.14-1.72-.21a1.66,1.66,0,0,1-.36.42l.68,0Z"/><path class="cls-1" d="M927.79,19.29l-2.15,0-.33.84c1.27,0,2.53,0,3.79.06A2.08,2.08,0,0,1,927.79,19.29Z"/><path d="M1902.09,53.06c-4.7-.65-2.62-2.74-.07-4,.87-.44,2-.08,2.47-.17s.32-.05.42,0c1.75.31,1.58,1.38,3.49,1.57.86-.75,2.79-.7,4.1-.91a4.24,4.24,0,0,1-.38.65c-.51.75-1,1.39,0,2.07a1.23,1.23,0,0,0,.38.17,19.66,19.66,0,0,0,5.81.54c.77,0,1.65-.12,1.86-.66l0,0,0-.11c-.08-.26-1.2-.59-1.89-.57a8.55,8.55,0,0,1-2.79-.17c-.43-.27.13-.61.38-1.06s.84-1.47-.19-1.87-1.9.1-2.65-.59c-.06,0,.24,0,.15-.17-1.11-1.36-6.73-.55-7.43-.14l-.21.12c-.37.12-.47,0-.72,0-1.39,0-2.71.08-4.07.2l.18-.17c-12.59-1.22-25.35-1.56-37,2.08C1867.35,58.7,1891.85,54.47,1902.09,53.06Z"/><path d="M1818.51,37.53c-6-4.45-14.09-4.93-22.79-4.29,0,.94-.45,1.58-1.67,2.12,3.23.21,4.7,1.47,7.56,2.15C1807.35,36.23,1812.79,38.67,1818.51,37.53Z"/><path d="M1327.7,27h9.72C1334.21,26.47,1330.91,26,1327.7,27Z"/><path d="M1141.92,24.36c.64.1,1.22-.1,1.31-.54s-.41-1-1.26-1.19c-.66,0-1.21.21-1.34.61C1140.43,23.87,1141.08,24.22,1141.92,24.36Z"/><path d="M1138.8,16.27c-1.39,0-1.41,1-1.54,1.79h2.57C1139.53,17.43,1140.52,16.3,1138.8,16.27Z"/><path d="M1321.62,27a2.34,2.34,0,0,0,.78-.37c-.39-.43-1.05-.36-1.65-.32a3.68,3.68,0,0,0-1,.27C1320,27.27,1320.92,27.05,1321.62,27Z"/><polygon points="1140.36 18.25 1139.83 18.06 1140.12 18.4 1140.36 18.25"/><polygon points="1139.08 20.71 1138.54 20.52 1138.84 20.87 1139.08 20.71"/><path d="M940.62,13.13l-2.57.82a3.32,3.32,0,0,0,2.57.82Z"/><path d="M940.94,15.09a3.93,3.93,0,0,0,1,.28s.2-.19.3-.3c-.35-.09-.7-.2-1.07-.28C940.53,14.65,940.39,14.79,940.94,15.09Z"/><path d="M930.34,15.59h1.29Q931,14.75,930.34,15.59Z"/><polygon points="932.16 15.78 931.63 15.59 931.92 15.94 932.16 15.78"/><polygon points="940.92 16.89 940.62 17.24 941.16 17.05 940.92 16.89"/><path d="M1914.62,29.58c.07-.4.19-.78,1.4-.64-.19-.81-.48-1.57-2.86-1.33C1913.4,28.38,1913,29.46,1914.62,29.58Z"/><path d="M1920.19,27.63c-.07.4-.18.79-1.39.66,0,.43,0,.87,0,1.31C1922.33,30.62,1922.91,27.39,1920.19,27.63Z"/><path d="M1188.92,23c0-.12-.1-.23-.16-.35-.16,0-.45.07-.46.11s.11.23.17.34S1188.92,23.08,1188.92,23Z"/><path d="M1243.3,24h12.44C1251.64,23.19,1247.41,22.31,1243.3,24Z"/><path d="M1005.68,19.57a1.27,1.27,0,0,0,1.67-.92c.15-1-.52-1.67-1.6-2-.86,0-1.55.35-1.72,1.05C1003.77,18.73,1004.61,19.33,1005.68,19.57Z"/><path d="M1001.69,5.75c-1.78,0-1.8,1.77-2,3.05H1003C1002.62,7.73,1003.89,5.79,1001.69,5.75Z"/><path d="M1235.53,24.12c.37,0,.7-.43,1-.63-.5-.73-1.35-.61-2.11-.55a3.65,3.65,0,0,0-1.32.47C1233.51,24.54,1234.63,24.17,1235.53,24.12Z"/><polygon points="1003.69 9.12 1003 8.8 1003.38 9.39 1003.69 9.12"/><polygon points="1002.05 13.34 1001.36 13.02 1001.74 13.6 1002.05 13.34"/><polygon points="300.13 2.09 299.44 1.77 299.82 2.36 300.13 2.09"/><path d="M748.21,3.18V.36l-3.29,1.41C745.63,2.91,746.85,3.15,748.21,3.18Z"/><path d="M748.62,3.72A3.77,3.77,0,0,0,750,4.2c.07,0,.26-.33.39-.5-.45-.17-.9-.35-1.37-.48C748.08,3,747.91,3.2,748.62,3.72Z"/><path d="M735.06,4.58h1.64C736.15,3.62,735.61,3.62,735.06,4.58Z"/><polygon points="737.39 4.91 736.7 4.58 737.08 5.17 737.39 4.91"/><polygon points="748.59 6.81 748.21 7.39 748.89 7.07 748.59 6.81"/><path d="M284.65.36l1.64,1.41C285.87,1.19,287.11-.81,284.65.36Z"/><polygon points="360.26 5.99 360.26 5.99 360.26 5.99 360.26 5.99"/><path d="M477,8.8c-4-1.58-3.15,1-3.28,2.81A5.29,5.29,0,0,0,477,8.8Z"/><path d="M474.91,4.38c0-.07-.38-.12-.58-.19a1.6,1.6,0,0,0-.21.6c0,.07.37.13.58.19A1.6,1.6,0,0,0,474.91,4.38Z"/><path d="M1612.3,28.86h12.44C1620.64,28.05,1616.41,27.17,1612.3,28.86Z"/><path d="M1374.68,24.42a1.25,1.25,0,0,0,1.67-.92c.15-1-.52-1.66-1.6-2-.86,0-1.55.35-1.72,1C1372.78,23.59,1373.61,24.18,1374.68,24.42Z"/><path d="M1370.69,10.6c-1.78,0-1.8,1.78-2,3.06H1372C1371.62,12.58,1372.89,10.64,1370.69,10.6Z"/><path d="M1604.53,29c.37,0,.7-.44,1-.64-.5-.72-1.35-.6-2.11-.54a3.47,3.47,0,0,0-1.32.47C1602.51,29.4,1603.63,29,1604.53,29Z"/><polygon points="1372.69 13.98 1372.01 13.66 1372.38 14.24 1372.69 13.98"/><polygon points="1371.05 18.2 1370.36 17.87 1370.74 18.46 1371.05 18.2"/><polygon points="669.13 6.95 668.44 6.63 668.82 7.21 669.13 6.95"/><path d="M1102.62,17.32c2.23.79,6.49,2.56,7.08-2.43.14-1.19,2.44-2.08,3.13.27.25.85.67,2.46,1.18,1.91,2.45-2.66,7.08.36,9.21-2.93.77-1.2,2.59-2,.8-3.42-1.42-1.1-2.44,0-3.19,1-1,1.32-2,2.34-3.62.57-2.86-.38-5.53-1.57-8.61,0-3.32,1.72-4.23-.45-4.54-2.83-.82.59-2,1-2.4,1.8C1100.48,13.4,1099.56,16.23,1102.62,17.32Z"/><path d="M1096.88,19.62c.6-2,1.18-4,1.87-6.25-9-3-11.37-1.51-10.5,6.51C1091,19,1093.84,19.49,1096.88,19.62Z"/><path d="M1115.68,19.8c-2,.25-4,.56-5.62,1.86C1114.05,23.37,1114.05,23.37,1115.68,19.8Z"/><path d="M1131.14,14.89c-.64,1.55-3.91,2.18-2.49,5.37C1131,18.75,1132,17.31,1131.14,14.89Z"/><path d="M1117.21,8V5.22l-3.29,1.41C1114.63,7.76,1115.85,8,1117.21,8Z"/><path d="M1136.66,19c.51-1.26.26-1.42-.42-.89a17.93,17.93,0,0,0-1.46,1.43,6.49,6.49,0,0,0,.94.51A11.86,11.86,0,0,0,1136.66,19Z"/><path d="M1117.62,8.58a3.77,3.77,0,0,0,1.33.48c.07,0,.26-.33.4-.51-.46-.16-.91-.35-1.38-.48C1117.08,7.83,1116.92,8.06,1117.62,8.58Z"/><path d="M1104.06,9.44h1.64C1105.15,8.48,1104.61,8.48,1104.06,9.44Z"/><polygon points="1106.39 9.76 1105.7 9.44 1106.08 10.03 1106.39 9.76"/><polygon points="1117.59 11.66 1117.21 12.25 1117.9 11.93 1117.59 11.66"/><path d="M653.65,5.22l1.64,1.41C654.87,6.05,656.11,4.05,653.65,5.22Z"/><polygon points="729.26 10.84 729.26 10.85 729.26 10.85 729.26 10.84"/><path d="M843.91,9.24c0-.07-.37-.13-.58-.19a1.6,1.6,0,0,0-.21.6c0,.07.37.12.58.18A1.62,1.62,0,0,0,843.91,9.24Z"/><path d="M874.48,20a15.92,15.92,0,0,0-2.63.11c-.61.16.85.21,1.94.24l19.32.47c1.12,0,2,0,2.06-.18-.57-.05-1.22-.14-2.09-.16Q883.83,20.2,874.48,20Z"/><path d="M317.84,16.31c-3.29.05-6.54.13-9.76.2a7.36,7.36,0,0,0-2.42.23,13.76,13.76,0,0,0,3,.14h3.15c2.5,0,5.09.05,7.37-.09,1.38-.08,3.33-.17,3-.34A24.76,24.76,0,0,0,317.84,16.31Z"/><path d="M547.06,13.61a11.26,11.26,0,0,0,1.76-.12c.23-.12-.9-.18-1.94-.18H526.2C532.87,13.7,540,13.66,547.06,13.61Z"/><path d="M510.9,13.5c.86,0,1.48-.07,1.42-.16a13.85,13.85,0,0,0-2.59-.09,5.77,5.77,0,0,0-1.19.11A9.89,9.89,0,0,0,510.9,13.5Z"/><path d="M609.11,16.17c0-.09-.2-.17-1.23-.16a5.12,5.12,0,0,0-1,.1c-.17.07.13.15,1.17.14A10.44,10.44,0,0,0,609.11,16.17Z"/><path d="M1863.2,60.07a15.13,15.13,0,0,0-2.63.1c-.61.16.86.21,2,.24q9.63.26,19.32.47c1.11,0,2,0,2.05-.18-.57,0-1.21-.14-2.08-.16Q1872.56,60.29,1863.2,60.07Z"/><path class="cls-1" d="M71,42.55h0Z"/><path class="cls-1" d="M77,38.85l-.05,0,.32,0H77Z"/><path class="cls-1" d="M69.68,41.74Z"/><path class="cls-1" d="M78.33,61.78h0Z"/><path class="cls-1" d="M82.32,38.52h0Z"/><path class="cls-1" d="M66.78,78.12h0Z"/><path class="cls-1" d="M83.56,32.65h0Z"/><path class="cls-1" d="M89.61,30h0Z"/><path class="cls-1" d="M40.05,54.16h.5a5.08,5.08,0,0,0-.71-.06Z"/><path class="cls-1" d="M53.41,24.78h0Z"/><path class="cls-1" d="M50.38,43.09h0S50.38,43.08,50.38,43.09Z"/><path class="cls-1" d="M65.62,77.78h.14Z"/><path class="cls-1" d="M49.36,64.09l.06,0h-.18Z"/><path class="cls-1" d="M53.51,52.29s0,0,0,0l.29,0h-.29Z"/><path class="cls-1" d="M65.88,42.54h0Z"/><path class="cls-1" d="M62.3,45.06l.64,0H62.3Z"/><path class="cls-1" d="M59.43,75.14l.12,0h-.17Z"/><path class="cls-1" d="M83.12,39.6l.49-.05h-.7Z"/><path class="cls-1" d="M110,20.8h0Z"/><path class="cls-1" d="M108.89,31.84h0Z"/><path class="cls-1" d="M107.58,32.18h0Z"/><path class="cls-1" d="M118.53,38.14h0Z"/><path class="cls-1" d="M105.82,20.33s0,0,0,.06c.24,0,.46,0,.61-.07h-.58Z"/><path class="cls-1" d="M125.49,38c.44,0,.85,0,1.18-.08h-.46Z"/><path class="cls-1" d="M120.32,34h0Z"/><path class="cls-1" d="M89.89,45.07Z"/><path class="cls-1" d="M122.75,29.42h0Z"/><path class="cls-1" d="M97.45,53.14h0Z"/><path class="cls-1" d="M103.78,28.18l.09,0h-.21Z"/><path class="cls-1" d="M93.7,51.3h0Z"/><path class="cls-1" d="M92.48,45.54h-.19l.21,0s0,0,0,0Z"/><path class="cls-1" d="M94.39,48.88l.21,0,.41,0Z"/><path class="cls-1" d="M102.09,53l.93,0-1.68,0Z"/><path class="cls-1" d="M98.77,61.54h0Z"/><path class="cls-1" d="M98.79,32.42h0Z"/><path class="cls-1" d="M712.29,16.17a14,14,0,0,0-1.29.64c2.44,0,4.84,0,7.07.18.61,0,1.24,0,1.85,0a7.81,7.81,0,0,0-1.12-.78C716.62,16.21,714.46,16.18,712.29,16.17Z"/><path class="cls-1" d="M-.07,43h0Z"/><path class="cls-1" d="M22.8,23.2Z"/><path class="cls-1" d="M344.47,15.26h0Z"/><polygon class="cls-1" points="17.76 78.46 17.76 78.46 17.76 78.46 17.76 78.46"/><path class="cls-1" d="M277,16h0Z"/><path class="cls-1" d="M12.43,70.17h0Z"/><polygon class="cls-1" points="2.56 73.05 2.56 73.05 2.56 73.05 2.56 73.05"/><polygon class="cls-1" points="6.36 43.35 6.37 43.35 6.36 43.35 6.36 43.35"/><path class="cls-1" d="M295.53,14.8h-.44l.37,0Z"/><path class="cls-1" d="M505.4,15.94h0Z"/><path class="cls-1" d="M543.29,14.91h0Z"/><path class="cls-1" d="M634.26,14.05h0Z"/><path class="cls-1" d="M639.56,14.69h0Z"/><path class="cls-1" d="M130.33,49.35h0Z"/><path class="cls-1" d="M713.86,15.63l3.79,0A6.77,6.77,0,0,0,713.86,15.63Z"/><path class="cls-1" d="M39.14,26.08h0Z"/><path class="cls-1" d="M705.41,15h0c-3.07,0-6.24.06-9.12-.1h-1c-3.87,0-7.87.06-11.56-.12-8.94,0-18,0-26.47-.34h-8.69c-1.82,0-4,0-5.33.13l.34.09c20.84.65,42.64.7,64.19.9l-.44-.54Z"/><path class="cls-1" d="M31.55,42.32h0Z"/><path class="cls-1" d="M36.6,39.19h0Z"/><path class="cls-1" d="M17.63,78.46h0Z"/><path class="cls-1" d="M30.22,72.59h0Z"/><path class="cls-1" d="M36.7,69.14h0Z"/><path class="cls-1" d="M36.62,62.1A11.67,11.67,0,0,0,38,62h-.44C37.22,62.05,36.91,62.08,36.62,62.1Z"/><path class="cls-1" d="M36.75,62.34h0Z"/><path class="cls-1" d="M27.36,77.19h1.8c-.14,0-.29,0-.44,0C28.24,77.17,27.73,77.17,27.36,77.19Z"/><path class="cls-1" d="M33.74,62.13H33.6Z"/><path class="cls-1" d="M21.38,22.89l.18,0h-.15S21.37,22.88,21.38,22.89Z"/><path class="cls-1" d="M20.13,26.68l.16,0H20Z"/><path class="cls-1" d="M22.48,70.41h.34l-.5,0A.75.75,0,0,1,22.48,70.41Z"/><path class="cls-1" d="M26.55,73.51h0Z"/><path class="cls-1" d="M34.26,44.27h0l-.44,0s0,0,0,0Z"/><path class="cls-1" d="M24.05,42.44h0Z"/><path class="cls-1" d="M38,51.29h-.13l0,0Z"/><path class="cls-1" d="M17.76,29.42Z"/><path class="cls-1" d="M936.72,19.77l.87,0a2.28,2.28,0,0,1-.17-.35h-.11c-.87,0-1.81-.05-2.76-.05a2.83,2.83,0,0,1-.15.35A20.06,20.06,0,0,1,936.72,19.77Z"/><path class="cls-1" d="M927.79,19.29l-2.15,0-.33.84c1.27,0,2.53,0,3.79.06A2.08,2.08,0,0,1,927.79,19.29Z"/><path class="cls-1" d="M936,20.07h0c-.51-.07-1.37-.14-1.72-.21a1.66,1.66,0,0,1-.36.42l.68,0Z"/><path class="cls-1" d="M934.8,18.68l2.3.1A1.36,1.36,0,0,0,934.8,18.68Z"/><path class="cls-1" d="M955.09,21.82h0l-4.64-.37a9,9,0,0,1-.84.48,1.79,1.79,0,0,1-.23-.58l-.88-.07h0c-7.57-.27-15.48-.43-23.39-.59-.11.29-.23.58-.34.86-1.12,0-2.19-.1-3.25-.12l.57,0c5.2.14,10.23.32,15.16.51a19.1,19.1,0,0,1,2.22-.33l-.26.41.46,0,4,0a2.58,2.58,0,0,1,2-.23l.89.22L957.38,22l-2.28-.16Z"/><path class="cls-1" d="M939.12,19.56a3.46,3.46,0,0,0-.62.28,4.08,4.08,0,0,0,1.12-.09C939.92,19.67,939.64,19.61,939.12,19.56Z"/><path class="cls-1" d="M1110.58,26.34l0,0v0Z"/><path class="cls-1" d="M992.21,23.58l0,0,.12-.23h0Z"/><path class="cls-1" d="M776.42,20.41h-.14a1.71,1.71,0,0,1,.3.09.69.69,0,0,0-.16-.09Z"/><path class="cls-1" d="M919.19,21.61h-.57c-.21,0-.43,0-.64.1,0,0,0-.06,0-.1-.43,0-.86,0-1.26,0-2.93-.08-7.51-.18-6.41-.47.94-.25,4.45.08,6.87.13l.77,0c0-.26,0-.5-.05-.72l-1.48,0c-1.94-.05-4.73-.1-4.12-.35a29.75,29.75,0,0,1,5.32-.16h.25a5.05,5.05,0,0,1,.09-.72c-.65,0-1.29,0-2,.05-6.27.21-7.38-.26-6.82-.73-2.62-.27-6.27-.29-9.8-.35h0a107,107,0,0,1-11.1-.19c-3-.08-5.62-.25-8.4-.38-8.28.18-15.93-.2-24-.22-.4,0-1,0-1.16,0a77,77,0,0,0-11.8-.62l.45.66c1,.05,1.44.12.12.17l.41.6c1.53,0,3.12.05,4.54,0a53.47,53.47,0,0,1,10.3.44c12.33.43,25.11.74,37.86,1.05.93,0,1.55.09.86.15a34.69,34.69,0,0,1-4.89,0c-1.7,0-3.5,0-5-.08h0c-1.75-.07-3.78,0-5.46-.12l-.74,0h-7.5c-9.86,0-19.55-.06-29.16-.21l.34.51-.78.36c2.07.05,4.15.1,6.19.17,3.9.13,8,.2,12,.3h0c3.15,0,6.23,0,8.86.23,5.92.11,12.31,0,17.77.34h-.09c6.33.19,13.88-.05,19.23.47l2.32.21h1.83c3.19,0,6.06,0,6.84-.44h0Z"/><path class="cls-1" d="M774.52,21.41s.07-.05.1-.09l-1.62,0A5.39,5.39,0,0,0,774.52,21.41Z"/><path class="cls-1" d="M1382.56,27.55c1,0,1.89-.1,2.83-.17A6,6,0,0,0,1382.56,27.55Z"/><path class="cls-1" d="M770.91,20.58l2,0,2.4.06a1.56,1.56,0,0,1,.78-.29c-1.85-.14-3.95-.18-6.14-.2Z"/><path class="cls-1" d="M777.79,21.42h.44l-.46,0Z"/><path class="cls-1" d="M858.59,18.73l.16,0-.21,0Z"/><path class="cls-1" d="M827,16.75h0c-5.75-.41-13.2-.29-19.48-.53l-.91,0h.07c-5.23,0-10.39,0-15.25-.23h0c-2.61,0-5.22,0-7.59-.12h0c-4.51.05-8.09-.29-12.6-.24a9.32,9.32,0,0,1-2.6-.23,18.82,18.82,0,0,0-1.93-.18l0,.05s-.08,0-.16-.06a37.52,37.52,0,0,0-4.26,0c-.82.06-1.67.08-2.5.12l-.15.1a.32.32,0,0,0,0-.09c-.62,0-1.24.07-1.88.09.15.25.29.51.44.75.16.08.3.17.45.26l.94,0c8.71-.26,17,0,25.47.15q21.08.32,42.07.66h0c3.4,0,6.94,0,10.18.12h0c1.32,0,2.57,0,3.74.05.28-.19.57-.38.87-.56-2.91,0-5.88,0-8.59,0A45.61,45.61,0,0,1,827,16.75Z"/><path class="cls-1" d="M882.51,21.93h0Z"/><path class="cls-1" d="M829.19,17.46h-.51l-.49,0h0c-4.29,0-8.67.05-12.8-.11-14.79,0-28.92-.46-43.64-.52-4,0-8-.06-11.92-.09h-.69a5.2,5.2,0,0,1,1.79,1.94c1.68,0,3.36,0,5.06,0,1.4-1.38,2-1.38,2.81,0,4.16,0,8.33-.05,12.38.11,2.05.07,4.54.05,6.81.09,1.43,0,4,.05,4,.1.89.51,5.83.53,9.6.7a42.33,42.33,0,0,1,9.15.09c6.5.26,13.61.15,20.4.28,2.88,0,5.72.11,8.55.18a1.77,1.77,0,0,1-.22-.85c-4.42-.08-8.88-.14-13.24-.25-6.89-.18-14.31-.06-20.88-.36h0c-5.3-.18-11.43-.06-16.41-.36h0a80.7,80.7,0,0,1-8.86-.22H780c-2.14,0-4.54.05-6.41-.11l-1.31-.09h0c-2.79-.13-3.46-.26.3-.31,8-.11,15.83.11,23.73.17,2.7,0,5.35.09,8,.14,4.55.08,9.82,0,11.44.6.09,0,1.5,0,2.3.05a18.86,18.86,0,0,1,4.36-.17,42,42,0,0,0,8.41-.11,80.29,80.29,0,0,1,9.31-.23,3.89,3.89,0,0,1,.42-.38c-1.65,0-3.37,0-4.85-.13C833.53,17.55,831.19,17.59,829.19,17.46Z"/><path class="cls-1" d="M1907,64.35h-.07Z"/><path class="cls-1" d="M1871.23,62h0Z"/><path class="cls-1" d="M1896.74,61.88c-1.31-1.51-3.66-2.53-6.17-3.49l-2.49,0h0a109.8,109.8,0,0,1-11.1-.2c-3-.07-5.61-.25-8.4-.38-8.27.18-15.92-.19-24-.22-.4,0-1,0-1.16,0-3-.57-8-.62-13.13-.62a95.7,95.7,0,0,1,9.91,1.42,40,40,0,0,1,7.23.47c12.34.44,25.12.74,37.87,1.05.92,0,1.55.1.85.15a33.11,33.11,0,0,1-4.88,0c-1.71,0-3.51,0-5-.08h0c-1.74-.06-3.77,0-5.45-.12l-.74,0-7.5,0c-5.54,0-11,0-16.44-.08,1.46.37,2.9.76,4.31,1.18l.76,0h0c3.16,0,6.24.05,8.86.23,5.92.12,12.32,0,17.77.34h-.08C1884,61.62,1891.41,61.4,1896.74,61.88Z"/><path class="cls-1" d="M1847.32,58.82l.15,0-.21,0Z"/><path class="cls-1" d="M1905.38,62.06l-4.5-.48.61.54C1902.92,62.12,1904.26,62.11,1905.38,62.06Z"/><path class="cls-1" d="M1907.92,61.7h0c-.83,0-1.7,0-2.48,0-1.39,0-3.14-.09-4.49-.15l-.06,0a27.29,27.29,0,0,1,4.75.47,8,8,0,0,0,2.4-.36h-.11Z"/><path class="cls-1" d="M136.71,38.18h0Z"/><path class="cls-1" d="M1457.4,38.94h.07l0-.07A.43.43,0,0,1,1457.4,38.94Z"/><path class="cls-1" d="M1871.42,66.4h-.14a.3.3,0,0,1-.1,0,1.07,1.07,0,0,0,.24,0Z"/><path class="cls-1" d="M1749.89,60.25c.79.47,1.56.89,2.31,1.34,1.12,0,2.26,0,3.38,0,.75,0,1.49,0,2.23,0,.29-.1.58-.2.84-.31-1.8-.07-3-.2-2.18-.41a15.51,15.51,0,0,1,3.31-.2,4.93,4.93,0,0,0,.53-.36c-3-.05-6.28,0-9.2-.12Z"/><path class="cls-1" d="M1671.85,60.25h-.06Z"/><path class="cls-1" d="M1407.05,27.68a14.94,14.94,0,0,1-7.09.72,3.42,3.42,0,0,1-.46,1.45h6.38l5.11-.06h0C1412.2,27.17,1408.59,27.17,1407.05,27.68Z"/><path class="cls-1" d="M1794.11,58.82c-2.78-.09-5.8-.11-8.76-.14-1.57,0-3.14.09-4.71.12l4.63.05c1.24,0,2.84.06,3.79.06a4.33,4.33,0,0,1,1.44.13c.14.05,0,0,0,0a4,4,0,0,1-1.35.12c-1.28,0-2.88,0-4.14-.06l-4.14,0c1.09.47,5.81.5,9.47.66a42.17,42.17,0,0,1,9.14.1c1.41.05,2.85.08,4.29.11.82-.32,1.64-.61,2.48-.88-4.16,0-8.3-.06-12.15-.24Z"/><path class="cls-1" d="M1792.11,57.34a.76.76,0,0,1,.56.69h.4c4.56.08,9.83,0,11.44.6.1,0,1.51,0,2.31,0,.34,0,.76-.09,1.22-.14,1.43-.4,2.88-.73,4.36-1-2.8,0-5.6,0-8.29-.11C1800.07,57.43,1796.08,57.39,1792.11,57.34Z"/><path class="cls-1" d="M1866.26,63.63h.37l-.32,0Z"/><path class="cls-1" d="M1815.74,56.84c-5.75-.4-13.21-.29-19.49-.53q-.46,0-.9,0h.07c-2.94,0-5.84,0-8.69-.06a1.49,1.49,0,0,0,1.06.63l26.14.41c1-.16,2.06-.27,3.1-.37-.43,0-.87,0-1.29,0Z"/><path class="cls-1" d="M231.74,15.49h0Z"/><path class="cls-1" d="M161.43,22.39c.45,0,.88,0,1.24-.06-.29,0-.63-.06-1-.08A.48.48,0,0,1,161.43,22.39Z"/><path class="cls-1" d="M162.62,20c.11,0,.23-.06.23-.08a3.45,3.45,0,0,0-.72.08Z"/><path class="cls-1" d="M163.33,22.63h0Z"/><path class="cls-1" d="M158.34,19.75h0Z"/><path class="cls-1" d="M145.21,43.82l-.06,0,.51-.06h-.45Z"/><path class="cls-1" d="M253.28,15.84h0Z"/><path class="cls-1" d="M252.08,15.38h0Z"/><path class="cls-1" d="M230.49,19l-.34,0h.36S230.51,19,230.49,19Z"/><path class="cls-1" d="M193.81,19.17h0Z"/><path class="cls-1" d="M140.54,33.34h0Z"/><path class="cls-1" d="M143,29.88h.17l-.2,0Z"/><path class="cls-1" d="M761.35,20.15a5.11,5.11,0,0,1,0,1.24l3.09-1.26c-.7,0-1.4,0-2.06,0Z"/><path class="cls-1" d="M144.29,31.73h0Z"/><path class="cls-1" d="M143.67,27.46l-.1,0,.83,0Z"/><path class="cls-1" d="M144.16,45.08h.24l-.09,0Z"/><path class="cls-1" d="M144.4,29.42h0Z"/><path class="cls-1" d="M158.09,68l.12,0h-.12Z"/><path class="cls-1" d="M711.19,21.08c.43,0,.86,0,1.28-.06a1.48,1.48,0,0,1,.64.14l2.78.07h1.38c2.13,0,4.23,0,6.31,0a1.31,1.31,0,0,1,.56-.66c-9.93-.15-19.89-.24-29.87-.33C699.91,20.54,705.55,20.84,711.19,21.08Z"/><path class="cls-1" d="M682.44,20.12l-4.82,0C679.22,20.14,680.83,20.14,682.44,20.12Z"/><path class="cls-1" d="M546,18.12h0a2.81,2.81,0,0,1-.08-.31C546,17.91,546,18,546,18.12Z"/><path class="cls-1" d="M519.73,18.48h0Z"/><path class="cls-1" d="M727.69,20.62h-.86l.63.68,2.84,0c-.61-.16-1.23-.34-1.95-.58A4.8,4.8,0,0,0,727.69,20.62Z"/><path class="cls-1" d="M750.48,18.69a7.33,7.33,0,0,1-.78-.5,4.15,4.15,0,0,1-2.35-.32,5.23,5.23,0,0,0,3.14-2.43l-4,0a10,10,0,0,1-1,1.88,8.17,8.17,0,0,1,2.32.18,9.21,9.21,0,0,1-2.25.13h-.32c-.74.68-1.68.29-4.14-.77a7.67,7.67,0,0,1,3.17-1.44l-2.25,0c-1.52,0-3,0-4.52-.06a25.51,25.51,0,0,1-.46,3.16c2.76,0,5.59.06,8.31.15C747.11,18.65,748.79,18.68,750.48,18.69Z"/><path class="cls-1" d="M751.55,19.29l-2.26,0c-4.17,0-8.32-.09-12.47-.15a6.78,6.78,0,0,1-.47,1.17h.3a14.21,14.21,0,0,1,8.78.66,4.46,4.46,0,0,1,1.12.47l8.23,0C754.08,20.37,752.83,19.91,751.55,19.29Z"/><path class="cls-1" d="M450.89,18.71h0Z"/><path class="cls-1" d="M741.58,21.48l0,0h0v0Z"/><path class="cls-1" d="M731.89,15.63a3.92,3.92,0,0,1,.15.57,4.59,4.59,0,0,0,.73-.06c.32-.31.64-.61,1-.88h-1.89C731.86,15.39,731.9,15.5,731.89,15.63Z"/><path class="cls-1" d="M434.58,19.51h0c1.56.12,3.13.21,4.94.28.2-.13.4-.27.61-.39A32.06,32.06,0,0,0,434.58,19.51Z"/><path class="cls-1" d="M468.6,17.79h0l.08,0,.15,0Z"/><path class="cls-1" d="M447.15,19.93l4.57,0,11.48-.5q-8.43-.06-16.84-.07A9.09,9.09,0,0,1,447.15,19.93Z"/><path class="cls-1" d="M477.46,18.71l.44,0,0,0Z"/><path class="cls-1" d="M468.6,17.79Z"/><path class="cls-1" d="M503.59,18.14a2,2,0,0,1,.32,0h.18l-.43,0C503.28,18.12,503.51,18.2,503.59,18.14Z"/><path d="M1918.24,61.79l-7.46-.23c-1.21-.15-3.1-.19-4.88-.23-1.39,0-3.13-.14-4.55-.19l.23-.21a7.89,7.89,0,0,0,.73-.42c.84.05,1.92.07,2.83.09l13.1.26v-.6c-3.92-.08-8-.1-11.91-.17-1.08,0-2.33,0-3.35,0a2.75,2.75,0,0,0,.61-.63l1.11,0c3.84-.13,7.07-.12,10.47-.07a4.71,4.71,0,0,0,1.16.16c.56,0,1.21,0,1.91,0V58.39c-.66,0-1.33,0-1.85,0a5,5,0,0,0-.94.09q-5.87-.21-11.87-.39c-1.45-2-9-2.9-12.54-.47-5.13-.16-10.39-.29-15.65-.42h0c-10.9-.45-22.77-.55-34.2-.81h0c-1.53-.06-3-.15-4.59-.18q-23.3-.36-46.69-.66c-.66-.26-2-.77-1.62-1.84,5.39.1,10.58,0,15.47-1.58-1.49-.21-2.9-.49-3-1.6,4.62-.13,10.36,0,14-2.11-8-.94-16.7-.7-24-3.08.81-.11,1.49-.17,2.34-.24a20.78,20.78,0,0,0,5.31-.92c.23-.08.38-.14.33-.31s0-.28-.52-.36a3.35,3.35,0,0,0-1.94.08,16.75,16.75,0,0,1-3.78.59,34.35,34.35,0,0,0-3.77.47c-4.73-.15-14.25,1.84-18.32.52-.31.12-.6.25-.87.38-1.43-.1-2.87-.24-4.17-.25-3,0-6.2.07-9.36.18a5.26,5.26,0,0,0,2.37-2.28h0l6.42-3a2.45,2.45,0,0,0,1.94-2.49h0c3.53-5.44,3.33-5.61-3-5.83-6.68-.23-13.33,1.38-20,.21h-19.58c0-.4,0-.8,0-1.19l16.3-2.08c-1-1.21-1.72-1.68-2.46-1.66-13.4.48-26.81.14-40.22.48-19.68.5-39.39.1-59.08.15-2.22,0-4.61-.51-7.9,1.1,16.78,1,32.53-.94,47.9,2.24a2.57,2.57,0,0,0,1.46-.47c3.16-1.82,6.21-2.74,8.91.57a15.44,15.44,0,0,1,9.77-2c.53.08,1.2-.07,1.61.16a14.15,14.15,0,0,0,13.43.38c2-.88,6.58-.88,5,3.62h0l-6.53.1q-52.89,0-105.76,0c-2.14,0-4.44-.35-6.09,1.34h0l-3.23,0h0c-.92-.43-1.83-1.22-2.75-1.22q-15.35-.13-30.7,0c-.93,0-1.85.78-2.77,1.2h0l-9.76.06h0l-21.4,0h-18.7l-32.31,0h-34.68l2.76-1c1.16-.21,1.42-.8,1.52-1.46h0c2.76-3.18,2.6-3.28-2.37-3.41-5.23-.13-10.43.81-15.65.12h-15.31c0-.23,0-.46,0-.69l12.75-1.22a2.74,2.74,0,0,0-1.93-1c-10.47.28-21,.07-31.44.27-13.11.25-26.25.13-39.38.1,0-.19,0-.38,0-.57l16.31-2.08c-1-1.2-1.72-1.68-2.46-1.65-13.4.48-26.81.13-40.22.47-19.68.5-39.39.11-59.08.16-2.22,0-4.61-.52-7.9,1.09,16.78,1,32.53-.94,47.9,2.25a2.59,2.59,0,0,0,1.46-.48c3.16-1.81,6.21-2.74,8.91.57a15.43,15.43,0,0,1,9.77-2c.53.08,1.2-.06,1.61.16a14.15,14.15,0,0,0,13.43.38c1.64-.73,5-.81,5.29,1.74h-1.82c-1.74,0-3.6-.3-6.18.64,2.7.12,5.35.16,8,.18a4.85,4.85,0,0,1-.22,1.07h0l-6.54.1q-52.87,0-105.75,0c-2.15,0-4.44-.36-6.09,1.34h0l-3.23,0h0c-.91-.43-1.82-1.22-2.74-1.23q-15.35-.13-30.7,0c-.93,0-1.85.78-2.78,1.2h0l-8.75.06c1.44-.42,2.88-.81,4.34-1.18l-.19.2c1.42.46,3.11,1.25,4,.39.61-.59.37-1.07-.19-1.48,1.58-.35,3.16-.7,4.76-1l-6.7,0c-.07-1,.5-2.41-2.57-1.53a3.94,3.94,0,0,0,2.37,1.53c-11.42.05-22.74.12-34-.58h-8.22q-1.63-2.1-3.27,0h0c-1.86.11-3.34-.78-4.94-1.37-1.7-3.28-1.89-3.28-4.94,0l-3.28,1.34c.47-4.21-3.37-5.55-6.75-6.6-2.86-.89-3.41,2.05-5.33,3.05,1.83,1.77,4.37,1.88,5.5,3.59h0l-8.23,0a4.65,4.65,0,0,0-1.12-.46,14.36,14.36,0,0,0-12,.47h0c-14,.29-28-.61-42-1.31-6-.3-12.1.42-18-.33a243.88,243.88,0,0,0-33-2.34l-14-.61c-5.93-.46-13.32-.69-20-1h0l-.45,0-.41-.13v.11c-7.47-.44-15.15-.83-23-1.2a2.25,2.25,0,0,0-.14-.63,2,2,0,0,1-.65.59l-6.7-.31a2.45,2.45,0,0,0,1.15-.72c.61-.7,2-1.19.63-2a1.92,1.92,0,0,0-2.5.56c-.78.77-1.55,1.37-2.83.34-2.23-.23-4.32-.92-6.72,0-2.61,1-3.31-.27-3.56-1.66-.64.35-1.56.61-1.88,1.05a4.39,4.39,0,0,0-.83,1.77L926,18.35c.06-.16.11-.3.18-.46-4.5-1.12-6.87-1.15-7.82.21L912,17.9h0c-8-.39-16.69-.59-25.34-.81h0c-10.91-.44-22.77-.55-34.21-.8h0c-1.53-.06-3-.15-4.59-.18l-4.22-.06A5.14,5.14,0,0,0,846,13.66c-3.72-1.46-3.28.65-3.28,2.37-19-.29-38.06-.58-57.23-.78h0c-6-.21-12.22-.26-18.46-.33.33-.35.58-.68.64-.74.51-1.25.26-1.42-.42-.88a16.31,16.31,0,0,0-1.46,1.42l.33.19-5.65-.08c1.71-1.31,2.39-2.68,1.68-4.79-.6,1.44-3.44,2.11-2.66,4.78l-1.21,0h-.88c-1-1.78-2-3.59-4-4.59a3.32,3.32,0,0,0,.86-.92c.77-1.19,2.59-2,.8-3.42-1.42-1.09-2.44,0-3.19,1-1,1.32-2,2.35-3.62.57-2.86-.38-5.53-1.56-8.61,0-3.33,1.72-4.23-.46-4.54-2.84-.83.59-2,1-2.41,1.8-1.17,2.17-2.09,5,1,6.08,2.23.8,6.49,2.57,7.08-2.43.14-1.18,2.44-2.08,3.13.28.24.85.67,2.45,1.18,1.9,1.48-1.61,3.76-1.14,5.8-1.24a8.46,8.46,0,0,1-.15,4.11c-1.36,0-2.74-.05-4-.05l0-.09L746,15c-2.43,0-4.93,0-7.39,0-.42,0-.87,0-1.29,0a2.69,2.69,0,0,0-3.09-.08h-2.42a6,6,0,0,0-2.57-4.06,1.17,1.17,0,0,0-.2-.06l.69-2.28c-4.06-1.35-6.76-1.77-8.44-1.1a12.52,12.52,0,0,0-3.55-.78c-1.46,2.1,0,2.83,1.51,3.55a12.63,12.63,0,0,0-.16,3c-2.58-.18-5.36-.59-8.55,1.06h-.33c3.9-4.81,3.81-4.9-1.76-7.8-1.77,1.24,4,5-2.24,4.88-1.08,0-.87,1.36-.13,2.21.19.22.38.47.57.7h-2.52l-2.37,0h0c-2.42-.15-5.13-.11-7.8-.09l-4.92,0h0c-2.42-.13-5-.18-7.74-.12h0a38.06,38.06,0,0,1-4,.24c-9.27,0-18.7.12-27.69-.21h0a35.9,35.9,0,0,0-3.88-.14c-3.39,0-6.55,0-9.57.07-.59,0-1.13,0-1.54.05-1.84.06-3.64.14-5.39.24h0c-5.32-.32-11.13-.49-17.52-.48h0c-11.22-.26-22.81-.19-34.16-.33-1.37,0-3.37-.05-3.32.15a13.68,13.68,0,0,0,3.28.19l1.25.24c-11.78.12-23.56.21-35.42.1-1.3-.14-3.12-.2-5-.2-15.24-.05-30.33-.32-45.65-.26-.75,0-1.54-.09-2.24-.08-5.11,0-10.27.06-15.4.09l-1.46-2.13a8.94,8.94,0,0,0-2.82,2.15c-6.2,0-12.38.09-18.6.11-6,0-12,.13-18.07.21-1.3,0-2.8,0-2.63.19a15.82,15.82,0,0,0,3,.15c4.38,0,8.78.12,13.15.1,6.61,0,13.15.32,19.78,0h3.06a1.57,1.57,0,0,0,.07.56c-7.28.09-13.72.27-15.71.51l15.9-.12a1.62,1.62,0,0,0,.2.36c0,.05.08.07.11.11-6.38,0-12.77,0-19.15.07-3,0-6.79.07-6.47.4s4.51.32,7.21.27c10.69-.18,21.42,0,32.11-.09.91,0,1.8.06,2.64,0,6.37.1,12.85,0,19.27.06a6.47,6.47,0,0,0,2.38-.22,12.84,12.84,0,0,0-2.39-.13h0c.59-.18,2.77-.4-1.37-.46l-30.92,0c.35-.16.71-.32,1.05-.49,6.57,0,13.14-.09,19.9-.21-3.51-.2-11.4-.25-19.34-.2l-.24-.35q2,.06,4.2.06c8.37.25,17,.06,25.44.1,4.68,0,8.6,0,10.37.53a40.72,40.72,0,0,0,6.74.35c4.35,0,8.66,0,13,0,5.75,0,9-.19,9.26-.73h0c11.42,0,22.87-.06,34.15.17-3.1.22-6.57.12-9.75.19-1.25,0-2.59.06-2.44.21a11.65,11.65,0,0,0,2.43.13,144.13,144.13,0,0,0,17.09-.36c1.53.64,5.31.7,11.08.62,6.14-.08,12.79-.19,17.76.41,3.38.41,8.51.15,12.93.07,3.77-.08,5.08-.25,4.5-.62-.34-.21,2.43-.13,4-.15,11.61-.09,23,.22,34.63.15,1.71.06,3.4.19,5.14.19,10.67.05,21.29.17,32,.23l.5.64c-2.91,0-5.87,0-8.74-.05-9.49-.27-19.06-.72-29.6-.34-1.4.05-4.24-.19-4.13.15s2.25.32,4.88.33l21.39.11c2.82.17,6,.1,9.05.1h0c2.42.09,5,.11,7.52.1l.44.56c.29-.21.57-.37.86-.55,3.07,0,6.17,0,9.15.08l.85,0a13.14,13.14,0,0,1,1.25,1.38,20.93,20.93,0,0,0-6.23-.14l-13.49,0c-2-.14-4.36-.09-6.6-.1a33.22,33.22,0,0,0-4.75.09c-.55.11.87.13,1.87.14,3.76.17,7.8.09,11.72.11h2.46c3.36.11,5.75.55,10.27.25H722a3.12,3.12,0,0,0,1.42.92c-18-.38-36.32-.6-54.68-.79-15.08-1.76-30.14-2.61-45.33-.69l-.09.18h-.06l.15-.18c-1.72-1.58-4-1.18-6.1-1.2-6.77-.08-13.54-.13-20.31-.19l-3.27,0-47.79.27h0a28.16,28.16,0,0,0-6.29,0H539c-13.73-.26-26.72.38-40.34.28-.72,0-1.54.11-2.31.17h-4.75c-13.14-.62-27.05-.75-40.74-.28-7.25.25-14.25.28-21.55.27-6.31,0-12.6-.07-18.89-.11l-1.31-.1a56.84,56.84,0,0,0-6.06-.24c-3.5,0-7,0-10.48,0a3.85,3.85,0,0,0-2,0c-5.67,0-11.34,0-17,0l-.08-.07a5.83,5.83,0,0,0-.84.07c-4.23,0-8.45,0-12.68,0-4.77-.12-9.59-.11-14.42-.1a3.17,3.17,0,0,0-2-1c-7.11.52-14.45-.51-21.43,1.06q-20.28.11-40.56.21c-2.09,0-5.73.21-6.32-.21h0c2.57-.07,5.24-.12,7.71-.21,3.12-.12,4.75-.32,2.27-.62h0l-2.7-.21c-.77-.16-.35-.21,1.65-.25,3.65-.07,7.68,0,11-.23h0c6.61-.2,13.78-.1,20.35-.32h0c8.15,0,16.2-.18,24.47,0,5.15.09,10.3.1,15.28,0a32.14,32.14,0,0,1,4.2.54c5,1.66,7.12,1.56,8.18-.91h.82c8.39.38,16.49.07,24.7,0,1.78,0,3.4,0,3.45-.26h0c4.71-.39,12.11-.12,17.43-.55-1.33-.06-2-.1-2.77-.12-7.44-.15-15-.23-22.61-.3.62-.21,1.35-1.33.95-1.91-2-2.87-2.82-6.77-7.87-7.22.29,3.21,1.56,6.7-3.29,8.44,3.08,1.46,6.57-2.23,9.74.62,0,0,.09,0,.14.06L380,13.62c-3.62,0-7.94-.06-12,0a22.71,22.71,0,0,0,.52-3.45c-2.08-1.36-3.39-.18-4.71,1.08a3.66,3.66,0,0,1-.73.06,3.47,3.47,0,0,0-.15-.56c.17-2-1-3.48-2.63-4.79-1.58-.62-3.72.19-4.93-1.4a9.57,9.57,0,0,0-6.57-2.82c-2.78,4,4.92,3,3.94,6.54-3.46.42-7.16-1.31-11.7,1.37,4.16-5.13,4.16-5.13-1.53-8.09-1.77,1.23,4,5-2.24,4.87-1.09,0-.88,1.36-.13,2.21,1.09,1.26,2.08,2.58,3.41,4.24,4.6-3.32,8.82-3.46,12.28,1.13,0,0,0,0,.07.06-9.35.11-18.89.09-28,.35-1.08,0-2.66,0-3.65,0-4.33-.24-8.87-.18-13.47-.12l-14.33.17c-12.64.14-25.48.15-37.88.45-9.72-.06-19.19.11-28.72.24-21.75.3-43.22.72-64.66,1.16-2.08,0-4.26,0-6.22.05-30.8.85-61.73,1.67-91.22,2.86-13.41.53-27.23,1-39.49,1.77h0c-11,.33-20.91.82-30,1.48V155h1923ZM505.4,15.94h0Zm37.89-1h0Zm91-.86h0Zm5.3.64h0Zm4,0-.34-.09c1.34-.18,3.51-.1,5.33-.13h8.69c8.52.3,17.53.3,26.47.34,3.69.18,7.69.1,11.56.12h1c2.88.16,6.05.09,9.12.1h1.92l.44.54C686.22,15.37,664.42,15.32,643.58,14.67Zm74.07,1-3.79,0A6.77,6.77,0,0,1,717.65,15.67Zm.42,1.32c-2.23-.15-4.63-.18-7.07-.18a14,14,0,0,1,1.29-.64c2.17,0,4.33,0,6.51,0a7.81,7.81,0,0,1,1.12.78C719.31,17,718.68,17,718.07,17ZM344.39,15.25h0Zm-48.86-.45-.07,0-.37,0ZM277,16h0ZM22.8,23.2h0ZM-.07,43h0Zm2.63,30h0Zm3.8-29.7Zm6.07,26.82h0Zm5.33,8.29Zm0-49Zm2.37-2.74-.11,0h.27Zm1.25-3.79s0,0,0,0h.15Zm1.1,47.52a.75.75,0,0,0-.16,0l.5,0Zm1.57-28h0Zm14,8.85-.11,0,0,0Zm-4.2-7,.44,0h0l-.41,0C33.79,44.28,33.78,44.26,33.82,44.25ZM26.55,73.51h0Zm.81,3.68c.37,0,.88,0,1.36,0,.15,0,.3,0,.44,0Zm2.86-4.6h0Zm1.33-30.27h0Zm2.19,19.81-.14,0h.14ZM36.6,39.19h0Zm.1,30Zm0-6.8Zm-.13-.24c.29,0,.6-.05,1-.1H38A11.67,11.67,0,0,1,36.62,62.1Zm2.52-36h0Zm1,28.09h-.14l-.21,0a5.08,5.08,0,0,1,.71.06Zm9.17,9.92-.12,0h.18Zm1-21s0,0,0,0h0Zm3-18.31h0Zm.1,27.52s0,0,0,0h.29Zm5.92,22.84,0,0h.17ZM62.3,45.06h.64Zm3.58-2.52h0Zm-.26,35.24.14,0h-.14Zm1.16.34h0Zm2.9-36.38h0Zm1.22.82h0ZM77,38.88l.05,0h.27Zm1.34,22.9h0Zm4-23.26h0Zm.8,1.08-.21,0h.7Zm.44-7h0Zm6-2.66h0Zm.28,15.08Zm2.4.47h.19s0,0,0,0ZM93.7,51.3h0Zm.9-2.39-.21,0H95Zm2.89,4.23h0Zm1.28,8.4h0Zm0-29.12h0ZM102.09,53h-.75l1.68,0Zm1.69-24.78-.12,0h.21Zm2.62-7.86c-.15,0-.37.05-.61.07,0,0,0,0,0-.06Zm1.21,11.87h0Zm1.3-.35h0Zm1.09-11h0Zm8.53,17.34h0ZM120.32,34h0Zm2.43-4.61h0Zm2.74,8.6.72-.08h.46C126.34,38,125.93,38,125.49,38Zm4.84,11.33,0,0h0Zm6.38-11.17h0Zm3.83-4.84h0ZM143,29.88l0,0,.2,0Zm.71-2.42h.73l-.83,0Zm.73,2h0Zm-.24,15.66.15,0,.09,0Zm.13-13.35h0Zm1.37,12.08-.51.06.06,0Zm12.68-24.06ZM158.21,68l-.12,0h.12Zm3.22-45.61a.48.48,0,0,0,.27-.14c.34,0,.68,0,1,.08C162.31,22.36,161.88,22.38,161.43,22.39ZM162.62,20h-.49a3.45,3.45,0,0,1,.72-.08S162.73,20,162.62,20Zm.71,2.65h0Zm30.48-3.46h0Zm36.34-.11.34,0s0,0,0,0Zm1.59-3.57h0Zm20.34-.11h0Zm1.2.46h0Zm197.61,2.87h0Zm-11.37,1.08c-1.81-.07-3.38-.16-4.94-.28h0a32.06,32.06,0,0,1,5.55-.11C439.92,19.52,439.72,19.66,439.52,19.79Zm12.2.18-4.57,0a9.09,9.09,0,0,0-.79-.53q8.4,0,16.84.07Zm17-2.16-.08,0h.23Zm8.78.9h.39l0,0Zm26.45-.6a2,2,0,0,0-.32,0c-.08.06-.31,0,.07-.06l.43,0Zm15.82.37h0ZM546,18.12c0-.1,0-.21,0-.31a2.81,2.81,0,0,0,.08.31Zm131.62,2,4.82,0C680.83,20.14,679.22,20.14,677.62,20.08Zm46,1.16c-2.08,0-4.18,0-6.31,0h-1.38l-2.78-.07a1.48,1.48,0,0,0-.64-.14c-.42,0-.85,0-1.28.06-5.64-.24-11.28-.54-16.92-.83,10,.09,19.94.18,29.87.33A1.31,1.31,0,0,0,723.58,21.24Zm3.88.05-.63-.68h.86a4.8,4.8,0,0,1,.66.12c.72.24,1.34.42,1.95.58Zm5.31-5.15a4.59,4.59,0,0,1-.73.06,3.92,3.92,0,0,0-.15-.57c0-.13,0-.24,0-.36h1.89C733.41,15.53,733.09,15.83,732.77,16.14Zm4.69-.86c1.5,0,3,.05,4.52.06l2.25,0a7.67,7.67,0,0,0-3.17,1.44c2.46,1.06,3.4,1.45,4.14.77h.32a9.21,9.21,0,0,0,2.25-.13,8.17,8.17,0,0,0-2.32-.18,10,10,0,0,0,1-1.88l4,0a5.23,5.23,0,0,1-3.14,2.43,4.15,4.15,0,0,0,2.35.32,7.33,7.33,0,0,0,.78.5c-1.69,0-3.37,0-5.17-.1-2.72-.09-5.55-.17-8.31-.15A25.51,25.51,0,0,0,737.46,15.28Zm4.15,6.22,0,0h0v0Zm4.94-.08a4.46,4.46,0,0,0-1.12-.47,14.21,14.21,0,0,0-8.78-.66h-.3a6.78,6.78,0,0,0,.47-1.17c4.15.06,8.3.13,12.47.15l2.26,0c1.28.62,2.53,1.08,3.23,2.15Zm14.81,0a5.11,5.11,0,0,0,0-1.24l1,0c.66,0,1.36,0,2.06,0Zm13.16,0a5.39,5.39,0,0,1-1.52-.13l1.62,0S774.55,21.37,774.52,21.41Zm.76-.73-2.4-.06-2,0-1-.39c2.19,0,4.29.06,6.14.2A1.56,1.56,0,0,0,775.28,20.68Zm1-.27h.14a.69.69,0,0,1,.16.09A1.71,1.71,0,0,0,776.28,20.41Zm1.51,1,0,0,.46,0Zm62.38-3.34a80.29,80.29,0,0,0-9.31.23,42,42,0,0,1-8.41.11,18.86,18.86,0,0,0-4.36.17c-.8,0-2.21,0-2.3-.05-1.62-.56-6.89-.52-11.44-.6-2.67-.05-5.32-.11-8-.14-7.9-.06-15.7-.28-23.73-.17-3.76.05-3.09.18-.3.31h0l1.31.09c1.87.16,4.27.08,6.41.11h.06a80.7,80.7,0,0,0,8.86.22h0c5,.3,11.11.18,16.41.36h0c6.57.3,14,.18,20.88.36,4.36.11,8.82.17,13.24.25a1.77,1.77,0,0,0,.22.85c-2.83-.07-5.67-.13-8.55-.18-6.79-.13-13.9,0-20.4-.28a42.33,42.33,0,0,0-9.15-.09c-3.77-.17-8.71-.19-9.6-.7-.09-.05-2.61-.08-4-.1-2.27,0-4.76,0-6.81-.09-4-.16-8.22-.14-12.38-.11-.84-1.36-1.41-1.36-2.81,0-1.7,0-3.38,0-5.06,0a5.2,5.2,0,0,0-1.79-1.94h.69c4,0,7.94.08,11.92.09,14.72.06,28.85.52,43.64.52,4.13.16,8.51.09,12.8.11h0l.49,0h.51c2,.13,4.34.09,6.55.11,1.48.1,3.2.13,4.85.13A3.89,3.89,0,0,0,840.17,18.08Zm.86-.71c-1.17,0-2.42-.06-3.74-.05h0c-3.24-.15-6.78-.09-10.18-.12h0q-21-.33-42.07-.66c-8.42-.12-16.76-.41-25.47-.15l-.94,0c-.15-.09-.29-.18-.45-.26-.15-.24-.29-.5-.44-.75.64,0,1.26-.06,1.88-.09a.32.32,0,0,1,0,.09l.15-.1c.83,0,1.68-.06,2.5-.12a37.52,37.52,0,0,1,4.26,0c.08,0,.15.07.16.06l0-.05a18.82,18.82,0,0,1,1.93.18,9.32,9.32,0,0,0,2.6.23c4.51,0,8.09.29,12.6.24h0c2.37.13,5,.12,7.59.12h0c4.86.2,10,.24,15.25.23h-.07l.91,0c6.28.24,13.73.12,19.48.53h0a45.61,45.61,0,0,0,6.3,0c2.71.05,5.68,0,8.59,0C841.6,17,841.31,17.18,841,17.37Zm41.68,4.56h0Zm29.75.1h-1.83l-2.32-.21c-5.35-.52-12.9-.28-19.23-.47h.09c-5.46-.32-11.85-.23-17.77-.34-2.63-.18-5.71-.22-8.86-.23h0c-4-.1-8.15-.17-12-.3-2-.07-4.12-.12-6.19-.17l.78-.36-.34-.51c9.61.15,19.3.24,29.16.21h7.5l.74,0c1.68.08,3.71.05,5.46.12h0c1.48.12,3.28.07,5,.08a34.69,34.69,0,0,0,4.89,0c.69-.06.07-.13-.86-.15-12.75-.31-25.53-.62-37.86-1.05l-.16,0h-.05l.21,0a53.47,53.47,0,0,0-10.3-.44c-1.42,0-3,0-4.54,0l-.41-.6c1.32-.05.87-.12-.12-.17l-.45-.66a77,77,0,0,1,11.8.62c.13,0,.76,0,1.16,0,8,0,15.69.4,24,.22,2.78.13,5.44.3,8.4.38a107,107,0,0,0,11.1.19h0c3.53.06,7.18.08,9.8.35-.56.47.55.94,6.82.73.68,0,1.32,0,2-.05a5.05,5.05,0,0,0-.09.72h-.25a29.75,29.75,0,0,0-5.32.16c-.61.25,2.18.3,4.12.35l1.48,0c0,.22,0,.46.05.72l-.77,0c-2.42,0-5.93-.38-6.87-.13-1.1.29,3.48.39,6.41.47.4,0,.83,0,1.26,0,0,0,0,.06,0,.1.21-.05.43-.06.64-.1h.57l.11,0h0C918.52,22,915.65,22,912.46,22Zm26.66-2.47c.52.05.8.11.5.19a4.08,4.08,0,0,1-1.12.09A3.46,3.46,0,0,1,939.12,19.56Zm-2-.78-2.3-.1A1.36,1.36,0,0,1,937.1,18.78Zm-2.55.63c1,0,1.89,0,2.76.05h.11a2.28,2.28,0,0,0,.17.35l-.87,0a20.06,20.06,0,0,0-2.32,0A2.83,2.83,0,0,0,934.55,19.41Zm-.24.45c.35.07,1.21.14,1.72.21h0l-1.4.23-.68,0A1.66,1.66,0,0,0,934.31,19.86Zm-8.67-.6,2.15,0a2.08,2.08,0,0,0,1.31.87c-1.26,0-2.52-.05-3.79-.06ZM946.51,22l-.89-.22a2.58,2.58,0,0,0-2,.23l-4,0-.46,0,.26-.41a19.1,19.1,0,0,0-2.22.33c-4.93-.19-10-.37-15.16-.51l-.57,0c1.06,0,2.13.09,3.25.12.11-.28.23-.57.34-.86,7.91.16,15.82.32,23.39.59h0l.88.07a1.79,1.79,0,0,0,.23.58,9,9,0,0,0,.84-.48l4.64.37h.05l2.28.16Zm45.74,1.58,0,0,.15-.19h0Zm118.33,2.72h0v0Zm272,1.21a6,6,0,0,1,2.83-.17C1384.45,27.45,1383.51,27.51,1382.56,27.55ZM1411,29.8h0l-5.11.06h-6.38a3.42,3.42,0,0,0,.46-1.45,14.94,14.94,0,0,0,7.09-.72C1408.59,27.17,1412.2,27.17,1411,29.8Zm46.48,9.14h-.07a.43.43,0,0,0,0-.07l0,.07Zm214.38,21.31-.06,0h.06Zm87.93.42a15.51,15.51,0,0,0-3.31.2c-.82.21.38.34,2.18.41-.26.11-.55.21-.84.31-.74,0-1.48,0-2.23,0-1.12,0-2.26,0-3.38,0-.75-.45-1.52-.87-2.31-1.34l1.22-.06c2.92.09,6.16.07,9.2.12A4.93,4.93,0,0,1,1759.78,60.67Zm44-.73c-1.44,0-2.88-.06-4.29-.11a42.17,42.17,0,0,0-9.14-.1c-3.66-.16-8.38-.19-9.47-.66l4.14,0c1.26,0,2.86.06,4.14.06a4,4,0,0,0,1.35-.12s.12,0,0,0a4.33,4.33,0,0,0-1.44-.13c-1,0-2.55,0-3.79-.06l-4.63-.05c1.57,0,3.14-.08,4.71-.12,3,0,6,0,8.76.14h0c3.85.18,8,.21,12.15.24C1805.43,59.33,1804.61,59.62,1803.79,59.94Zm4.25-1.4c-.46.05-.88.09-1.22.14-.8,0-2.21,0-2.31,0-1.61-.56-6.88-.52-11.44-.6h-.4a.76.76,0,0,0-.56-.69c4,0,8,.09,12,.09,2.69.11,5.49.11,8.29.11C1810.92,57.81,1809.47,58.14,1808,58.54Zm5.89-1.28-26.14-.41a1.49,1.49,0,0,1-1.06-.63c2.85,0,5.75.07,8.69.06h-.07q.44,0,.9,0c6.28.24,13.74.13,19.49.53h0c.42,0,.86,0,1.29,0C1816,57,1815,57.1,1813.93,57.26Zm52.33,6.37,0,0,.32,0Zm4.92,2.81a.3.3,0,0,0,.1,0h.14A1.07,1.07,0,0,1,1871.18,66.44Zm.25-4.41h0Zm6.38-.59h.08c-5.45-.32-11.85-.22-17.77-.34-2.62-.18-5.7-.22-8.86-.23h0l-.76,0c-1.41-.42-2.85-.81-4.31-1.18,5.45,0,10.9.09,16.44.08l7.5,0,.74,0c1.68.08,3.71.06,5.45.12h0c1.47.12,3.27.07,5,.08a33.11,33.11,0,0,0,4.88,0c.7-.05.07-.13-.85-.15-12.75-.31-25.53-.61-37.87-1.05l-.15,0h-.06l.21,0a40,40,0,0,0-7.23-.47,95.7,95.7,0,0,0-9.91-1.42c5.13,0,10.09.05,13.13.62.13,0,.76,0,1.16,0,8,0,15.69.4,24,.22,2.79.13,5.44.31,8.4.38a109.8,109.8,0,0,0,11.1.2h0l2.49,0c2.51,1,4.86,2,6.17,3.49-5.33-.48-12.72-.26-18.93-.44ZM1907,64.35l-.07,0h.07Zm-1.32-2.3a27.29,27.29,0,0,0-4.75-.47l4.5.48c-1.12,0-2.46.06-3.89.06l-.61-.54.06,0c1.35.06,3.1.11,4.49.15.78,0,1.65,0,2.48,0h.12A8,8,0,0,1,1905.63,62.05Z"/></svg>