<?xml version="1.0" encoding="utf-8"?>
<!-- Generator: Adobe Illustrator 24.2.3, SVG Export Plug-In . SVG Version: 6.00 Build 0)  -->
<svg version="1.1" id="Layer_1" xmlns="http://www.w3.org/2000/svg" xmlns:xlink="http://www.w3.org/1999/xlink" x="0px" y="0px"
	 viewBox="0 0 1920 155" style="enable-background:new 0 0 1920 155;" xml:space="preserve">
<style type="text/css">
	.st0{fill:#D8CCB1;}
</style>
<path class="st0" d="M1821.2,61.5L1821.2,61.5z"/>
<path class="st0" d="M1818.7,53h-1.7h0.9H1818.7z"/>
<path class="st0" d="M1822.5,53.1L1822.5,53.1z"/>
<path class="st0" d="M1821.2,32.4L1821.2,32.4z"/>
<path class="st0" d="M1825,48.9h0.4h0.2H1825z"/>
<path class="st0" d="M1826.3,51.3L1826.3,51.3z"/>
<path class="st0" d="M1812.4,32.2L1812.4,32.2z"/>
<path class="st0" d="M1816.3,28.2h-0.2H1816.3L1816.3,28.2z"/>
<path class="st0" d="M1801.5,38.1L1801.5,38.1z"/>
<path class="st0" d="M1811.1,31.8L1811.1,31.8z"/>
<path class="st0" d="M1810,20.8L1810,20.8z"/>
<path class="st0" d="M1814.1,20.3h-0.6C1813.7,20.4,1813.9,20.4,1814.1,20.3C1814.2,20.3,1814.2,20.3,1814.1,20.3L1814.1,20.3z"/>
<path class="st0" d="M1827.5,45.5L1827.5,45.5h0.2H1827.5L1827.5,45.5z"/>
<path class="st0" d="M1830.1,45.1"/>
<path class="st0" d="M1850.3,41.7"/>
<path class="st0" d="M1853.2,78.1L1853.2,78.1z"/>
<path class="st0" d="M1849,42.5L1849,42.5z"/>
<path class="st0" d="M1854.2,77.8L1854.2,77.8L1854.2,77.8z"/>
<path class="st0" d="M1854.1,42.5L1854.1,42.5z"/>
<path class="st0" d="M1842.7,38.8h0.3h-0.1H1842.7z"/>
<path class="st0" d="M1836.4,32.7L1836.4,32.7z"/>
<path class="st0" d="M1841.7,61.8L1841.7,61.8z"/>
<path class="st0" d="M1857,45.1h0.6H1857z"/>
<path class="st0" d="M1830.4,30L1830.4,30z"/>
<path class="st0" d="M1837.7,38.5L1837.7,38.5z"/>
<path class="st0" d="M1837.1,39.5h-0.7h0.5H1837.1z"/>
<path class="st0" d="M1799.7,34L1799.7,34z"/>
<path class="st0" d="M1726.2,19.2L1726.2,19.2z"/>
<path class="st0" d="M1451.2,17.8L1451.2,17.8h0.2l0,0H1451.2z"/>
<path class="st0" d="M1756.7,22.6L1756.7,22.6z"/>
<path class="st0" d="M1758.3,22.2c-0.4,0-0.7,0.1-1,0.1c0.4,0.1,0.8,0.1,1.2,0.1C1758.5,22.4,1758.4,22.3,1758.3,22.2z"/>
<path class="st0" d="M1757.9,20c-0.2-0.1-0.5-0.1-0.7-0.1c0,0,0.1,0.1,0.2,0.1H1757.9z"/>
<path class="st0" d="M1689.5,19h0.4H1689.5L1689.5,19z"/>
<path class="st0" d="M1688.2,15.5L1688.2,15.5z"/>
<path class="st0" d="M1479.9,19.4c0.2,0.1,0.4,0.3,0.6,0.4c1.8-0.1,3.4-0.2,4.9-0.3l0,0C1483.6,19.3,1481.7,19.3,1479.9,19.4z"/>
<path class="st0" d="M1797.2,29.4L1797.2,29.4z"/>
<path class="st0" d="M1469.1,18.7L1469.1,18.7z"/>
<path class="st0" d="M1667.9,15.4L1667.9,15.4z"/>
<path class="st0" d="M1666.7,15.8L1666.7,15.8z"/>
<path class="st0" d="M1473.6,19.4c-5.6,0-11.2,0-16.8,0.1l11.5,0.5h4.6C1473.1,19.7,1473.4,19.5,1473.6,19.4z"/>
<path class="st0" d="M1783.3,38.2L1783.3,38.2z"/>
<path class="st0" d="M1779.4,33.3L1779.4,33.3z"/>
<path class="st0" d="M1777,29.9h-0.2H1777L1777,29.9z"/>
<path class="st0" d="M1789.7,49.3L1789.7,49.3z"/>
<path class="st0" d="M1761.8,68L1761.8,68L1761.8,68z"/>
<path class="st0" d="M1793.8,37.9h-0.5c0.3,0.1,0.7,0.1,1.2,0.1L1793.8,37.9z"/>
<path class="st0" d="M1775.6,27.5h0.8h-0.1H1775.6z"/>
<path class="st0" d="M1775.6,29.4L1775.6,29.4z"/>
<path class="st0" d="M1761.7,19.8L1761.7,19.8z"/>
<path class="st0" d="M1774.8,43.8h-0.5H1774.8L1774.8,43.8L1774.8,43.8z"/>
<path class="st0" d="M1775.7,31.7L1775.7,31.7z"/>
<path class="st0" d="M1775.7,45.1L1775.7,45.1h0.2H1775.7z"/>
<path class="st0" d="M1202.3,15.6h3.8C1204.9,15.3,1203.6,15.3,1202.3,15.6z"/>
<path class="st0" d="M1575.5,15.3L1575.5,15.3z"/>
<path class="st0" d="M1201.2,16.2c-0.4,0.2-0.8,0.5-1.1,0.8c0.6,0,1.2,0,1.8,0c2.2-0.2,4.6-0.2,7.1-0.2c-0.4-0.2-0.8-0.4-1.3-0.6
	C1205.5,16.2,1203.4,16.2,1201.2,16.2z"/>
<path class="st0" d="M1902.2,78.5L1902.2,78.5L1902.2,78.5z"/>
<path class="st0" d="M1280.4,14.7L1280.4,14.7z"/>
<path class="st0" d="M1285.7,14.1L1285.7,14.1z"/>
<path class="st0" d="M1917.4,73.1L1917.4,73.1L1917.4,73.1z"/>
<path class="st0" d="M1913.6,43.3L1913.6,43.3L1913.6,43.3z"/>
<path class="st0" d="M1376.7,14.9L1376.7,14.9z"/>
<path class="st0" d="M1907.6,70.2L1907.6,70.2z"/>
<path class="st0" d="M1920.1,43L1920.1,43z"/>
<path class="st0" d="M1624.5,14.8h0.4H1624.5L1624.5,14.8z"/>
<path class="st0" d="M1643,16L1643,16z"/>
<path class="st0" d="M1212.7,15l-0.4,0.5c21.5-0.2,43.3-0.2,64.2-0.9l0.3-0.1c-1.3-0.1-3.5-0.1-5.3-0.1h-8.7
	c-8.5,0.3-17.5,0.3-26.5,0.3c-3.7,0.2-7.7,0.1-11.6,0.1h-1c-2.9,0.2-6,0.1-9.1,0.1l0,0L1212.7,15z"/>
<path class="st0" d="M1414.6,15.9L1414.6,15.9z"/>
<path class="st0" d="M1880.2,54.1c-0.2,0-0.5,0-0.7,0.1h0.5L1880.2,54.1z"/>
<path class="st0" d="M1883.4,39.2L1883.4,39.2z"/>
<path class="st0" d="M1888.4,42.3L1888.4,42.3z"/>
<path class="st0" d="M1886.4,62.1L1886.4,62.1L1886.4,62.1z"/>
<path class="st0" d="M1889.8,72.6L1889.8,72.6z"/>
<path class="st0" d="M1893.4,73.5L1893.4,73.5z"/>
<path class="st0" d="M1891.3,77.2c-0.2,0-0.3,0-0.4,0h1.8C1892.3,77.2,1891.8,77.2,1891.3,77.2z"/>
<path class="st0" d="M1886.2,44.3L1886.2,44.3h-0.4l0,0H1886.2z"/>
<path class="st0" d="M1880.8,26.1L1880.8,26.1z"/>
<path class="st0" d="M1882.4,62h-0.4c0.5,0.1,0.9,0.1,1.4,0.1C1883.1,62.1,1882.8,62,1882.4,62z"/>
<path class="st0" d="M1883.2,62.3L1883.2,62.3z"/>
<path class="st0" d="M1883.3,69.1L1883.3,69.1z"/>
<path class="st0" d="M1866.2,52.3h0.3l0,0H1866.2z"/>
<path class="st0" d="M1897.2,23.2"/>
<path class="st0" d="M1897.7,70.4h-0.5h0.3C1897.6,70.4,1897.6,70.4,1897.7,70.4z"/>
<path class="st0" d="M1898.6,22.9h-0.2H1898.6L1898.6,22.9z"/>
<path class="st0" d="M1895.9,42.4L1895.9,42.4z"/>
<path class="st0" d="M1900,26.7h-0.3h0.2H1900z"/>
<path class="st0" d="M1902.2,29.4"/>
<path class="st0" d="M1902.4,78.5L1902.4,78.5z"/>
<path class="st0" d="M1869.6,43.1L1869.6,43.1L1869.6,43.1z"/>
<path class="st0" d="M1870.6,64.1L1870.6,64.1L1870.6,64.1L1870.6,64.1z"/>
<path class="st0" d="M1866.6,24.8L1866.6,24.8z"/>
<path class="st0" d="M1860.6,75.1L1860.6,75.1h-0.2H1860.6z"/>
<path class="st0" d="M1882.1,51.3L1882.1,51.3L1882.1,51.3L1882.1,51.3z"/>
<path class="st0" d="M53.7,63.6h-0.3H53.7L53.7,63.6z"/>
<path class="st0" d="M48.8,66.4C48.8,66.4,48.7,66.4,48.8,66.4h-0.2C48.6,66.4,48.7,66.4,48.8,66.4z"/>
<path class="st0" d="M104.2,56.9c-0.4,0-0.9,0-1.3,0c1,0.1,2.1,0.2,3.1,0.4l26.1-0.4c0.4,0,0.8-0.3,1.1-0.6
	c-2.8,0.1-5.7,0.1-8.7,0.1h0.1c-0.3,0-0.6,0-0.9,0C117.5,56.5,110,56.4,104.2,56.9L104.2,56.9z"/>
<path class="st0" d="M115.9,57.4c-2.7,0.1-5.5,0.1-8.3,0.1c1.5,0.3,2.9,0.6,4.4,1c0.5,0,0.9,0.1,1.2,0.1c0.8,0,2.2,0,2.3,0
	c1.6-0.6,6.9-0.5,11.4-0.6h0.4c0-0.3,0.2-0.6,0.6-0.7C123.9,57.4,119.9,57.4,115.9,57.4z"/>
<path class="st0" d="M23.3,62c5.3-0.4,12.7-0.3,18.9-0.4h-0.1c5.5-0.3,11.8-0.2,17.8-0.3c2.6-0.2,5.7-0.2,8.9-0.2l0,0h0.8
	c1.4-0.4,2.9-0.8,4.3-1.2C68.5,60,63,60,57.5,60H50h-0.7c-1.7,0.1-3.7,0.1-5.4,0.1l0,0c-1.5,0.1-3.3,0.1-5,0.1
	c-1.6,0.1-3.3,0.1-4.9,0c-0.7-0.1-0.1-0.2,0.8-0.2c12.8-0.3,25.5-0.6,37.9-1c2.4-0.4,4.8-0.5,7.2-0.5c3.3-0.6,6.6-1.1,9.9-1.4
	c-5.1,0-10.1,0-13.1,0.6c-0.2,0-0.8,0-1.2,0c-8.1,0-15.7,0.4-24,0.2c-2.8,0.1-5.4,0.3-8.4,0.4c-3.7,0.3-7.4,0.3-11.1,0.2l0,0h-2.5
	C26.9,59.3,24.6,60.4,23.3,62z M36.2,60.7c0.6,0,1.2-0.2,2.1-0.2c6.2-0.2,12.4-0.3,18.6-0.5c0.9,0,1.8,0,2.6,0.1
	c0.6,0.2-0.9,0.2-2,0.2c-6.4,0.2-12.9,0.3-19.3,0.5C37,60.9,36.1,60.9,36.2,60.7z"/>
<path class="st0" d="M72.7,58.8h-0.2H72.7L72.7,58.8z"/>
<path class="st0" d="M48.8,62L48.8,62z"/>
<path class="st0" d="M1451.4,17.8"/>
<path class="st0" d="M13.1,64.3L13.1,64.3L13.1,64.3z"/>
<path class="st0" d="M18.5,62.1l0.6-0.5l-4.5,0.5C15.7,62.1,17.1,62.1,18.5,62.1z"/>
<path class="st0" d="M17,60.1c-0.2-0.2-0.4-0.4-0.6-0.6h-1.1c-3.8-0.1-7.1-0.1-10.5-0.1c-0.4,0.1-0.8,0.2-1.2,0.2
	c-0.7,0-1.5,0-2.4,0s-2.4-0.1-3.4,0c-0.7,0-1.3,0.1-1.9,0.3c0.4,0,0.8,0,1.2,0.1c-0.6,0.1-1.2,0.2-1.9,0.3l0,0l1.4,0.2
	c5.4-0.2,11.3-0.2,17-0.3C14.7,60.1,16,60.1,17,60.1z"/>
<path class="st0" d="M12.1,61.7H12c0.8,0.2,1.6,0.4,2.4,0.4c1.6-0.3,3.2-0.5,4.8-0.5H19c-1.3,0.1-3.1,0.2-4.5,0.2
	C13.8,61.7,12.9,61.7,12.1,61.7L12.1,61.7L12.1,61.7z"/>
<path class="st0" d="M1143.4,20.5c0.1,0,0.2-0.1,0.3-0.1h-0.1C1143.5,20.4,1143.5,20.5,1143.4,20.5z"/>
<path class="st0" d="M1147,21.3h-1.6l0.1,0.1C1146,21.5,1146.5,21.4,1147,21.3z"/>
<path class="st0" d="M1150,20.1c-2.2,0-4.3,0.1-6.1,0.2c0.3,0,0.6,0.1,0.8,0.3l2.4-0.1h2L1150,20.1z"/>
<path class="st0" d="M1157.6,20.1c-0.7,0-1.4,0-2.1,0l3.1,1.3c-0.1-0.4-0.1-0.8,0-1.2L1157.6,20.1z"/>
<path class="st0" d="M1165.2,21.4h8.2c0.4-0.2,0.7-0.4,1.1-0.5c2.8-1.1,5.9-1.4,8.8-0.7h0.3c-0.2-0.4-0.3-0.8-0.5-1.2
	c-4.1,0.1-8.3,0.1-12.5,0.1h-2.3C1167.2,19.9,1165.9,20.4,1165.2,21.4z"/>
<path class="st0" d="M1142.2,21.4h-0.5H1142.2L1142.2,21.4z"/>
<path class="st0" d="M1037.5,21.9L1037.5,21.9z"/>
<path class="st0" d="M1086.7,16.9c-2.7,0-5.7,0-8.6,0c0.3,0.2,0.6,0.4,0.9,0.6c1.2,0,2.4,0,3.7,0l0,0c3.2-0.1,6.8-0.1,10.2-0.1l0,0
	c14-0.2,28-0.4,42.1-0.7c8.5-0.1,16.8-0.4,25.5-0.1h0.9c0.2-0.1,0.3-0.2,0.5-0.3c0.2-0.2,0.3-0.5,0.4-0.8c-0.6,0-1.3-0.1-1.9-0.1
	v0.1l-0.2-0.1c-0.8,0-1.7-0.1-2.5-0.1c-1.4-0.1-2.8-0.1-4.3,0c-0.1,0.1-0.2,0.1-0.2,0.1v-0.1c-0.6,0-1.3,0.1-1.9,0.2
	c-0.9,0.2-1.7,0.3-2.6,0.2l0,0c-4.5-0.1-8.1,0.3-12.6,0.2l0,0c-2.4,0.1-5,0.1-7.6,0.1l0,0c-4.9,0.2-10,0.2-15.2,0.2h0.1h-0.9
	c-6.3,0.2-13.7,0.1-19.5,0.5l0,0C1090.9,16.9,1088.8,17,1086.7,16.9z"/>
<path class="st0" d="M1178.4,21.5L1178.4,21.5L1178.4,21.5L1178.4,21.5z"/>
<path class="st0" d="M1084.3,17.6c-1.5,0.1-3.2,0.1-4.8,0.1c0.1,0.1,0.3,0.2,0.4,0.4c3.1-0.1,6.2,0,9.3,0.2c2.8,0.3,5.6,0.4,8.4,0.1
	c1.5-0.1,2.9-0.1,4.4,0.2c0.8,0,2.2,0,2.3,0c1.6-0.6,6.9-0.5,11.4-0.6c2.7,0,5.3-0.1,8-0.1c7.9-0.1,15.7-0.3,23.7-0.2
	c3.8,0,3.1,0.2,0.3,0.3l0,0l-1.3,0.1c-1.9,0.2-4.3,0.1-6.4,0.1h-0.1c-2.9,0.2-5.9,0.3-8.9,0.2l0,0c-5,0.3-11.1,0.2-16.4,0.4l0,0
	c-6.6,0.3-14,0.2-20.9,0.4c-4.4,0.1-8.8,0.2-13.2,0.2c0,0.3-0.1,0.6-0.2,0.9c2.8-0.1,5.7-0.2,8.6-0.2c6.8-0.1,13.9,0,20.4-0.3
	c3-0.4,6.1-0.4,9.2-0.1c3.8-0.2,8.7-0.2,9.6-0.7c0-0.1,2.6-0.1,4-0.1c2.3,0,4.8,0,6.8-0.1c4.1-0.2,8.2-0.1,12.4-0.1
	c0.8-1.4,1.4-1.4,2.8,0c1.7,0,3.4,0,5.1,0c0.4-0.8,1-1.5,1.8-1.9h-0.7c-3.9,0-7.9,0.1-11.9,0.1c-14.7,0.1-28.9,0.5-43.6,0.5
	c-4.1,0.2-8.5,0.1-12.8,0.1l0,0h-0.5h-0.5C1088.8,17.6,1086.5,17.5,1084.3,17.6z"/>
<path class="st0" d="M1174.6,18.7c2.7-0.1,5.6-0.1,8.3-0.1c-0.2-1-0.4-2.1-0.5-3.2c-1.5,0.1-3,0.1-4.5,0.1h-2.2
	c1.2,0.2,2.2,0.7,3.2,1.4c-2.5,1.1-3.4,1.5-4.1,0.8h-0.3c-0.8,0-1.5,0-2.2-0.1c0.8-0.2,1.5-0.2,2.3-0.2c-0.4-0.6-0.7-1.2-1-1.9h-4
	c0.7,1.2,1.8,2.1,3.1,2.4c-0.7,0.3-1.6,0.4-2.3,0.3c-0.2,0.2-0.5,0.3-0.8,0.5C1171.2,18.7,1172.9,18.6,1174.6,18.7z"/>
<path class="st0" d="M1374.1,17.8c0,0.1,0,0.2-0.1,0.3l0,0C1374,18,1374,17.9,1374.1,17.8z"/>
<path class="st0" d="M1400.3,18.5L1400.3,18.5z"/>
<path class="st0" d="M116.2,60c1.4,0,2.9-0.1,4.3-0.1c3-0.4,6.1-0.4,9.1-0.1c3.7-0.2,8.4-0.2,9.5-0.7H135c-1.3,0.1-2.9,0.1-4.1,0.1
	c-0.5,0-0.9,0-1.3-0.1c0,0-0.1,0,0,0c0.5-0.1,1-0.2,1.4-0.1c1,0,2.6-0.1,3.8-0.1h4.6c-1.6,0-3.1-0.1-4.7-0.1c-3,0-6,0-8.8,0.1l0,0
	c-3.8,0.2-8,0.2-12.2,0.2C114.6,59.3,115.4,59.6,116.2,60z"/>
<path class="st0" d="M1416.3,18.1h-0.4h0.2C1416.2,18.1,1416.3,18.1,1416.3,18.1C1416.5,18.2,1416.7,18.1,1416.3,18.1z"/>
<path class="st0" d="M1061.4,18.7h-0.2H1061.4L1061.4,18.7z"/>
<path class="st0" d="M1242.4,20.1h-4.8C1239.2,20.1,1240.8,20.1,1242.4,20.1z"/>
<path class="st0" d="M1191.6,20.7c-0.7,0.2-1.3,0.4-1.9,0.6h2.8l0.6-0.7h-0.9C1192.1,20.6,1191.9,20.7,1191.6,20.7z"/>
<path class="st0" d="M1188.1,15.3h-1.9c0.4,0.3,0.7,0.6,1,0.9c0.2,0,0.5,0.1,0.7,0.1c0-0.2,0.1-0.4,0.2-0.6
	C1188.1,15.5,1188.1,15.4,1188.1,15.3z"/>
<path class="st0" d="M1225.7,20.2c-10,0.1-19.9,0.2-29.9,0.3c0.3,0.2,0.5,0.4,0.6,0.7c2.1,0,4.2,0,6.3,0h1.4l2.8-0.1
	c0.2-0.1,0.4-0.1,0.6-0.1c0.4,0.1,0.9,0.1,1.3,0.1C1214.4,20.8,1220.1,20.5,1225.7,20.2z"/>
<path class="st0" d="M462.5,38.9L462.5,38.9L462.5,38.9z"/>
<path class="st0" d="M534.6,27.4c0.9,0.1,1.8,0.2,2.8,0.2C536.5,27.3,535.5,27.2,534.6,27.4z"/>
<path class="st0" d="M509,29.8L509,29.8l5.1,0.1h6.4c-0.3-0.4-0.4-0.9-0.5-1.5c-2.4,0.3-4.8,0.1-7.1-0.7
	C511.4,27.2,507.8,27.2,509,29.8z"/>
<path class="st0" d="M809.4,26.3L809.4,26.3L809.4,26.3z"/>
<path class="st0" d="M927.7,23.4L927.7,23.4l0.1,0.2l0,0L927.7,23.4z"/>
<path class="st0" d="M168.9,60.2c-2.9,0.1-6.2,0.1-9.2,0.1c0.2,0.1,0.3,0.3,0.5,0.4c1.1-0.1,2.2,0,3.3,0.2c0.8,0.2-0.4,0.3-2.2,0.4
	c0.3,0.1,0.5,0.2,0.8,0.3c0.7,0,1.5,0,2.2,0c1.1,0,2.3,0,3.4,0c0.8-0.5,1.5-0.9,2.3-1.3L168.9,60.2z"/>
<path class="st0" d="M248.2,60.2L248.2,60.2L248.2,60.2z"/>
<path class="st0" d="M1442.1,18.7L1442.1,18.7h0.4H1442.1z"/>
<path class="st0" d="M984.7,18.3c-0.7-0.4-1.5-0.1-1.9,0.5l2.3-0.1C985.1,18.5,984.9,18.4,984.7,18.3z"/>
<path class="st0" d="M985.6,19.7c-0.1-0.1-0.1-0.2-0.2-0.4c-1,0-1.9,0-2.8,0h-0.1c0,0.1-0.1,0.2-0.2,0.4h0.9
	C984,19.7,984.8,19.7,985.6,19.7z"/>
<path class="st0" d="M1000.8,21.7L1000.8,21.7c0.8,0.4,3.7,0.4,6.8,0.4h1.8l2.3-0.2c5.3-0.5,12.9-0.3,19.2-0.5h-0.1
	c5.5-0.3,11.8-0.2,17.8-0.3c2.6-0.2,5.7-0.2,8.9-0.2l0,0c4-0.1,8.1-0.2,12-0.3c2-0.1,4.1-0.1,6.2-0.2l-0.8-0.4l0.3-0.5
	c-9.6,0.1-19.3,0.2-29.2,0.2h-7.5h-0.7c-1.7,0.1-3.7,0.1-5.5,0.1l0,0c-1.5,0.1-3.3,0.1-5,0.1c-1.6,0.1-3.3,0.1-4.9,0
	c-0.7-0.1-0.1-0.1,0.9-0.1c12.8-0.3,25.5-0.6,37.9-1c3.4-0.5,6.9-0.6,10.3-0.4c1.4,0,3,0,4.5,0l0.4-0.6c-1.3,0-0.9-0.1,0.1-0.2
	l0.5-0.7c-3.9-0.1-7.9,0.1-11.8,0.6c-0.2,0-0.8,0-1.2,0c-8.1,0-15.7,0.4-24,0.2c-2.8,0.1-5.4,0.3-8.4,0.4c-3.7,0.3-7.4,0.3-11.1,0.2
	l0,0c-3.5,0.1-7.2,0.1-9.8,0.4c0.6,0.5-0.5,0.9-6.8,0.7c-0.7,0-1.3,0-2,0c0,0.2,0.1,0.5,0.1,0.7h0.2c1.8-0.1,3.6-0.1,5.3,0.2
	c0.6,0.2-2.2,0.3-4.1,0.4h-1.5c0,0.2,0,0.5,0,0.7h0.8c2.4,0,5.9-0.4,6.9-0.1c1.1,0.3-3.5,0.4-6.4,0.5c-0.4,0-0.8,0-1.3,0v0.1
	c-0.2-0.1-0.4-0.1-0.6-0.1L1000.8,21.7L1000.8,21.7z M1024.8,20.6c0.6,0,1.2-0.2,2.1-0.2c6.2-0.2,12.4-0.3,18.6-0.5
	c0.9,0,1.8,0,2.6,0.1c0.6,0.2-0.8,0.2-1.9,0.2l-19.3,0.5C1025.8,20.8,1024.8,20.8,1024.8,20.6z"/>
<path class="st0" d="M980.4,19.8c0.4,0.1,0.7,0.1,1.1,0.1c-0.2-0.1-0.4-0.2-0.6-0.3C980.3,19.6,980.1,19.7,980.4,19.8z"/>
<path class="st0" d="M964.9,21.8l-2.3,0.2h10.8l0.9-0.2c0.7-0.2,1.4-0.1,2,0.2h4h0.5l-0.3-0.4c0.7,0.1,1.5,0.2,2.2,0.3
	c4.9-0.2,10-0.4,15.2-0.5h0.6c-1.1,0-2.1,0.1-3.2,0.1c-0.1-0.3-0.2-0.6-0.3-0.9c-7.9,0.2-15.8,0.3-23.4,0.6l0,0l-0.9,0.1
	c0,0.2-0.1,0.4-0.2,0.6c-0.3-0.1-0.6-0.3-0.8-0.5L964.9,21.8L964.9,21.8L964.9,21.8z"/>
<path class="st0" d="M985.4,20.3h0.7c-0.1-0.1-0.3-0.3-0.4-0.4c-0.3,0.1-1.2,0.1-1.7,0.2l0,0L985.4,20.3z"/>
<path class="st0" d="M990.9,20.2c1.3-0.1,2.5-0.1,3.8-0.1l-0.3-0.8h-2.2C991.9,19.8,991.4,20.1,990.9,20.2z"/>
<path class="st0" d="M56.1,49.9c-11.7-3.6-24.4-3.3-37-2.1l0.2,0.2c-1.4-0.1-2.7-0.2-4.1-0.2c-0.2,0-0.3,0.1-0.7,0l-0.2-0.1
	c-0.7-0.4-6.3-1.2-7.4,0.1C6.7,48,7,48,7,48c-0.8,0.7-1.6,0.2-2.7,0.6S3.9,50,4.1,50.4s0.8,0.8,0.4,1.1c-0.9,0.2-1.9,0.3-2.8,0.2
	c-0.7,0-1.8,0.3-1.9,0.6v0.1l0,0C0,52.9,0.9,53,1.7,53c2,0.1,3.9-0.1,5.8-0.5c0.1,0,0.3-0.1,0.4-0.2c1-0.7,0.5-1.3,0-2.1
	c-0.1-0.2-0.3-0.4-0.4-0.7c1.3,0.2,3.2,0.2,4.1,0.9c1.9-0.2,1.7-1.3,3.5-1.6c0.1,0,0-0.1,0.4,0s1.6-0.3,2.5,0.2
	c2.6,1.3,4.6,3.3-0.1,4C28.1,54.5,52.6,58.7,56.1,49.9z"/>
<path class="st0" d="M118.4,37.5c2.9-0.7,4.3-1.9,7.6-2.2c-1.2-0.5-1.7-1.2-1.7-2.1c-8.7-0.6-16.8-0.2-22.8,4.3
	C107.2,38.7,112.6,36.2,118.4,37.5z"/>
<path class="st0" d="M582.6,27h9.7C589.1,26,585.8,26.5,582.6,27z"/>
<path class="st0" d="M779.4,23.2c-0.1-0.4-0.7-0.6-1.3-0.6c-0.8,0.2-1.4,0.8-1.3,1.2s0.7,0.6,1.3,0.5
	C778.9,24.2,779.6,23.9,779.4,23.2z"/>
<path class="st0" d="M780.2,18.1h2.6c-0.1-0.8-0.2-1.8-1.5-1.8C779.5,16.3,780.5,17.4,780.2,18.1z"/>
<path class="st0" d="M600.2,26.6c-0.3-0.1-0.7-0.2-1-0.3c-0.6,0-1.3-0.1-1.7,0.3c0.2,0.2,0.5,0.3,0.8,0.4
	C599.1,27,600,27.3,600.2,26.6z"/>
<polygon class="st0" points="779.9,18.4 780.2,18.1 779.6,18.2 "/>
<polygon class="st0" points="781.2,20.9 781.4,20.5 780.9,20.7 "/>
<path class="st0" d="M979.4,14.8c0.9,0.1,1.9-0.2,2.6-0.8l-2.6-0.8V14.8z"/>
<path class="st0" d="M978.8,14.8c-0.4,0.1-0.7,0.2-1.1,0.3c0.1,0.1,0.3,0.3,0.3,0.3c0.3,0,0.7-0.1,1-0.3
	C979.6,14.8,979.5,14.6,978.8,14.8z"/>
<path class="st0" d="M988.4,15.6h1.3C989.2,15,988.8,15,988.4,15.6z"/>
<polygon class="st0" points="988.1,15.9 988.4,15.6 987.8,15.8 "/>
<polygon class="st0" points="978.8,17 979.4,17.2 979.1,16.9 "/>
<path class="st0" d="M6.8,27.6c-2.4-0.2-2.7,0.5-2.9,1.3c1.2-0.1,1.3,0.2,1.4,0.6C7,29.5,6.6,28.4,6.8,27.6z"/>
<path class="st0" d="M1.2,29.6c0-0.4,0-0.9,0-1.3C0,28.4-0.1,28-0.2,27.6C-2.9,27.4-2.3,30.6,1.2,29.6z"/>
<path class="st0" d="M731.5,23.1c0.1-0.1,0.2-0.3,0.2-0.3s-0.3-0.1-0.5-0.1c-0.1,0.1-0.2,0.2-0.2,0.4
	C731.1,23.1,731.5,23.2,731.5,23.1z"/>
<path class="st0" d="M664.2,24h12.4C672.6,22.3,668.3,23.2,664.2,24z"/>
<path class="st0" d="M916,17.7c-0.2-0.7-0.9-1-1.7-1c-1.1,0.3-1.8,1-1.6,2c0,0.1,0,0.1,0,0.2c0.2,0.7,1,1,1.6,0.8
	C915.4,19.3,916.2,18.7,916,17.7z"/>
<path class="st0" d="M917,8.8h3.3c-0.2-1.3-0.2-3.1-2-3.1C916.1,5.8,917.4,7.7,917,8.8z"/>
<path class="st0" d="M686.9,23.4c-0.4-0.2-0.9-0.4-1.3-0.5c-0.8-0.1-1.6-0.2-2.1,0.5c0.3,0.2,0.6,0.6,1,0.6
	C685.4,24.2,686.5,24.5,686.9,23.4z"/>
<polygon class="st0" points="916.6,9.4 917,8.8 916.3,9.1 "/>
<polygon class="st0" points="918.2,13.6 918.6,13 917.9,13.3 "/>
<polygon class="st0" points="1620.2,2.4 1620.5,1.8 1619.9,2.1 "/>
<path class="st0" d="M1175.1,1.8l-3.3-1.4v2.8C1173.1,3.2,1174.4,2.9,1175.1,1.8z"/>
<path class="st0" d="M1171,3.2c-0.5,0.1-0.9,0.3-1.4,0.5c0.1,0.2,0.3,0.5,0.4,0.5c0.5-0.1,1-0.2,1.4-0.5
	C1172.1,3.2,1171.9,3,1171,3.2z"/>
<path class="st0" d="M1183.3,4.6h1.6C1184.4,3.6,1183.8,3.6,1183.3,4.6z"/>
<polygon class="st0" points="1182.9,5.2 1183.3,4.6 1182.6,4.9 "/>
<polygon class="st0" points="1171.1,7.1 1171.8,7.4 1171.4,6.8 "/>
<path class="st0" d="M1633.7,1.8l1.6-1.4C1632.9-0.8,1634.1,1.2,1633.7,1.8z"/>
<path class="st0" d="M1559.7,6L1559.7,6L1559.7,6z"/>
<path class="st0" d="M1446.3,11.6c-0.1-1.8,0.7-4.4-3.3-2.8C1443.6,10.2,1444.8,11.2,1446.3,11.6z"/>
<path class="st0" d="M1445.3,5c0.2-0.1,0.6-0.1,0.6-0.2c0-0.2-0.1-0.4-0.2-0.6c-0.2,0.1-0.6,0.1-0.6,0.2
	C1445.1,4.6,1445.2,4.8,1445.3,5z"/>
<path class="st0" d="M295.2,28.9h12.4C303.6,27.2,299.3,28,295.2,28.9z"/>
<path class="st0" d="M547,22.5c-0.2-0.6-0.9-1-1.7-1c-1.1,0.3-1.8,1-1.6,2c0,0.1,0,0.1,0.1,0.2c0.2,0.6,1,1,1.6,0.7
	C546.4,24.2,547.2,23.6,547,22.5z"/>
<path class="st0" d="M548,13.7h3.3c-0.2-1.3-0.2-3.1-2-3.1C547.1,10.6,548.4,12.6,548,13.7z"/>
<path class="st0" d="M317.9,28.3c-0.4-0.2-0.9-0.4-1.3-0.5c-0.8-0.1-1.6-0.2-2.1,0.5c0.3,0.2,0.6,0.6,1,0.6
	C316.4,29,317.5,29.4,317.9,28.3z"/>
<polygon class="st0" points="547.6,14.2 548,13.7 547.3,14 "/>
<polygon class="st0" points="549.2,18.5 549.6,17.9 548.9,18.2 "/>
<polygon class="st0" points="1251.2,7.2 1251.5,6.6 1250.9,6.9 "/>
<path class="st0" d="M818.3,11.3c-0.4-0.8-1.6-1.2-2.4-1.8c-0.3,2.4-1.2,4.6-4.5,2.8c-3.1-1.6-5.8-0.4-8.6,0
	c-1.6,1.8-2.6,0.8-3.6-0.6c-0.8-1-1.8-2.1-3.2-1c-1.8,1.4,0,2.2,0.8,3.4c2.1,3.3,6.8,0.3,9.2,2.9c0.5,0.5,0.9-1.1,1.2-1.9
	c0.7-2.4,3-1.5,3.1-0.3c0.6,5,4.8,3.2,7.1,2.4C820.4,16.2,819.5,13.4,818.3,11.3z"/>
<path class="st0" d="M831.7,19.9c0.9-8-1.5-9.5-10.5-6.5c0.7,2.2,1.3,4.2,1.9,6.2C826.2,19.5,829,19,831.7,19.9z"/>
<path class="st0" d="M809.9,21.7c-1.6-1.3-3.6-1.6-5.6-1.9C805.9,23.4,805.9,23.4,809.9,21.7z"/>
<path class="st0" d="M791.3,20.3c1.4-3.2-1.8-3.8-2.5-5.4C788,17.3,789,18.8,791.3,20.3z"/>
<path class="st0" d="M806.1,6.6l-3.3-1.4V8C804.1,8,805.4,7.8,806.1,6.6z"/>
<path class="st0" d="M784.3,20.1c0.3-0.1,0.6-0.3,0.9-0.5c-0.5-0.5-0.9-1-1.5-1.4c-0.7-0.5-0.9-0.4-0.4,0.9
	C783.6,19.4,783.9,19.7,784.3,20.1z"/>
<path class="st0" d="M802,8.1c-0.5,0.1-0.9,0.3-1.4,0.5c0.1,0.2,0.3,0.5,0.4,0.5c0.5-0.1,0.9-0.2,1.3-0.5
	C803.1,8.1,802.9,7.8,802,8.1z"/>
<path class="st0" d="M814.3,9.4h1.6C815.4,8.5,814.8,8.5,814.3,9.4z"/>
<polygon class="st0" points="813.9,10 814.3,9.4 813.6,9.8 "/>
<polygon class="st0" points="802.1,11.9 802.8,12.2 802.4,11.7 "/>
<path class="st0" d="M1264.7,6.6l1.6-1.4C1263.9,4.1,1265.1,6.1,1264.7,6.6z"/>
<polygon class="st0" points="1190.7,10.9 1190.7,10.9 1190.7,10.8 "/>
<path class="st0" d="M1076.3,9.8c0.2-0.1,0.6-0.1,0.6-0.2c0-0.2-0.1-0.4-0.2-0.6c-0.2,0.1-0.6,0.1-0.6,0.2
	C1076.1,9.4,1076.2,9.6,1076.3,9.8z"/>
<path class="st0" d="M1026.9,20.5c-0.9,0-1.5,0.1-2.1,0.2c0.1,0.2,0.9,0.2,2.1,0.2l19.3-0.5c1.1,0,2.6-0.1,1.9-0.2
	c-0.9-0.1-1.8-0.1-2.6-0.1C1039.3,20.1,1033.1,20.3,1026.9,20.5z"/>
<path class="st0" d="M1597.8,16.4c-0.3,0.2,1.6,0.3,3,0.3c2.3,0.1,4.9,0.1,7.4,0.1h3.1c1,0.1,2,0,3-0.1c-0.8-0.2-1.6-0.3-2.4-0.2
	c-3.2-0.1-6.5-0.2-9.8-0.2C1600.7,16.2,1599.2,16.3,1597.8,16.4z"/>
<path class="st0" d="M1393.8,13.3h-20.7c-1,0-2.2,0.1-1.9,0.2c0.6,0.1,1.2,0.1,1.8,0.1C1380,13.7,1387.1,13.7,1393.8,13.3z"/>
<path class="st0" d="M1411.4,13.4c-0.4-0.1-0.8-0.1-1.2-0.1c-0.9-0.1-1.7,0-2.6,0.1c-0.1,0.1,0.6,0.2,1.4,0.2
	C1409.9,13.5,1410.7,13.5,1411.4,13.4z"/>
<path class="st0" d="M1311.9,16.2c1,0,1.3-0.1,1.2-0.1c-0.3-0.1-0.7-0.1-1-0.1c-1,0-1.2,0.1-1.2,0.2
	C1311.2,16.2,1311.6,16.2,1311.9,16.2z"/>
<path class="st0" d="M38.1,60.5c-0.9,0-1.5,0.2-2.1,0.2c0.1,0.2,0.9,0.2,2.1,0.2c6.5-0.1,12.9-0.3,19.3-0.5c1.1,0,2.6-0.1,2-0.2
	c-0.9-0.1-1.8-0.1-2.6-0.1C50.5,60.2,44.3,60.4,38.1,60.5z"/>
<path class="st0" d="M1849,42.5L1849,42.5z"/>
<path class="st0" d="M1842.7,38.8h0.3h-0.1H1842.7z"/>
<path class="st0" d="M1850.3,41.7"/>
<path class="st0" d="M1841.7,61.8L1841.7,61.8z"/>
<path class="st0" d="M1837.7,38.5L1837.7,38.5z"/>
<path class="st0" d="M1853.2,78.1L1853.2,78.1z"/>
<path class="st0" d="M1836.4,32.7L1836.4,32.7z"/>
<path class="st0" d="M1830.4,30L1830.4,30z"/>
<path class="st0" d="M1880.2,54.1c-0.2,0-0.5,0-0.7,0.1h0.5L1880.2,54.1z"/>
<path class="st0" d="M1866.6,24.8L1866.6,24.8z"/>
<path class="st0" d="M1869.6,43.1L1869.6,43.1L1869.6,43.1z"/>
<path class="st0" d="M1854.2,77.8L1854.2,77.8L1854.2,77.8z"/>
<path class="st0" d="M1870.8,64.1h-0.2H1870.8L1870.8,64.1z"/>
<path class="st0" d="M1866.2,52.3h0.3l0,0H1866.2z"/>
<path class="st0" d="M1854.1,42.5L1854.1,42.5z"/>
<path class="st0" d="M1857,45.1h0.6H1857z"/>
<path class="st0" d="M1860.6,75.1h-0.2H1860.6L1860.6,75.1z"/>
<path class="st0" d="M1837.1,39.5h-0.7h0.5H1837.1z"/>
<path class="st0" d="M1810,20.8L1810,20.8z"/>
<path class="st0" d="M1811.1,31.8L1811.1,31.8z"/>
<path class="st0" d="M1812.4,32.2L1812.4,32.2z"/>
<path class="st0" d="M1801.5,38.1L1801.5,38.1z"/>
<path class="st0" d="M1814.1,20.3h-0.6C1813.7,20.4,1813.9,20.4,1814.1,20.3C1814.2,20.3,1814.2,20.3,1814.1,20.3L1814.1,20.3z"/>
<path class="st0" d="M1793.8,37.9h-0.5c0.3,0.1,0.7,0.1,1.2,0.1L1793.8,37.9z"/>
<path class="st0" d="M1799.7,34L1799.7,34z"/>
<path class="st0" d="M1830.1,45.1"/>
<path class="st0" d="M1797.2,29.4L1797.2,29.4z"/>
<path class="st0" d="M1822.5,53.1L1822.5,53.1z"/>
<path class="st0" d="M1816.3,28.2h-0.2H1816.3L1816.3,28.2z"/>
<path class="st0" d="M1826.3,51.3L1826.3,51.3z"/>
<path class="st0" d="M1827.5,45.5L1827.5,45.5h0.2H1827.5L1827.5,45.5z"/>
<path class="st0" d="M1825,48.9h0.4h0.2H1825z"/>
<path class="st0" d="M1818.7,53h-1.7h0.9H1818.7z"/>
<path class="st0" d="M1821.2,61.5L1821.2,61.5z"/>
<path class="st0" d="M1821.2,32.4L1821.2,32.4z"/>
<path class="st0" d="M1201.2,16.2c-0.4,0.2-0.8,0.5-1.1,0.8c0.6,0,1.2,0,1.8,0c2.2-0.2,4.6-0.2,7.1-0.2c-0.4-0.2-0.8-0.4-1.3-0.6
	C1205.5,16.2,1203.4,16.2,1201.2,16.2z"/>
<path class="st0" d="M1920.1,43L1920.1,43z"/>
<path class="st0" d="M1897.2,23.2"/>
<path class="st0" d="M1575.5,15.3L1575.5,15.3z"/>
<path class="st0" d="M1902.2,78.5L1902.2,78.5L1902.2,78.5z"/>
<path class="st0" d="M1643,16L1643,16z"/>
<path class="st0" d="M1907.6,70.2L1907.6,70.2z"/>
<path class="st0" d="M1917.4,73.1L1917.4,73.1L1917.4,73.1z"/>
<path class="st0" d="M1913.6,43.3L1913.6,43.3L1913.6,43.3z"/>
<path class="st0" d="M1624.5,14.8h0.4H1624.5L1624.5,14.8z"/>
<path class="st0" d="M1414.6,15.9L1414.6,15.9z"/>
<path class="st0" d="M1376.7,14.9L1376.7,14.9z"/>
<path class="st0" d="M1285.7,14.1L1285.7,14.1z"/>
<path class="st0" d="M1280.4,14.7L1280.4,14.7z"/>
<path class="st0" d="M1789.7,49.3L1789.7,49.3z"/>
<path class="st0" d="M1202.3,15.6h3.8C1204.9,15.3,1203.6,15.3,1202.3,15.6z"/>
<path class="st0" d="M1880.8,26.1L1880.8,26.1z"/>
<path class="st0" d="M1212.7,15l-0.4,0.5c21.5-0.2,43.3-0.2,64.2-0.9l0.3-0.1c-1.3-0.1-3.5-0.1-5.3-0.1h-8.7
	c-8.5,0.3-17.5,0.3-26.5,0.3c-3.7,0.2-7.7,0.1-11.6,0.1h-1c-2.9,0.2-6,0.1-9.1,0.1l0,0L1212.7,15z"/>
<path class="st0" d="M1888.4,42.3L1888.4,42.3z"/>
<path class="st0" d="M1883.4,39.2L1883.4,39.2z"/>
<path class="st0" d="M1902.4,78.5L1902.4,78.5z"/>
<path class="st0" d="M1889.8,72.6L1889.8,72.6z"/>
<path class="st0" d="M1883.3,69.1L1883.3,69.1z"/>
<path class="st0" d="M1882.4,62h-0.4c0.5,0.1,0.9,0.1,1.4,0.1C1883.1,62.1,1882.8,62,1882.4,62z"/>
<path class="st0" d="M1883.2,62.3L1883.2,62.3z"/>
<path class="st0" d="M1891.3,77.2c-0.2,0-0.3,0-0.4,0h1.8C1892.3,77.2,1891.8,77.2,1891.3,77.2z"/>
<path class="st0" d="M1886.4,62.1L1886.4,62.1L1886.4,62.1z"/>
<path class="st0" d="M1898.6,22.9h-0.2H1898.6L1898.6,22.9z"/>
<path class="st0" d="M1900,26.7h-0.3h0.2H1900z"/>
<path class="st0" d="M1897.7,70.4h-0.5h0.3C1897.6,70.4,1897.6,70.4,1897.7,70.4z"/>
<path class="st0" d="M1893.4,73.5L1893.4,73.5z"/>
<path class="st0" d="M1886.2,44.3L1886.2,44.3h-0.4l0,0H1886.2z"/>
<path class="st0" d="M1895.9,42.4L1895.9,42.4z"/>
<path class="st0" d="M1882.1,51.3L1882.1,51.3L1882.1,51.3L1882.1,51.3z"/>
<path class="st0" d="M1902.2,29.4"/>
<path class="st0" d="M985.6,19.7c-0.1-0.1-0.1-0.2-0.2-0.4c-1,0-1.9,0-2.8,0h-0.1c0,0.1-0.1,0.2-0.2,0.4h0.9
	C984,19.7,984.8,19.7,985.6,19.7z"/>
<path class="st0" d="M990.9,20.2c1.3-0.1,2.5-0.1,3.8-0.1l-0.3-0.8h-2.2C991.9,19.8,991.4,20.1,990.9,20.2z"/>
<path class="st0" d="M985.4,20.3h0.7c-0.1-0.1-0.3-0.3-0.4-0.4c-0.3,0.1-1.2,0.1-1.7,0.2l0,0L985.4,20.3z"/>
<path class="st0" d="M984.7,18.3c-0.7-0.4-1.5-0.1-1.9,0.5l2.3-0.1C985.1,18.5,984.9,18.4,984.7,18.3z"/>
<path class="st0" d="M964.9,21.8l-2.3,0.2h10.8l0.9-0.2c0.7-0.2,1.4-0.1,2,0.2h4h0.5l-0.3-0.4c0.7,0.1,1.5,0.2,2.2,0.3
	c4.9-0.2,10-0.4,15.2-0.5h0.6c-1.1,0-2.1,0.1-3.2,0.1c-0.1-0.3-0.2-0.6-0.3-0.9c-7.9,0.2-15.8,0.3-23.4,0.6l0,0l-0.9,0.1
	c0,0.2-0.1,0.4-0.2,0.6c-0.3-0.1-0.6-0.3-0.8-0.5L964.9,21.8L964.9,21.8L964.9,21.8z"/>
<path class="st0" d="M980.4,19.8c0.4,0.1,0.7,0.1,1.1,0.1c-0.2-0.1-0.4-0.2-0.6-0.3C980.3,19.6,980.1,19.7,980.4,19.8z"/>
<path class="st0" d="M809.4,26.3L809.4,26.3L809.4,26.3z"/>
<path class="st0" d="M927.7,23.4L927.7,23.4l0.1,0.2l0,0L927.7,23.4z"/>
<path class="st0" d="M1143.4,20.5c0.1,0,0.2-0.1,0.3-0.1h-0.1C1143.5,20.4,1143.5,20.5,1143.4,20.5z"/>
<path class="st0" d="M1000.8,21.7L1000.8,21.7c0.8,0.4,3.7,0.4,6.8,0.4h1.8l2.3-0.2c5.3-0.5,12.9-0.3,19.2-0.5h-0.1
	c5.5-0.3,11.8-0.2,17.8-0.3c2.6-0.2,5.7-0.2,8.9-0.2l0,0c4-0.1,8.1-0.2,12-0.3c2-0.1,4.1-0.1,6.2-0.2l-0.8-0.4l0.3-0.5
	c-9.6,0.1-19.3,0.2-29.2,0.2h-7.5h-0.7c-1.7,0.1-3.7,0.1-5.5,0.1l0,0c-1.5,0.1-3.3,0.1-5,0.1c-1.6,0.1-3.3,0.1-4.9,0
	c-0.7-0.1-0.1-0.1,0.9-0.1c12.8-0.3,25.5-0.6,37.9-1c3.4-0.5,6.9-0.6,10.3-0.4c1.4,0,3,0,4.5,0l0.4-0.6c-1.3,0-0.9-0.1,0.1-0.2
	l0.5-0.7c-3.9-0.1-7.9,0.1-11.8,0.6c-0.2,0-0.8,0-1.2,0c-8.1,0-15.7,0.4-24,0.2c-2.8,0.1-5.4,0.3-8.4,0.4c-3.7,0.3-7.4,0.3-11.1,0.2
	l0,0c-3.5,0.1-7.2,0.1-9.8,0.4c0.6,0.5-0.5,0.9-6.8,0.7c-0.7,0-1.3,0-2,0c0,0.2,0.1,0.5,0.1,0.7h0.2c1.8-0.1,3.6-0.1,5.3,0.2
	c0.6,0.2-2.2,0.3-4.1,0.4h-1.5c0,0.2,0,0.5,0,0.7h0.8c2.4,0,5.9-0.4,6.9-0.1c1.1,0.3-3.5,0.4-6.4,0.5c-0.4,0-0.8,0-1.3,0v0.1
	c-0.2-0.1-0.4-0.1-0.6-0.1L1000.8,21.7L1000.8,21.7z"/>
<path class="st0" d="M1147,21.3h-1.6l0.1,0.1C1146,21.5,1146.5,21.4,1147,21.3z"/>
<path class="st0" d="M534.6,27.4c0.9,0.1,1.8,0.2,2.8,0.2C536.5,27.3,535.5,27.2,534.6,27.4z"/>
<path class="st0" d="M1150,20.1c-2.2,0-4.3,0.1-6.1,0.2c0.3,0,0.6,0.1,0.8,0.3l2.4-0.1h2L1150,20.1z"/>
<path class="st0" d="M1142.2,21.4h-0.5H1142.2L1142.2,21.4z"/>
<path class="st0" d="M1061.4,18.7h-0.2H1061.4L1061.4,18.7z"/>
<path class="st0" d="M1086.7,16.9c-2.7,0-5.7,0-8.6,0c0.3,0.2,0.6,0.4,0.9,0.6c1.2,0,2.4,0,3.7,0l0,0c3.2-0.1,6.8-0.1,10.2-0.1l0,0
	c14-0.2,28-0.4,42.1-0.7c8.5-0.1,16.8-0.4,25.5-0.1h0.9c0.2-0.1,0.3-0.2,0.5-0.3c0.2-0.2,0.3-0.5,0.4-0.8c-0.6,0-1.3-0.1-1.9-0.1
	v0.1l-0.2-0.1c-0.8,0-1.7-0.1-2.5-0.1c-1.4-0.1-2.8-0.1-4.3,0c-0.1,0.1-0.2,0.1-0.2,0.1v-0.1c-0.6,0-1.3,0.1-1.9,0.2
	c-0.9,0.2-1.7,0.3-2.6,0.2c-4.5-0.1-8.1,0.3-12.6,0.2l0,0c-2.4,0.1-5,0.1-7.6,0.1l0,0c-4.9,0.2-10,0.2-15.2,0.2h0.1h-0.9
	c-6.3,0.2-13.7,0.1-19.5,0.5l0,0C1090.9,16.9,1088.8,17,1086.7,16.9z"/>
<path class="st0" d="M1037.5,21.9L1037.5,21.9z"/>
<path class="st0" d="M1084.3,17.6c-1.5,0.1-3.2,0.1-4.8,0.1c0.1,0.1,0.3,0.2,0.4,0.4c3.1-0.1,6.2,0,9.3,0.2c2.8,0.3,5.6,0.4,8.4,0.1
	c1.5-0.1,2.9-0.1,4.4,0.2c0.8,0,2.2,0,2.3,0c1.6-0.6,6.9-0.5,11.4-0.6c2.7,0,5.3-0.1,8-0.1c7.9-0.1,15.7-0.3,23.7-0.2
	c3.8,0,3.1,0.2,0.3,0.3l0,0l-1.3,0.1c-1.9,0.2-4.3,0.1-6.4,0.1h-0.1c-2.9,0.2-5.9,0.3-8.9,0.2l0,0c-5,0.3-11.1,0.2-16.4,0.4l0,0
	c-6.6,0.3-14,0.2-20.9,0.4c-4.4,0.1-8.8,0.2-13.2,0.2c0,0.3-0.1,0.6-0.2,0.9c2.8-0.1,5.7-0.2,8.6-0.2c6.8-0.1,13.9,0,20.4-0.3
	c3-0.4,6.1-0.4,9.2-0.1c3.8-0.2,8.7-0.2,9.6-0.7c0-0.1,2.6-0.1,4-0.1c2.3,0,4.8,0,6.8-0.1c4.1-0.2,8.2-0.1,12.4-0.1
	c0.8-1.4,1.4-1.4,2.8,0c1.7,0,3.4,0,5.1,0c0.4-0.8,1-1.5,1.8-1.9h-0.7c-3.9,0-7.9,0.1-11.9,0.1c-14.7,0.1-28.9,0.5-43.6,0.5
	c-4.1,0.2-8.5,0.1-12.8,0.1l0,0h-0.5h-0.5C1088.8,17.6,1086.5,17.5,1084.3,17.6z"/>
<path class="st0" d="M13.1,64.3L13.1,64.3L13.1,64.3z"/>
<path class="st0" d="M48.8,62L48.8,62z"/>
<path class="st0" d="M42.2,61.5L42.2,61.5c5.4-0.3,11.8-0.2,17.7-0.3c2.6-0.2,5.7-0.2,8.9-0.2l0,0h0.8c1.4-0.4,2.9-0.8,4.3-1.2
	c-5.4,0.1-10.9,0.1-16.4,0.1H50h-0.7C47.6,60,45.6,60,43.9,60l0,0c-1.5,0.1-3.3,0.1-5,0.1c-1.6,0.1-3.3,0.1-4.9,0
	c-0.7-0.1-0.1-0.2,0.8-0.2c12.8-0.3,25.5-0.6,37.9-1c2.4-0.4,4.8-0.5,7.2-0.5c3.3-0.6,6.6-1.1,9.9-1.4c-5.1,0-10.1,0-13.1,0.6
	c-0.2,0-0.8,0-1.2,0c-8.1,0-15.7,0.4-24,0.2c-2.8,0.1-5.4,0.3-8.4,0.4c-3.7,0.3-7.4,0.3-11.1,0.2l0,0h-2.5c-2.5,1-4.9,2-6.2,3.5
	C28.6,61.4,36,61.6,42.2,61.5z"/>
<path class="st0" d="M72.7,58.8h-0.2H72.7L72.7,58.8z"/>
<path class="st0" d="M18.5,62.1l0.6-0.5l-4.5,0.5C15.7,62.1,17.1,62.1,18.5,62.1z"/>
<path class="st0" d="M12.1,61.7H12c0.8,0.2,1.6,0.4,2.4,0.4c1.6-0.3,3.2-0.5,4.8-0.5H19c-1.3,0.1-3.1,0.2-4.5,0.2
	C13.8,61.7,12.9,61.7,12.1,61.7L12.1,61.7L12.1,61.7z"/>
<path class="st0" d="M1783.3,38.2L1783.3,38.2z"/>
<path class="st0" d="M462.5,38.9L462.5,38.9L462.5,38.9C462.6,38.9,462.5,38.9,462.5,38.9z"/>
<path class="st0" d="M48.8,66.4C48.8,66.4,48.7,66.4,48.8,66.4h-0.2C48.6,66.4,48.7,66.4,48.8,66.4z"/>
<path class="st0" d="M168.9,60.2c-2.9,0.1-6.2,0.1-9.2,0.1c0.2,0.1,0.3,0.3,0.5,0.4c1.1-0.1,2.2,0,3.3,0.2c0.8,0.2-0.4,0.3-2.2,0.4
	c0.3,0.1,0.5,0.2,0.8,0.3c0.7,0,1.5,0,2.2,0c1.1,0,2.3,0,3.4,0c0.8-0.5,1.5-0.9,2.3-1.3L168.9,60.2z"/>
<path class="st0" d="M248.2,60.2L248.2,60.2L248.2,60.2z"/>
<path class="st0" d="M509,29.8L509,29.8l5.1,0.1h6.4c-0.3-0.4-0.4-0.9-0.5-1.5c-2.4,0.3-4.8,0.1-7.1-0.7
	C511.4,27.2,507.8,27.2,509,29.8z"/>
<path class="st0" d="M125.9,58.8c-3.8,0.2-8,0.2-12.2,0.2c0.8,0.3,1.7,0.6,2.5,0.9c1.4,0,2.9-0.1,4.3-0.1c3-0.4,6.1-0.4,9.1-0.1
	c3.7-0.2,8.4-0.2,9.5-0.7H135c-1.3,0.1-2.9,0.1-4.1,0.1c-0.5,0-0.9,0-1.3-0.1c0,0-0.1,0,0,0c0.5-0.1,1-0.2,1.4-0.1
	c1,0,2.6-0.1,3.8-0.1h4.6c-1.6,0-3.1-0.1-4.7-0.1C131.7,58.7,128.7,58.7,125.9,58.8L125.9,58.8z"/>
<path class="st0" d="M115.9,57.4c-2.7,0.1-5.5,0.1-8.3,0.1c1.5,0.3,2.9,0.6,4.4,1c0.5,0,0.9,0.1,1.2,0.1c0.8,0,2.2,0,2.3,0
	c1.6-0.6,6.9-0.5,11.4-0.6h0.4c0-0.3,0.2-0.6,0.6-0.7C123.9,57.4,119.9,57.4,115.9,57.4z"/>
<path class="st0" d="M53.7,63.6h-0.3H53.7L53.7,63.6z"/>
<path class="st0" d="M104.2,56.9c-0.4,0-0.9,0-1.3,0c1,0.1,2.1,0.2,3.1,0.4l26.1-0.4c0.4,0,0.8-0.3,1.1-0.6
	c-2.8,0.1-5.7,0.1-8.7,0.1h0.1c-0.3,0-0.6,0-0.9,0C117.5,56.5,110,56.4,104.2,56.9L104.2,56.9z"/>
<path class="st0" d="M1688.2,15.5L1688.2,15.5z"/>
<path class="st0" d="M1758.3,22.2c-0.4,0-0.7,0.1-1,0.1c0.4,0.1,0.8,0.1,1.2,0.1C1758.5,22.4,1758.4,22.3,1758.3,22.2z"/>
<path class="st0" d="M1757.9,20c-0.2-0.1-0.5-0.1-0.7-0.1c0,0,0.1,0.1,0.2,0.1H1757.9z"/>
<path class="st0" d="M1756.7,22.6L1756.7,22.6z"/>
<path class="st0" d="M1761.7,19.8L1761.7,19.8z"/>
<path class="st0" d="M1774.8,43.8h-0.5H1774.8L1774.8,43.8L1774.8,43.8z"/>
<path class="st0" d="M1666.7,15.8L1666.7,15.8z"/>
<path class="st0" d="M1667.9,15.4L1667.9,15.4z"/>
<path class="st0" d="M1689.5,19h0.4H1689.5L1689.5,19z"/>
<path class="st0" d="M1726.2,19.2L1726.2,19.2z"/>
<path class="st0" d="M1779.4,33.3L1779.4,33.3z"/>
<path class="st0" d="M1777,29.9h-0.2H1777L1777,29.9z"/>
<path class="st0" d="M1157.6,20.1c-0.7,0-1.4,0-2.1,0l3.1,1.3c-0.1-0.4-0.1-0.8,0-1.2L1157.6,20.1z"/>
<path class="st0" d="M1775.7,31.7L1775.7,31.7z"/>
<path class="st0" d="M1775.6,27.5h0.8h-0.1H1775.6z"/>
<path class="st0" d="M1775.7,45.1L1775.7,45.1h0.2H1775.7z"/>
<path class="st0" d="M1775.6,29.4L1775.6,29.4z"/>
<path class="st0" d="M1761.8,68L1761.8,68L1761.8,68z"/>
<path class="st0" d="M1225.7,20.2c-10,0.1-19.9,0.2-29.9,0.3c0.3,0.2,0.5,0.4,0.6,0.7c2.1,0,4.2,0,6.3,0h1.4l2.8-0.1
	c0.2-0.1,0.4-0.1,0.6-0.1c0.4,0.1,0.9,0.1,1.3,0.1C1214.4,20.8,1220.1,20.5,1225.7,20.2z"/>
<path class="st0" d="M1242.4,20.1h-4.8C1239.2,20.1,1240.8,20.1,1242.4,20.1z"/>
<path class="st0" d="M1374.1,17.8c0,0.1,0,0.2-0.1,0.3l0,0C1374,18,1374,17.9,1374.1,17.8z"/>
<path class="st0" d="M1400.3,18.5L1400.3,18.5z"/>
<path class="st0" d="M1191.6,20.7c-0.7,0.2-1.3,0.4-1.9,0.6h2.8l0.6-0.7h-0.9C1192.1,20.6,1191.9,20.7,1191.6,20.7z"/>
<path class="st0" d="M1174.6,18.7c2.7-0.1,5.6-0.1,8.3-0.1c-0.2-1-0.4-2.1-0.5-3.2c-1.5,0.1-3,0.1-4.5,0.1h-2.2
	c1.2,0.2,2.2,0.7,3.2,1.4c-2.5,1.1-3.4,1.5-4.1,0.8h-0.3c-0.8,0-1.5,0-2.2-0.1c0.8-0.2,1.5-0.2,2.3-0.2c-0.4-0.6-0.7-1.2-1-1.9h-4
	c0.7,1.2,1.8,2.1,3.1,2.4c-0.7,0.3-1.6,0.4-2.3,0.3c-0.2,0.2-0.5,0.3-0.8,0.5C1171.2,18.7,1172.9,18.6,1174.6,18.7z"/>
<path class="st0" d="M1165.2,21.4h8.2c0.4-0.2,0.7-0.4,1.1-0.5c2.8-1.1,5.9-1.4,8.8-0.7h0.3c-0.2-0.4-0.3-0.8-0.5-1.2
	c-4.1,0.1-8.3,0.1-12.5,0.1h-2.3C1167.2,19.9,1165.9,20.4,1165.2,21.4z"/>
<path class="st0" d="M1469.1,18.7L1469.1,18.7z"/>
<path class="st0" d="M1178.4,21.5L1178.4,21.5L1178.4,21.5L1178.4,21.5z"/>
<path class="st0" d="M1188.1,15.3h-1.9c0.4,0.3,0.7,0.6,1,0.9c0.2,0,0.5,0.1,0.7,0.1c0-0.2,0.1-0.4,0.2-0.6
	C1188.1,15.5,1188.1,15.4,1188.1,15.3z"/>
<path class="st0" d="M1479.9,19.4c0.2,0.1,0.4,0.3,0.6,0.4c1.8-0.1,3.4-0.2,4.9-0.3l0,0C1483.6,19.3,1481.7,19.3,1479.9,19.4z"/>
<path class="st0" d="M1451.2,17.8L1451.2,17.8h0.2l0,0H1451.2z"/>
<path class="st0" d="M1473.6,19.4c-5.6,0-11.2,0-16.8,0.1l11.5,0.5h4.6C1473.1,19.7,1473.4,19.5,1473.6,19.4z"/>
<path class="st0" d="M1442.1,18.7L1442.1,18.7h0.4H1442.1z"/>
<path class="st0" d="M1451.4,17.8"/>
<path class="st0" d="M1416.3,18.1h-0.4h0.2C1416.2,18.1,1416.3,18.1,1416.3,18.1C1416.5,18.2,1416.7,18.1,1416.3,18.1z"/>
<path class="st0" d="M-1.3,155h1923V22.5c-9.1-0.7-19-1.1-30-1.5l0,0c-12.3-0.8-26.1-1.2-39.5-1.8c-29.5-1.2-60.4-2-91.2-2.9
	c-2,0-4.1,0-6.2,0c-21.4-0.4-42.9-0.9-64.7-1.2c-9.5-0.1-19-0.3-28.7-0.2c-12.4-0.3-25.2-0.3-37.9-0.4l-14.3-0.2
	c-4.6-0.1-9.1-0.1-13.5,0.1c-1,0-2.6,0-3.7,0c-9.1-0.3-18.7-0.2-28-0.4c0.1-0.1,0.1-0.1,0.1-0.1c3.5-4.6,7.7-4.4,12.3-1.1
	c1.3-1.7,2.3-3,3.4-4.2c0.8-0.8,1-2.2-0.1-2.2c-6.2,0.1-0.5-3.6-2.2-4.9c-5.7,3-5.7,3-1.5,8.1c-4.5-2.7-8.2-0.9-11.7-1.4
	c-1-3.5,6.7-2.5,3.9-6.5c-2.5,0.1-4.8,1.1-6.6,2.8c-1.2,1.6-3.3,0.8-4.9,1.4c-1.6,1.3-2.8,2.8-2.6,4.8c-0.1,0.2-0.1,0.4-0.1,0.6
	c-0.2,0-0.5,0-0.7-0.1c-1.3-1.3-2.6-2.4-4.7-1.1c0.1,1.2,0.3,2.3,0.5,3.4c-4.1-0.1-8.4,0-12,0l-8.3,0.2c0.1-0.1,0.1-0.1,0.1-0.1
	c3.2-2.8,6.7,0.8,9.7-0.6c-4.8-1.7-3.6-5.2-3.3-8.4c-5,0.4-5.9,4.3-7.9,7.2c-0.4,0.6,0.3,1.7,1,1.9c-7.6,0.1-15.2,0.2-22.6,0.3
	c-0.8,0-1.4,0.1-2.8,0.1c5.3,0.4,12.7,0.2,17.4,0.6l0,0c0.1,0.3,1.7,0.3,3.5,0.3c8.2,0.1,16.3,0.4,24.7,0h0.8
	c1.1,2.5,3.2,2.6,8.2,0.9c1.4-0.3,2.8-0.5,4.2-0.5c5,0.1,10.1,0.1,15.3,0c8.3-0.2,16.3,0,24.5,0l0,0c6.6,0.2,13.7,0.1,20.3,0.3l0,0
	c3.3,0.2,7.3,0.2,11,0.2c2,0,2.4,0.1,1.7,0.2l-2.7,0.2l0,0c-2.5,0.3-0.8,0.5,2.3,0.6c2.5,0.1,5.1,0.1,7.7,0.2l0,0
	c-0.6,0.4-4.2,0.2-6.3,0.2c-13.5-0.1-27-0.1-40.6-0.2c-7-1.6-14.3-0.5-21.4-1.1c-0.8,0.1-1.5,0.4-2,1c-4.8,0-9.7,0-14.4,0.1
	c-4.2,0-8.4,0-12.7,0c-0.3,0-0.6-0.1-0.8-0.1l-0.1,0.1c-5.7,0-11.3,0-17,0c-0.7-0.2-1.3-0.2-2,0c-3.5,0-7,0-10.5,0
	c-2,0-4,0.1-6.1,0.2l-1.3,0.1c-6.3,0-12.6,0.1-18.9,0.1c-7.3,0-14.3,0-21.5-0.3c-13.7-0.5-27.6-0.3-40.7,0.3h-4.8
	c-0.8-0.1-1.6-0.2-2.3-0.2c-13.6,0.1-26.6-0.5-40.3-0.3h-0.7c-2.1-0.2-4.2-0.2-6.3,0l0,0l-47.8-0.3h-3.3c-6.8,0.1-13.5,0.1-20.3,0.2
	c-2.1,0-4.4-0.4-6.1,1.2l0.2,0.2h-0.1l-0.1-0.2c-15.2-1.9-30.2-1.1-45.3,0.7c-18.4,0.2-36.7,0.4-54.7,0.8c0.5-0.2,1-0.5,1.4-0.9h5.1
	c4.5,0.3,6.9-0.1,10.3-0.2h2.5c3.9,0,8,0.1,11.7-0.1c1,0,2.4,0,1.9-0.1c-1.6-0.1-3.2-0.2-4.8-0.1c-2.2,0-4.6,0-6.6,0.1h-13.5
	c-2.1-0.3-4.2-0.2-6.2,0.1c0.4-0.5,0.8-1,1.2-1.4h0.8c3-0.1,6.1-0.1,9.2-0.1c0.3,0.2,0.6,0.3,0.9,0.5l0.4-0.6c2.5,0,5.1,0,7.5-0.1
	l0,0c3,0,6.2,0.1,9-0.1l21.4-0.1c2.6,0,4.8,0,4.9-0.3s-2.7-0.1-4.1-0.1c-10.5-0.4-20.1,0.1-29.6,0.3c-2.9,0-5.8,0-8.7,0l0.5-0.6
	c10.7-0.1,21.3-0.2,32-0.2c1.7,0,3.4-0.1,5.1-0.2c11.6,0.1,23-0.2,34.6-0.1c1.6,0,4.3-0.1,4,0.1c-0.6,0.4,0.7,0.5,4.5,0.6
	c4.4,0.1,9.6,0.3,12.9-0.1c5-0.6,11.6-0.5,17.8-0.4c5.8,0.1,9.5,0,11.1-0.6c5.7,0.5,11.4,0.6,17.1,0.4c0.8,0,1.6,0,2.4-0.1
	c0.2-0.1-1.2-0.2-2.4-0.2c-3.2-0.1-6.7,0-9.8-0.2c11.3-0.2,22.7-0.2,34.2-0.2l0,0c0.3,0.5,3.5,0.7,9.3,0.7c4.3,0,8.7,0,13,0
	c2.3,0.1,4.5,0,6.7-0.4c1.8-0.5,5.7-0.5,10.4-0.5c8.4,0,17.1,0.1,25.4-0.1c1.5,0,2.9,0,4.2-0.1l-0.2,0.4c-7.9-0.1-15.8,0-19.3,0.2
	c6.8,0.1,13.3,0.2,19.9,0.2c0.3,0.2,0.7,0.3,1.1,0.5H1412c-4.1,0.1-2,0.3-1.4,0.5l0,0c-0.8,0-1.6,0-2.4,0.1c0.8,0.2,1.6,0.3,2.4,0.2
	c6.4-0.1,12.9,0,19.3-0.1c0.8,0.1,1.7,0,2.6,0c10.7,0.1,21.4-0.1,32.1,0.1c2.7,0,6.9,0.1,7.2-0.3c0.3-0.3-3.5-0.4-6.5-0.4
	c-6.4-0.1-12.8-0.1-19.2-0.1l0.1-0.1c0.1-0.1,0.1-0.2,0.2-0.4l15.9,0.1c-2-0.2-8.4-0.4-15.7-0.5c0.1-0.2,0.1-0.4,0.1-0.6h3.1
	c6.6,0.3,13.2,0,19.8,0c4.4,0,8.8-0.1,13.2-0.1c1,0,2,0,3-0.1c0.2-0.2-1.3-0.2-2.6-0.2c-6.1-0.1-12.1-0.2-18.1-0.2
	c-6.2,0-12.4-0.1-18.6-0.1c-0.8-0.9-1.7-1.6-2.8-2.2l-1.5,2.1c-5.1,0-10.3-0.1-15.4-0.1c-0.7,0-1.5,0.1-2.2,0.1
	c-15.3-0.1-30.4,0.2-45.7,0.3c-1.9,0-3.7,0.1-5,0.2c-11.9,0.1-23.6,0-35.4-0.1l1.2-0.2c1.1,0.1,2.2,0,3.3-0.2
	c0.1-0.2-1.9-0.1-3.3-0.1c-11.3,0.1-22.9,0.1-34.2,0.3l0,0c-6.4,0-12.2,0.2-17.5,0.5l0,0c-1.8-0.1-3.5-0.2-5.4-0.2
	c-0.4-0.1-0.9-0.1-1.5-0.1c-3-0.1-6.2-0.1-9.6-0.1c-1.3,0-2.6,0-3.9,0.1l0,0c-9,0.3-18.4,0.2-27.7,0.2c-1.3,0-2.7-0.1-4-0.2l0,0
	c-2.7-0.1-5.3,0-7.7,0.1l0,0h-4.9c-2.7,0-5.4-0.1-7.8,0.1l0,0h-2.4h-2.5c0.2-0.2,0.4-0.5,0.6-0.7c0.7-0.9,1-2.2-0.1-2.2
	c-6.2,0.1-0.5-3.6-2.2-4.9c-5.6,2.9-5.7,3-1.8,7.8h-0.3c-3.2-1.6-6-1.2-8.6-1.1c0.1-1,0-2-0.2-3c1.5-0.7,3-1.5,1.5-3.6
	c-1.2,0.1-2.4,0.3-3.6,0.8c-1.7-0.7-4.4-0.2-8.4,1.1l0.7,2.3c-0.1,0-0.1,0-0.2,0.1c-1.4,0.9-2.3,2.4-2.6,4.1h-2.4
	c-0.9-0.6-2.2-0.6-3.1,0.1c-0.4,0-0.9,0-1.3,0c-2.5,0-5,0-7.4,0h-0.7v0.1c-1.3,0-2.6,0.1-4,0.1c-0.4-1.3-0.4-2.7-0.2-4.1
	c2,0.1,4.3-0.4,5.8,1.2c0.5,0.6,0.9-1,1.2-1.9c0.7-2.4,3-1.5,3.1-0.3c0.6,5,4.8,3.2,7.1,2.4c3.1-1.1,2.2-3.9,1-6.1
	c-0.4-0.8-1.6-1.2-2.4-1.8c-0.3,2.4-1.2,4.6-4.5,2.8c-3.1-1.6-5.8-0.4-8.6,0c-1.6,1.8-2.6,0.7-3.6-0.6c-0.8-1-1.8-2.1-3.2-1
	c-1.8,1.4,0,2.2,0.8,3.4c0.2,0.4,0.5,0.7,0.9,0.9c-2,1-3,2.8-4,4.6h-0.9h-1.2c0.8-2.7-2.1-3.3-2.7-4.8c-0.7,2.1,0,3.5,1.7,4.8
	l-5.7,0.1l0.3-0.2c-0.5-0.5-0.9-1-1.5-1.4c-0.7-0.5-0.9-0.4-0.4,0.9c0.1,0.1,0.3,0.4,0.6,0.7c-6.2,0.1-12.5,0.1-18.5,0.3l0,0
	c-19.2,0.2-38.2,0.5-57.2,0.8c0-1.7,0.4-3.8-3.3-2.4c0.5,1,1.3,1.9,2.4,2.4l-4.2,0.1c-1.6,0-3.1,0.1-4.6,0.2l0,0
	c-11.4,0.2-23.3,0.4-34.2,0.8l0,0c-8.7,0.2-17.3,0.4-25.3,0.8l0,0l-6.4,0.2c-1-1.4-3.3-1.3-7.8-0.2c0.1,0.2,0.1,0.3,0.2,0.5
	l-1.7,0.2c-0.1-0.6-0.4-1.2-0.8-1.8c-0.3-0.4-1.2-0.7-1.9-1c-0.2,1.4-1,2.7-3.6,1.7c-2.4-0.9-4.5-0.2-6.7,0c-1.3,1-2,0.4-2.8-0.3
	c-0.6-0.8-1.6-1-2.5-0.6c-1.4,0.8,0,1.3,0.6,2c0.3,0.3,0.7,0.6,1.2,0.7l-6.7,0.3c-0.3-0.1-0.5-0.3-0.7-0.6c-0.1,0.2-0.1,0.4-0.1,0.6
	c-7.8,0.4-15.5,0.8-23,1.2v-0.1l-0.4,0.1h-0.5l0,0c-6.7,0.3-14.1,0.5-20,1l-14,0.6c-11,0-22.1,0.8-33,2.3c-5.9,0.8-12,0-18,0.3
	c-14,0.7-28,1.6-42,1.3l0,0c-3.7-1.9-8.1-2.1-12-0.5c-0.4,0.1-0.8,0.3-1.1,0.5H793l0,0c1.1-1.7,3.7-1.8,5.5-3.6
	c-1.9-1-2.5-3.9-5.3-3c-3.4,1-7.2,2.4-6.8,6.6l-3.3-1.3c-3-3.3-3.2-3.3-4.9,0c-1.6,0.6-3.1,1.5-4.9,1.4l0,0c-1.1-1.4-2.2-1.4-3.3,0
	h-8.2c-11.3,0.7-22.6,0.6-34,0.6c1-0.2,1.8-0.7,2.4-1.5c-3.1-0.9-2.5,0.5-2.6,1.5h-6.7c1.6,0.3,3.2,0.6,4.8,1
	c-0.6,0.4-0.8,0.9-0.2,1.5c0.9,0.9,2.6,0.1,4-0.4l-0.2-0.2c1.5,0.4,2.9,0.8,4.3,1.2l-8.8-0.1l0,0c-0.9-0.4-1.8-1.2-2.8-1.2
	c-10.2-0.1-20.5-0.1-30.7,0c-0.9,0-1.8,0.8-2.7,1.2l0,0h-3.2l0,0c-1.7-1.7-3.9-1.3-6.1-1.3c-35.3,0-70.5,0-105.8,0l-6.5-0.1l0,0
	c-0.1-0.3-0.2-0.7-0.2-1.1c2.7,0,5.3-0.1,8-0.2c-2.6-0.9-4.4-0.6-6.2-0.6h-1.8c0.3-2.5,3.7-2.5,5.3-1.7c4.3,2.1,9.3,2,13.4-0.4
	c0.4-0.2,1.1-0.1,1.6-0.2c3.4-0.4,6.8,0.3,9.8,2c2.7-3.3,5.8-2.4,8.9-0.6c0.4,0.3,0.9,0.5,1.5,0.5c15.4-3.2,31.1-1.2,47.9-2.2
	c-3.3-1.6-5.7-1.1-7.9-1.1c-19.7,0-39.4,0.3-59.1-0.2c-13.4-0.3-26.8,0-40.2-0.5c-0.7,0-1.5,0.4-2.5,1.6l16.3,2.1c0,0.2,0,0.4,0,0.6
	c-13.1,0-26.3,0.1-39.4-0.1c-10.4-0.2-21,0-31.4-0.3c-0.8,0.1-1.5,0.4-1.9,1l12.8,1.2c0,0.2,0,0.5,0,0.7h-15.3
	c-5.2,0.7-10.4-0.2-15.7-0.1c-5,0.1-5.1,0.2-2.4,3.4l0,0c0.1,0.7,0.4,1.2,1.5,1.5l2.8,1H438h-32.3H387h-21.4l0,0l-9.8-0.1l0,0
	c-0.9-0.4-1.8-1.2-2.8-1.2c-10.2-0.1-20.5-0.1-30.7,0c-0.9,0-1.8,0.8-2.8,1.2l0,0h-3.2l0,0c-1.7-1.7-3.9-1.3-6.1-1.3
	c-35.2,0-70.5,0-105.8,0l-6.5-0.1l0,0c-1.6-4.5,3-4.5,5-3.6c4.3,2.1,9.3,2,13.4-0.4c0.4-0.2,1.1-0.1,1.6-0.2c3.4-0.4,6.8,0.3,9.8,2
	c2.7-3.3,5.8-2.4,8.9-0.6c0.4,0.3,0.9,0.5,1.5,0.5c15.4-3.2,31.1-1.2,47.9-2.2c-3.3-1.6-5.7-1.1-7.9-1.1c-19.7,0-39.4,0.4-59.1-0.1
	c-13.4-0.3-26.8,0-40.2-0.5c-0.7,0-1.5,0.5-2.5,1.7l16.3,2.1c0,0.4,0,0.8,0,1.2h-19.6c-6.7,1.2-13.3-0.4-20-0.2
	c-6.3,0.2-6.5,0.4-3,5.8l0,0c0,1.2,0.8,2.2,1.9,2.5l6.4,3l0,0c0.5,1,1.4,1.8,2.4,2.3c-3.2-0.1-6.4-0.2-9.4-0.2
	c-1.3,0-2.7,0.2-4.2,0.2c-0.3-0.1-0.6-0.3-0.9-0.4c-4.1,1.3-13.6-0.7-18.3-0.5c-1.2-0.2-2.5-0.4-3.8-0.5s-2.5-0.2-3.8-0.6
	c-0.6-0.2-1.3-0.2-1.9-0.1c-0.5,0.1-0.5,0.2-0.5,0.4s0.1,0.2,0.3,0.3c1.7,0.5,3.5,0.8,5.3,0.9c0.8,0.1,1.5,0.1,2.3,0.2
	c-7.3,2.4-16,2.1-24,3.1c3.6,2.1,9.4,2,14,2.1c-0.1,1.1-1.5,1.4-3,1.6c4.9,1.6,10.1,1.7,15.5,1.6c0.4,1.1-1,1.6-1.6,1.8
	c-15.6,0.2-31.2,0.4-46.7,0.7c-1.6,0-3.1,0.1-4.6,0.2l0,0c-11.4,0.3-23.3,0.4-34.2,0.8l0,0c-5.3,0.1-10.5,0.3-15.7,0.4
	C22,54.7,14.4,55.6,13,57.6C9,57.7,5,57.8,1.1,58c-0.3-0.1-0.6-0.1-0.9-0.1c-0.5,0-1.2,0-1.8,0v1.2c0.7,0,1.3,0,1.9,0
	c0.4,0,0.8-0.1,1.2-0.2c3.4,0,6.6-0.1,10.5,0.1h1.1c0.2,0.2,0.4,0.5,0.6,0.6c-1,0-2.3,0-3.3,0c-3.9,0.1-8,0.1-11.9,0.2v0.6l13.1-0.3
	c0.9,0,2,0,2.8-0.1c0.2,0.2,0.5,0.3,0.7,0.4l0.2,0.2c-1.4,0-3.2,0.2-4.6,0.2c-1.8,0-3.7,0.1-4.9,0.2l-7.5,0.2L-1.3,155z
	 M1411.6,15.9L1411.6,15.9z M1373.7,14.9L1373.7,14.9z M1282.7,14.1L1282.7,14.1z M1277.4,14.7L1277.4,14.7z M1273.4,14.7
	c-20.8,0.6-42.6,0.7-64.2,0.9l0.4-0.5h1.9c3.1,0,6.2,0.1,9.1-0.1h1c3.9,0,7.9,0.1,11.6-0.1c8.9,0,17.9,0,26.5-0.3h8.7
	c1.8,0,4-0.1,5.3,0.1L1273.4,14.7L1273.4,14.7z M1199.3,15.7c1.2-0.3,2.6-0.3,3.8,0.1L1199.3,15.7L1199.3,15.7z M1198.9,17
	c-0.6,0-1.2,0-1.9,0c0.3-0.3,0.7-0.6,1.1-0.8c2.2,0,4.3,0,6.5,0c0.4,0.2,0.9,0.4,1.3,0.6C1203.5,16.9,1201.1,16.9,1198.9,17
	L1198.9,17z M1572.6,15.2L1572.6,15.2z M1621.9,14.8h-0.4h-0.1H1621.9z M1640,16L1640,16z M1894.2,23.2L1894.2,23.2z M1917.1,43
	L1917.1,43z M1914.4,73L1914.4,73z M1904.6,70.1L1904.6,70.1z M1896.7,26.7h0.3h-0.1H1896.7z M1895.5,22.9h0.2l0,0H1895.5z
	 M1894.2,70.4h0.5c-0.1,0-0.1,0-0.2,0H1894.2z M1892.9,42.4L1892.9,42.4z M1879,51.2L1879,51.2L1879,51.2L1879,51.2z M1883.2,44.2
	C1883.2,44.3,1883.2,44.3,1883.2,44.2h-0.5l0,0H1883.2L1883.2,44.2z M1890.4,73.5L1890.4,73.5z M1887.8,77.2c0.1,0,0.3,0,0.4,0
	c0.5,0,1,0,1.4,0H1887.8z M1886.8,72.6L1886.8,72.6z M1885.4,42.3L1885.4,42.3z M1883.4,62.1L1883.4,62.1L1883.4,62.1z M1880.4,39.2
	L1880.4,39.2z M1880.4,62.1c-0.5,0-0.9,0-1.4,0h0.4C1879.8,62.1,1880.1,62.2,1880.4,62.1L1880.4,62.1z M1877.9,26.2L1877.9,26.2z
	 M1876.5,54.3c0.2,0,0.5-0.1,0.7-0.1h-0.2h-0.1L1876.5,54.3z M1867.7,64.2h0.2H1867.7L1867.7,64.2z M1866.7,43.2L1866.7,43.2
	L1866.7,43.2z M1863.7,24.9L1863.7,24.9z M1863.3,52.4h0.3l0,0H1863.3z M1857.5,75.2h0.2l0,0H1857.5z M1854,45.1h0.6H1854z
	 M1851.1,42.5L1851.1,42.5z M1851.2,77.8L1851.2,77.8L1851.2,77.8z M1850.2,78.1L1850.2,78.1z M1847.3,41.7L1847.3,41.7z
	 M1846.1,42.6L1846.1,42.6z M1839.7,38.9h0.3h0.1H1839.7z M1838.7,61.8L1838.7,61.8z M1834.7,38.5L1834.7,38.5z M1833.4,39.6h0.7
	h-0.2H1833.4z M1833.4,32.6L1833.4,32.6z M1827.4,29.9L1827.4,29.9z M1824.5,45.5L1824.5,45.5h0.2H1824.5z M1823.3,51.3L1823.3,51.3
	z M1822,48.9h0.6h-0.2H1822z M1819.5,53.1L1819.5,53.1z M1818.2,61.5L1818.2,61.5z M1818.2,32.4L1818.2,32.4z M1814,53h1.7h-0.8
	H1814z M1813.1,28.2h0.2H1813.1L1813.1,28.2z M1811.2,20.4L1811.2,20.4c-0.2,0-0.5,0-0.6,0H1811.2z M1809.4,32.2L1809.4,32.2z
	 M1808.1,31.9L1808.1,31.9z M1807,20.9L1807,20.9z M1798.5,38.2L1798.5,38.2z M1796.7,34L1796.7,34z M1794.2,29.4L1794.2,29.4z
	 M1791.5,38c-0.4,0-0.8,0-1.2-0.1h0.5L1791.5,38L1791.5,38z M1786.7,49.3L1786.7,49.3L1786.7,49.3z M1780.3,38.2L1780.3,38.2z
	 M1776.4,33.3L1776.4,33.3z M1773.8,29.9h0.2l0,0H1773.8z M1773.4,27.5h-0.8H1773.4L1773.4,27.5z M1772.5,29.5L1772.5,29.5z
	 M1772.6,45.1L1772.6,45.1h0.2H1772.6z M1772.7,31.8L1772.7,31.8z M1771.7,43.9L1771.7,43.9l-0.4-0.1L1771.7,43.9z M1758.9,68
	L1758.9,68L1758.9,68z M1755.6,22.4c-0.4,0-0.9,0-1.3-0.1c0.3-0.1,0.7-0.1,1-0.1C1755.4,22.3,1755.5,22.4,1755.6,22.4L1755.6,22.4z
	 M1754.1,19.9c0.2,0,0.5,0,0.7,0.1h-0.5C1754.3,20,1754.1,19.9,1754.1,19.9z M1753.7,22.6L1753.7,22.6z M1723.2,19.2L1723.2,19.2z
	 M1686.5,19.1L1686.5,19.1h0.3H1686.5z M1685.2,15.5L1685.2,15.5z M1664.9,15.4L1664.9,15.4z M1663.7,15.9L1663.7,15.9z
	 M1466.1,18.7L1466.1,18.7z M1477.5,19.8c-0.2-0.1-0.4-0.3-0.6-0.4c1.8-0.1,3.7-0.1,5.6,0.1l0,0
	C1480.8,19.6,1479.3,19.7,1477.5,19.8L1477.5,19.8z M1453.8,19.5c5.6,0,11.2-0.1,16.8-0.1c-0.3,0.2-0.5,0.3-0.8,0.5h-4.6
	L1453.8,19.5z M1448.1,17.8h0.2H1448.1L1448.1,17.8z M1439.1,18.7L1439.1,18.7h0.4H1439.1z M1412.9,18.1h0.4
	c0.4,0.1,0.2,0.1,0.1,0.1s-0.2,0-0.3,0L1412.9,18.1z M1397.2,18.5L1397.2,18.5z M1370.9,18.1c0-0.1,0.1-0.2,0.1-0.3
	C1371,17.9,1371,18,1370.9,18.1L1370.9,18.1z M1239.4,20.1c-1.6,0.1-3.2,0.1-4.8,0H1239.4L1239.4,20.1z M1193.4,21.2
	c-0.1-0.3-0.3-0.5-0.6-0.6c9.9-0.1,19.9-0.2,29.9-0.3c-5.6,0.3-11.3,0.6-16.9,0.8c-0.4-0.1-0.9-0.1-1.3-0.1c-0.2,0-0.4,0-0.6,0.1
	l-2.8,0.1h-1.4C1197.5,21.3,1195.4,21.3,1193.4,21.2L1193.4,21.2z M1186.7,21.4c0.6-0.2,1.2-0.3,1.9-0.6c0.2-0.1,0.4-0.1,0.7-0.1
	h0.9l-0.6,0.7H1186.7z M1184.2,16.1c-0.3-0.3-0.6-0.6-1.1-0.8h1.9c0,0.1,0,0.2,0,0.4c-0.1,0.2-0.1,0.4-0.2,0.6
	C1184.7,16.2,1184.4,16.2,1184.2,16.1L1184.2,16.1z M1179.5,15.3c0.1,1,0.2,2.1,0.5,3.1c-2.8,0-5.6,0.1-8.3,0.1
	c-1.8,0.1-3.5,0.1-5.2,0.1c0.3-0.2,0.5-0.3,0.8-0.5c0.8,0.1,1.6,0,2.3-0.3c-1.3-0.4-2.5-1.2-3.1-2.4h4c0.3,0.7,0.6,1.3,1,1.9
	c-0.8-0.1-1.6,0-2.3,0.2c0.7,0.1,1.5,0.2,2.2,0.1h0.3c0.7,0.7,1.7,0.3,4.1-0.8c-0.9-0.7-2-1.2-3.2-1.4h2.2
	C1176.5,15.4,1178,15.3,1179.5,15.3L1179.5,15.3z M1175.3,21.5L1175.3,21.5L1175.3,21.5L1175.3,21.5z M1162.2,21.5
	c0.7-1.1,1.9-1.5,3.2-2.1h2.3c4.2,0,8.3-0.1,12.5-0.1c0.1,0.4,0.3,0.8,0.5,1.2h-0.3c-2.9-0.7-6-0.5-8.8,0.7
	c-0.4,0.1-0.8,0.3-1.1,0.5h-8.3V21.5z M1152.5,20.2c0.7,0,1.4,0,2.1,0h1c-0.1,0.4-0.1,0.8,0,1.2L1152.5,20.2z M1142.5,21.4l-0.1-0.1
	h1.6C1143.5,21.4,1142.9,21.5,1142.5,21.4L1142.5,21.4z M1141.7,20.7c-0.2-0.1-0.5-0.2-0.8-0.2c1.9-0.1,4-0.2,6.1-0.2l-1,0.4h-2
	L1141.7,20.7L1141.7,20.7z M1140.7,20.4c-0.1,0-0.2,0.1-0.3,0.1c0,0,0.1-0.1,0.2-0.1H1140.7L1140.7,20.4z M1138.7,21.5h0.5l0,0
	H1138.7z M1076.8,18.1c-0.1-0.1-0.3-0.3-0.5-0.4c1.7,0,3.4,0,4.8-0.1c2.2,0,4.6,0,6.6-0.1h0.5h0.5l0,0c4.3,0,8.7,0,12.8-0.1
	c14.8,0,28.9-0.5,43.6-0.5c4,0,7.9-0.1,11.9-0.1h0.7c-0.8,0.5-1.4,1.2-1.8,1.9c-1.7,0-3.4,0-5.1,0c-1.4-1.4-2-1.4-2.8,0
	c-4.2,0-8.4,0-12.4,0.1c-2.1,0.1-4.5,0.1-6.8,0.1c-1.4,0-3.9,0.1-4,0.1c-0.9,0.5-5.8,0.5-9.6,0.7c-3-0.3-6.1-0.3-9.2,0.1
	c-6.5,0.3-13.6,0.2-20.4,0.3c-2.9,0.1-5.7,0.1-8.5,0.2c0.1-0.3,0.2-0.6,0.2-0.9c4.4-0.1,8.9-0.1,13.2-0.2c6.9-0.2,14.3-0.1,20.9-0.4
	l0,0c5.3-0.2,11.4-0.1,16.4-0.4l0,0c3,0.1,5.9,0,8.9-0.2h0.1c2.1,0,4.5,0,6.4-0.1l1.3-0.1l0,0c2.8-0.1,3.5-0.3-0.3-0.3
	c-8-0.1-15.8,0.1-23.7,0.2c-2.7,0-5.3,0.1-8,0.1c-4.5,0.1-9.8,0-11.4,0.6c-0.1,0-1.5,0-2.3,0c-1.4-0.2-2.9-0.3-4.4-0.2
	c-2.8,0.2-5.6,0.2-8.4-0.1C1083,18.1,1079.9,18,1076.8,18.1L1076.8,18.1z M1076,17.4c-0.3-0.2-0.6-0.4-0.9-0.6c2.9,0,5.9,0,8.6,0
	c2.1,0.1,4.2,0.1,6.3,0l0,0c5.8-0.4,13.2-0.3,19.5-0.5h0.9h-0.1c5.2,0,10.4,0,15.2-0.2l0,0c2.6,0,5.2,0,7.6-0.1l0,0
	c4.5,0.1,8.1-0.2,12.6-0.2c0.9,0,1.7,0,2.6-0.2c0.6-0.1,1.3-0.2,1.9-0.2v0.1c0,0,0.1-0.1,0.2-0.1c1.4-0.1,2.8-0.1,4.3,0
	c0.8,0.1,1.7,0.1,2.5,0.1l0.2,0.1v-0.1c0.6,0,1.2,0.1,1.9,0.1c-0.2,0.2-0.3,0.5-0.4,0.8c-0.2,0.1-0.3,0.2-0.4,0.3h-0.9
	c-8.7-0.3-17,0-25.5,0.1c-14,0.2-28.1,0.4-42.1,0.7l0,0c-3.4,0-6.9,0-10.2,0.1l0,0C1078.3,17.4,1077.1,17.4,1076,17.4L1076,17.4z
	 M1034.2,22L1034.2,22z M1004.5,22c-3.2,0-6.1,0-7-0.4l0,0h0.1h0.6c0.2,0,0.4,0.1,0.6,0.1v-0.1c0.4,0,0.9,0,1.3,0
	c2.9-0.1,7.5-0.2,6.4-0.5c-0.9-0.2-4.5,0.1-6.9,0.1h-0.8c0-0.3,0-0.5,0-0.7h1.5c1.9-0.1,4.7-0.1,4.1-0.4c-1.8-0.2-3.5-0.3-5.3-0.2
	h-0.2c0-0.2,0-0.5-0.1-0.7c0.7,0,1.3,0,2,0c6.3,0.2,7.4-0.3,6.8-0.7c2.6-0.3,6.3-0.3,9.8-0.4l0,0c3.7,0.1,7.4,0.1,11.1-0.2
	c3-0.1,5.6-0.2,8.4-0.4c8.3,0.2,16-0.2,24-0.2c0.4,0,1,0,1.2,0c3.9-0.5,7.9-0.7,11.8-0.6l-0.5,0.7c-1,0-1.4,0.1-0.1,0.2l-0.4,0.6
	c-1.5,0-3.1,0-4.5,0c-3.4-0.2-6.9,0-10.3,0.4h0.2l0,0h-0.2c-12.3,0.4-25.1,0.7-37.9,1c-0.9,0-1.5,0.1-0.9,0.1c1.6,0.1,3.3,0.1,4.9,0
	c1.7,0,3.5,0,5-0.1l0,0c1.8-0.1,3.8,0,5.5-0.1h0.7h7.5c9.9,0,19.5-0.1,29.2-0.2l-0.3,0.5l0.8,0.4c-2.1,0-4.2,0.1-6.2,0.2
	c-3.8,0.1-8,0.2-12,0.3l0,0c-3.1,0-6.2,0-8.9,0.2c-5.9,0.1-12.3,0-17.8,0.3h0.1c-6.3,0.2-13.9-0.1-19.2,0.5l-2.3,0.2L1004.5,22
	L1004.5,22z M977.9,19.6c0.2,0.1,0.4,0.2,0.6,0.3c-0.4,0-0.8,0-1.1-0.1C977,19.7,977.3,19.7,977.9,19.6L977.9,19.6z M979.9,18.8
	c0.1-0.1,0.2-0.3,0.3-0.4c0.6-0.4,1.5-0.3,1.9,0.3L979.9,18.8L979.9,18.8z M982.4,19.4c0,0.1,0,0.3,0.1,0.4c-0.8,0-1.5,0-2.3,0h-0.9
	c0.1-0.1,0.1-0.2,0.2-0.4h0.1C980.5,19.5,981.4,19.5,982.4,19.4L982.4,19.4z M982.7,19.9c0.1,0.2,0.2,0.3,0.3,0.5h-0.7l-1.4-0.2l0,0
	C981.4,20,982.3,20,982.7,19.9L982.7,19.9z M991.6,20.1c-1.3,0-2.5,0.1-3.8,0.1c0.5-0.1,1-0.4,1.3-0.9h2.2L991.6,20.1z M959.6,22
	l2.3-0.2l0,0l4.6-0.4c0.3,0.2,0.6,0.3,0.8,0.5c0.1-0.2,0.2-0.4,0.2-0.6l0.9-0.1l0,0c7.6-0.3,15.5-0.4,23.4-0.6
	c0.1,0.3,0.2,0.6,0.3,0.9c1.1,0,2.2-0.1,3.2-0.1h-0.6c-5.2,0.1-10.2,0.3-15.2,0.5c-0.7-0.2-1.5-0.3-2.2-0.3l0.3,0.4h-0.5h-4
	c-0.6-0.3-1.3-0.4-2-0.2l-0.9,0.2L959.6,22z M924.6,23.4L924.6,23.4l0.2,0.2l0,0L924.6,23.4z M806.4,26.3L806.4,26.3L806.4,26.3z
	 M534.4,27.5c-0.9,0-1.9-0.1-2.8-0.2C532.5,27.2,533.5,27.2,534.4,27.5L534.4,27.5z M509.9,27.7c2.3,0.8,4.7,1.1,7.1,0.7
	c0,0.5,0.2,1,0.5,1.5h-6.4l-5.1-0.1l0,0C504.8,27.2,508.4,27.2,509.9,27.7z M459.6,38.9L459.6,38.9L459.6,38.9L459.6,38.9
	L459.6,38.9z M245.2,60.2L245.2,60.2L245.2,60.2z M157.2,60.7c-0.2-0.1-0.4-0.2-0.5-0.4c3,0,6.3,0,9.2-0.1l1.2,0.1
	c-0.8,0.5-1.6,0.9-2.3,1.3c-1.1,0-2.3,0-3.4,0c-0.8,0-1.5,0-2.2,0c-0.3-0.1-0.6-0.2-0.8-0.3c1.8-0.1,3-0.2,2.2-0.4
	C159.4,60.7,158.3,60.6,157.2,60.7L157.2,60.7z M110.7,59c4.2,0,8.3-0.1,12.2-0.2l0,0c2.8-0.1,5.8-0.1,8.8-0.1
	c1.6,0,3.1,0.1,4.7,0.1h-4.6c-1.2,0.1-2.8,0.1-3.8,0.1c-0.5,0-1,0-1.4,0.1c-0.1,0,0,0,0,0c0.4,0.1,0.9,0.2,1.3,0.1
	c1.3,0,2.9-0.1,4.1-0.1h4.1c-1.1,0.5-5.8,0.5-9.5,0.7c-3-0.3-6.1-0.3-9.1,0.1c-1.4,0-2.9,0.1-4.3,0.1
	C112.4,59.6,111.6,59.3,110.7,59z M109,58.5c-1.5-0.4-2.9-0.7-4.4-1c2.8,0,5.6,0,8.3-0.1c4,0,8-0.1,12-0.1c-0.3,0.1-0.5,0.4-0.6,0.7
	h-0.4c-4.6,0.1-9.8,0-11.4,0.6c-0.1,0-1.5,0-2.3,0C109.8,58.6,109.4,58.6,109,58.5L109,58.5z M100,56.8c0.4,0,0.9,0,1.3,0l0,0
	c5.8-0.4,13.2-0.3,19.5-0.5c0.3,0,0.6,0,0.9,0h-0.1c2.9,0,5.8-0.1,8.7-0.1c-0.2,0.4-0.6,0.6-1.1,0.6l-26.1,0.4
	C102,57.1,101,57,100,56.8z M50.4,63.6h0.3l0,0H50.4z M45.6,66.4L45.6,66.4h0.2C45.7,66.4,45.6,66.4,45.6,66.4z M45.6,62L45.6,62z
	 M39.1,61.4c-6.2,0.2-13.6,0-18.9,0.4c1.3-1.5,3.7-2.5,6.2-3.5h2.5l0,0c3.7,0.1,7.4,0.1,11.1-0.2c3-0.1,5.6-0.2,8.4-0.4
	c8.3,0.2,16-0.2,24-0.2c0.4,0,1,0,1.2,0c3-0.6,8-0.6,13.1-0.6c-3.3,0.3-6.6,0.8-9.9,1.4c-2.4-0.1-4.8,0.1-7.2,0.5h0.2h-0.1h-0.2
	c-12.3,0.4-25.1,0.7-37.9,1c-0.9,0-1.5,0.1-0.8,0.2c1.6,0.1,3.3,0.1,4.9,0c1.7,0,3.5,0,5-0.1l0,0c1.7-0.1,3.8,0,5.4-0.1h0.7h7.5
	c5.5,0,11-0.1,16.4-0.1c-1.5,0.4-2.9,0.8-4.3,1.2h-0.8l0,0c-3.2,0-6.2,0-8.9,0.2C50.9,61.2,44.5,61.1,39.1,61.4L39.1,61.4L39.1,61.4
	z M10.1,64.3L10.1,64.3L10.1,64.3z M11.4,62c-0.8,0-1.7-0.1-2.5-0.3H9c0.8,0,1.7,0,2.5,0c1.4,0,3.1-0.1,4.5-0.2h0.1L15.5,62
	c-1.4,0-2.8-0.1-3.9-0.1l4.5-0.5C14.5,61.6,12.9,61.8,11.4,62L11.4,62z"/>
</svg>
